<svg version="1.0" xmlns="http://www.w3.org/2000/svg"
 width="10.000000pt" height="10.000000pt" viewBox="0 0 1280.000000 1280.000000"
 preserveAspectRatio="xMidYMid meet">
<g transform="translate(0.000000,1280.000000) scale(0.100000,-0.100000)"
fill="#fff" stroke="none">
<path d="M4560 9980 l0 -2240 -1050 -2 -1050 -3 1969 -2427 c1083 -1335 1972
-2433 1975 -2440 4 -9 8 -10 12 -1 3 6 892 1104 1975 2440 l1970 2428 -1048 5
-1048 5 -3 2238 -2 2237 -1850 0 -1850 0 0 -2240z"/>
<path d="M310 2885 l0 -2305 6090 0 6090 0 -2 2293 -3 2292 -727 3 -728 2 0
-1566 0 -1567 -1392 7 c-766 3 -2340 11 -3498 16 -1158 5 -2615 13 -3237 16
l-1133 6 0 1554 0 1554 -730 0 -730 0 0 -2305z"/>
</g>
</svg>
