<svg version="1.0" xmlns="http://www.w3.org/2000/svg"
 width="18.000000pt" height="18.000000pt" viewBox="0 0 1280.000000 1238.000000"
 preserveAspectRatio="xMidYMid meet">
<g transform="translate(0.000000,1238.000000) scale(0.100000,-0.100000)"
fill="#777" stroke="none">
<path d="M6418 12369 c-10 -5 -100 -107 -201 -227 -861 -1021 -1751 -2077
-1790 -2125 -26 -32 -47 -65 -47 -73 0 -8 11 -26 25 -39 l24 -25 451 0 450 0
0 -753 c0 -718 1 -755 18 -770 17 -16 109 -17 1115 -17 l1096 0 15 22 c14 20
16 110 16 770 l0 748 458 0 c432 0 460 1 475 18 24 27 21 56 -10 94 -16 18
-239 280 -498 583 -258 302 -694 813 -969 1135 -274 322 -517 604 -539 628
-42 43 -59 49 -89 31z"/>
<path d="M1395 7299 c-643 -556 -1185 -1024 -1202 -1042 -18 -17 -33 -40 -33
-52 0 -11 19 -39 43 -61 50 -49 2308 -1970 2353 -2003 29 -21 34 -22 60 -9
l29 13 3 493 2 492 749 0 c722 0 750 1 772 19 l24 19 0 1036 c0 1023 0 1035
-20 1050 -17 13 -117 15 -772 16 l-753 0 0 504 c0 552 2 536 -58 536 -21 0
-277 -216 -1197 -1011z"/>
<path d="M10155 8244 c-19 -14 -20 -28 -23 -499 l-3 -485 -744 0 c-733 0 -745
0 -765 -20 -20 -20 -20 -29 -18 -1055 3 -1021 3 -1034 23 -1049 17 -13 117
-15 773 -16 l752 0 0 -494 c0 -541 -2 -521 59 -514 23 2 283 217 1153 953
1348 1141 1278 1080 1278 1108 0 14 -17 39 -42 63 -41 39 -2300 1954 -2362
2002 -33 26 -53 27 -81 6z"/>
<path d="M5351 4503 l-21 -18 -3 -755 -2 -755 -454 -3 c-498 -2 -491 -2 -491
-61 0 -20 241 -306 1026 -1221 564 -657 1034 -1199 1044 -1204 38 -18 66 4
185 146 66 79 519 616 1007 1194 487 578 889 1061 893 1073 4 14 1 31 -9 46
l-16 25 -460 0 -460 0 -2 761 c-3 740 -4 761 -22 775 -17 12 -184 14 -1107 14
-1020 0 -1088 -1 -1108 -17z"/>
</g>
</svg>
