<?xml version="1.0" encoding="utf-8"?>
<!DOCTYPE svg PUBLIC "-//W3C//DTD SVG 1.1//EN" "http://www.w3.org/Graphics/SVG/1.1/DTD/svg11.dtd" >
<svg version="1.1" id="Layer_1" xmlns="http://www.w3.org/2000/svg" xmlns:xlink="http://www.w3.org/1999/xlink" x="0px" y="0px" viewBox="-247 -247 512 512" enable-background="new -247 -247 512 512" xml:space="preserve">
<switch>
	<g i:extraneous="self">
		<path fill="#36A9E1" d="M-68.765,88.266c-43.969,37.133-73.241,63.309-64.42,78.02c8.851,14.742,25.545-1.576,28.415-16.559
			C-101.883,134.759-88.569,109.979-68.765,88.266z"/>
		<path fill="#36A9E1" d="M34.485,86.103c-43.938,37.146-73.241,63.309-64.376,78.035c8.807,14.727,25.516-1.608,28.4-16.591
			C1.366,132.582,14.725,107.803,34.485,86.103z"/>
		<path fill="#36A9E1" d="M137.734,83.939c-43.924,37.131-73.212,63.308-64.376,78.033c8.822,14.728,25.531-1.606,28.402-16.59
			C104.646,130.417,117.976,105.653,137.734,83.939z"/>
		<path fill="#36A9E1" d="M240.999,81.761c-43.94,37.131-73.211,63.292-64.374,78.019c8.834,14.741,25.513-1.578,28.4-16.56
			C207.924,128.254,221.238,103.474,240.999,81.761z"/>
		<path fill="#36A9E1" d="M-146.604,134.641c-43.97,37.115-73.241,63.308-64.405,78.033c8.836,14.711,25.53-1.592,28.4-16.56
			C-179.723,181.147-166.395,156.354-146.604,134.641z"/>
		<path fill="#36A9E1" d="M-43.354,132.476c-43.953,37.131-73.226,63.309-64.39,78.02c8.836,14.727,25.53-1.608,28.4-16.574
			C-76.473,178.954-63.13,154.189-43.354,132.476z"/>
		<path fill="#36A9E1" d="M59.911,130.312c-43.939,37.116-73.228,63.309-64.376,78.034c8.82,14.711,25.516-1.608,28.385-16.575
			C26.806,176.805,40.133,152.01,59.911,130.312z"/>
		<path fill="#36A9E1" d="M163.16,128.133c-43.938,37.117-73.196,63.308-64.376,78.02c8.822,14.726,25.501-1.592,28.402-16.56
			C130.071,174.626,143.399,149.847,163.16,128.133z"/>
		<g>
			<path fill="#36A9E1" d="M-118.895-230.347c13.96,57.147,5.17,99.267,23.758,94.368
				C-76.519-140.879-104.679-172.148-118.895-230.347z"/>
		</g>
		<g>
			<path fill="#36A9E1" d="M-201.737-121.147c25.125,14.246,41.699,45.712,51.182,28.957
				C-141.09-108.931-177.574-107.443-201.737-121.147z"/>
		</g>
		<g>
			<path fill="#36A9E1" d="M-245.346,3.139c60.724-17.114,92.836-6.566,87.441-25.033C-163.269-40.394-184.622-13.975-245.346,3.139
				z"/>
		</g>
		<g>
			<path fill="#36A9E1" d="M5.543-177.062c-14.922,24.703-46.869,40.408-30.414,50.354C-8.402-116.76-8.838-153.26,5.543-177.062z"
				/>
		</g>
		<path fill="#36A9E1" d="M-106.996,18.073c7.641-3.55,16.527-5.391,25.594-5.586c0.842-0.016,1.668-0.016,2.51-0.016
			c2.569,0.016,5.153,0.194,7.708,0.465c-4.042-27.258,20.212-50.039,49.259-51.828c0.216-16.51,9.116-29.343,20.769-38.602
			c-14.304-34.336-52.089-53.693-89.036-43.955c-40.377,10.624-64.481,51.993-53.842,92.369
			C-138.483-8.095-124.655,8.471-106.996,18.073z"/>
		<path fill="#36A9E1" d="M226.679,11.915c-7.049-3.847-17.207-9.377-28.221-9.151l-0.675,0.031
			c-2.677,0.074-5.246,0.511-7.861,1.292l-12.789,3.846L173.604-4.93c-1.112-4.072-2.933-8.069-5.396-11.872
			c-7.586-12.111-21.156-21.758-34.74-24.764c-3.275-0.75-6.402-1.097-9.302-1.038l-0.797,0.045
			c-1.247,0.046-2.51,0.211-3.786,0.421l-10.908,1.803l-3.576-10.488c-7.487-22.15-25.938-32.293-57.99-31.888h-0.016l-1.338,0.045
			h-0.571h-0.134c-16.26,0.51-53.586,15.867-53.961,43.968l-0.15,12.081l-12.067,0.737c-12.276,0.766-23.817,6.386-30.834,15.042
			c-3.697,4.569-7.784,12.036-6.312,21.865l2.466,16.679l-16.755-1.818c-2.135-0.225-4.27-0.359-6.373-0.359
			c-0.811-0.016-1.501-0.016-2.209,0c-14.484,0.3-26.432,5.454-31.977,13.795c-4.854,7.272-5.034,17.28-0.571,29.723
			c1.743,0.089,4.358,0.12,8.311,0.045l7.724-0.166c122.109-2.554,331.884-7.092,343.634-7.737c0.346-0.016,0.63-0.062,0.827-0.092
			c0.299-1.036,0.48-2.884,0.553-3.846c0.078-0.857,0.153-1.713,0.287-2.584l-0.344-0.106
			C250.271,40.513,235.033,16.438,226.679,11.915z"/>
	</g>
</switch>
</svg>
