<?xml version="1.0" encoding="utf-8"?>
<!DOCTYPE svg PUBLIC "-//W3C//DTD SVG 1.1//EN" "http://www.w3.org/Graphics/SVG/1.1/DTD/svg11.dtd" >
<svg version="1.1" id="Layer_1" xmlns="http://www.w3.org/2000/svg" xmlns:xlink="http://www.w3.org/1999/xlink" x="0px" y="0px" viewBox="-247 -247 512 512" enable-background="new -247 -247 512 512" xml:space="preserve">
<switch>
	<g i:extraneous="self">
		<path fill="#F59E00" d="M122.518-115.922H44.438v-45.042h69.943c5.566,0,10.085-4.511,10.085-10.084V-221
			c0-5.56-4.519-10.071-10.085-10.071H34.366c-5.564,0-10.084,4.511-10.084,10.071v49.951v55.127h-128.783
			c-56.183,0-101.896,45.706-101.896,101.889V95.496c0,5.566,4.519,10.085,10.069,10.085h183.637h14.9v114.047h-104.097
			c-5.582,0-10.085,8.934-10.085,14.5c0,5.567,4.503,15.017,10.085,15.017h239.776c5.564,0,10.068-9.449,10.068-15.017
			c0-5.566-4.504-14.5-10.068-14.5H29.451V105.581h184.878c5.551,0,10.068-4.519,10.068-10.085V-14.033
			C224.397-70.216,178.714-115.922,122.518-115.922z M-58.359-19.866h-90.247v-34.507h90.247V-19.866z M204.243,85.425H-2.619
			v-99.458c0-33.423-16.175-63.137-41.106-81.727h68.008v37.083c0,5.566,4.52,10.085,10.084,10.085
			c5.568,0,10.072-4.52,10.072-10.085V-95.76h78.079c45.063,0,81.726,36.663,81.726,81.727V85.425z"/>
	</g>
</switch>
</svg>