<?xml version="1.0" encoding="utf-8"?>
<!DOCTYPE svg PUBLIC "-//W3C//DTD SVG 1.1//EN" "http://www.w3.org/Graphics/SVG/1.1/DTD/svg11.dtd" >
<svg version="1.1" id="Layer_1" xmlns="http://www.w3.org/2000/svg" xmlns:xlink="http://www.w3.org/1999/xlink" x="0px" y="0px" viewBox="-247 -247 512 512" enable-background="new -247 -247 512 512" xml:space="preserve">
<switch>
	<g i:extraneous="self">
		<g>
			<path fill="#F59E00" d="M-29.71-130.042c-0.447,8.306-10.677,12.317-11.512,27.99c-0.433,8.319,11.779,20.667,24.618,21.338
				c12.87,0.701,95.239-14.986,108.153-15.732c12.928-0.731,152.561-16.269,161.269-18.639
				c-8.396-3.311-145.462-36.31-158.227-38.442c-12.765-2.103-93.196-23.515-106.036-24.201
				c-12.838-0.702-26.304,10.303-26.735,18.609C-39.104-142.001-29.024-142.896-29.71-130.042z"/>
			<path fill="#F59E00" d="M-51.265-131.204c-29.016,0.354-85.33,7.616-94.785,44.927c2.058,8.456,16.254,26.005,16.254,26.005
				l-3.116-22.666c6.455,9.544,18.37,15.851,32.506,13.346c-7.44-3.758-13.644-10.454-13.644-10.454l10.647-10.825l-17.73-7.277
				l10.885-7.962c6.428,9.542,21.666,41.364,50.163,39.292L-75.28-78.612l14.032-3.907l-22.934-19.803l21.354-1.551l-8.158-13.733
				c0,0,13.929-5.339,36.311-12.72c-21.473-9.708-34.789-16.477-34.789-16.477l9.604-12.794l-21.101-3.832l24.934-17.253
				l-13.541-5.383l16.344-10.08c-28.107-5.101-46.644,24.947-54.055,33.729l-9.961-9.051l18.401-5.354l-9.469-11.914
				c0,0,6.919-6.009,14.702-8.961c-13.808-3.952-26.318,1.043-33.744,9.871l5.487-22.248c0,0-15.971,15.985-18.893,24.141
				C-135.318-147.821-80.084-134.625-51.265-131.204z"/>
			<path fill="#F59E00" d="M-186.236-132.637l-24.857,10.139l34.535-3.876l28.928-5.651l-14.807,9.23l-9.842,23.829
				c0,0,41.767-32.135,71.948-34.834c-31.373-1.655-67.862-42.229-67.862-42.229l7.262,24.708l13.748,10.751l-28.167-8.664
				l-33.924-7.531l23.649,12.706l-38.829,3.682L-186.236-132.637z"/>
			<path fill="#F59E00" d="M217.747,114.373c-17.834-9.172-37.667-12.049-54.949-17.611c-18.818-3.43-39.784-11.004-58.768-8.439
				c-3.877-20.295-16.104-38.904-34.161-44.689c-22.979-1.299-45.123-2.357-67.52,0c-3.504,13.584,10.438,24.125,18.639,33.699
				c-47.702,2.877-57.692-6.977-144.82,11.586l-34.744-5.084c-13.032-21.486-32.88-46.033-59.169-42.334
				c-5.592,12.062,4.354,39.35,20.728,55.74c1.894,7.545-37.428-2.326-24.56,40.008c3.698,4.652,40.769-13.764,55.546-19.416
				c15.985,4.264,29.167,2.162,41.514,12.168c78.39,51.459,132.161,53.859,136.886,57.99c-66.697,13.359,6.98,26.215,21.667,45.883
				c22.234,6.25,39.457-36.711,42.006-41.945c46.36-4.205,93.421-15.971,134.086-40.172c2.027-3.668,7.485-4.504,7.425-9.752
				l-26.244-4.07C198.869,136.039,236.564,117.801,217.747,114.373z M149.362,148.207c-9.633,0-17.447-7.828-17.447-17.447
				c0-9.662,7.814-17.461,17.447-17.461c9.647,0,17.46,7.799,17.46,17.461C166.822,140.379,159.01,148.207,149.362,148.207z"/>
			<path fill="#F59E00" d="M109.714,17.031c-49.627,0-49.627-24.681-99.208-24.681c-49.551,0-49.551,24.681-99.147,24.681
				c-49.58,0-49.58-24.681-99.131-24.681c-31.038,0-42.702,9.642-59.228,16.863v15.01c16.807-7.25,28.393-17.094,59.75-17.094
				c49.625,0,49.625,24.708,99.206,24.708c49.625,0,49.625-24.708,99.235-24.708c49.597,0,49.597,24.708,99.223,24.708
				c49.669,0,49.669-24.708,99.295-24.708c28.474,0,40.674,8.112,55.291,15.021V7.758C250.039,0.763,237.948-7.65,208.933-7.65
				C159.382-7.65,159.382,17.031,109.714,17.031z"/>
			<path fill="#F59E00" d="M208.933-40.945c-49.551,0-49.551,24.678-99.219,24.678c-49.627,0-49.627-24.678-99.208-24.678
				c-49.551,0-49.551,24.678-99.147,24.678c-49.58,0-49.58-24.678-99.131-24.678c-31.063,0-42.69,9.673-59.228,16.898v15.001
				c16.814-7.243,28.386-17.093,59.75-17.093c49.625,0,49.625,24.678,99.206,24.678c49.625,0,49.625-24.678,99.235-24.678
				c49.597,0,49.597,24.678,99.223,24.678c49.669,0,49.669-24.678,99.295-24.678c28.502,0,40.672,8.135,55.291,15.05v-14.401
				C250.039-32.5,237.979-40.945,208.933-40.945z"/>
		</g>
	</g>
</switch>
</svg>