<?xml version="1.0" encoding="utf-8"?>
<!DOCTYPE svg PUBLIC "-//W3C//DTD SVG 1.1//EN" "http://www.w3.org/Graphics/SVG/1.1/DTD/svg11.dtd" >
<svg version="1.1" id="Layer_1" xmlns="http://www.w3.org/2000/svg" xmlns:xlink="http://www.w3.org/1999/xlink" x="0px" y="0px" viewBox="-247 -247 512 512" enable-background="new -247 -247 512 512" xml:space="preserve">
<switch>
	<g i:extraneous="self">
		<path fill="#EA572D" d="M-109.491-206.584c-61.71,0-111.912,50.232-111.912,111.942c0,61.724,50.202,111.927,111.912,111.927
			c61.739,0,111.942-50.203,111.942-111.927C2.451-156.352-47.752-206.584-109.491-206.584z M-21.712-94.642
			c0,16.725-4.785,32.315-12.938,45.612l-134.107-110.108c15.622-14.429,36.415-23.268,59.265-23.268
			C-61.092-182.407-21.712-143.041-21.712-94.642z M-197.24-94.642c0-16.814,4.844-32.495,13.071-45.879L-49.958-30.338
			C-65.639-15.835-86.506-6.892-109.491-6.892C-157.86-6.892-197.24-46.273-197.24-94.642z"/>
		<g>
			<g>
				<path fill="#EA572D" d="M130.878-32.738l-27.621-15.92c-72.218,13.251-83.933-39.351-86.05-60.592
					c24.43-13.772,77.017-14.86,90.299,48.34l23.85,15.396l0.834-23.357c-55.27-38.233-10.835-100.225,3.474-111.927
					c22.88,7.26,60.188,80.655,7.602,112.017l0.06,24.594l23.148-13.534c-3.711-22.806,41.976-78.539,95.099-49.323
					c-9.048,33.269-54.719,83.859-90.822,59.414L143.86-31.666l0.163,43.271l-13.146,0.536V-32.738z"/>
			</g>
			<g>
				<path fill="#EA572D" d="M136.185-68.05"/>
				<path fill="#EA572D" d="M139.389-180.156"/>
			</g>
			<g>
				<path fill="#EA572D" d="M170.438-57.72"/>
				<path fill="#EA572D" d="M265-107.64"/>
			</g>
			<g>
				<path fill="#EA572D" d="M111.471-60.91"/>
				<path fill="#EA572D" d="M21.172-109.25"/>
			</g>
			<g>
				<path fill="#EA572D" d="M33.381-72.06"/>
				<path fill="#EA572D" d="M57.571-116.673"/>
			</g>
			<g>
				<path fill="#EA572D" d="M53.309-53.95"/>
				<path fill="#EA572D" d="M81.451-108.712"/>
			</g>
		</g>
		<g>
			<path fill="#EA572D" d="M216.511,35.456c-20.823,0-20.823,27.664-41.661,27.664s-20.838-27.664-41.677-27.664
				c-20.823,0-20.823,27.664-41.616,27.664c-20.837,0-20.837-27.664-41.661-27.664c-10.972,0-16.202,7.705-21.703,14.979
				c-2.787,7.497-4.755,15.336-5.874,23.505c8.646-8.093,13.044-21.911,27.814-21.911c20.811,0,20.811,27.665,41.647,27.665
				c20.854,0,20.854-27.665,41.691-27.665c20.822,0,20.822,27.665,41.66,27.665c20.869,0,20.869-27.665,41.706-27.665
				c14.728,0,19.153,13.742,27.771,21.822c-1.044-7.707-2.876-15.144-5.44-22.239C233.311,43.996,228.108,35.456,216.511,35.456z"/>
			<path fill="#EA572D" d="M216.511,72.749c-20.823,0-20.823,27.679-41.661,27.679s-20.838-27.679-41.677-27.679
				c-20.823,0-20.823,27.679-41.616,27.679c-20.837,0-20.837-27.679-41.661-27.679c-15.129,0-19.317,14.592-28.455,22.567
				c0.269,5.127,0.82,10.15,1.715,15.054c8.139-8.152,12.714-21.046,26.978-21.046c20.811,0,20.811,27.68,41.647,27.68
				c20.854,0,20.854-27.68,41.691-27.68c20.822,0,20.822,27.68,41.66,27.68c20.869,0,20.869-27.68,41.706-27.68
				c14.25,0,18.841,12.819,26.934,20.971c0.896-4.724,1.419-9.598,1.702-14.548C235.991,87.894,231.953,72.749,216.511,72.749z"/>
			<path fill="#EA572D" d="M216.511,110.102c-20.823,0-20.823,27.65-41.661,27.65s-20.838-27.65-41.677-27.65
				c-20.823,0-20.823,27.65-41.616,27.65c-20.837,0-20.837-27.65-41.661-27.65c-11.493,0-16.65,8.408-22.479,15.98
				c1.296,3.8,2.832,7.495,4.518,11.074c4.486-5.604,9.479-10.493,18.198-10.493c20.811,0,20.811,27.68,41.647,27.68
				c20.854,0,20.854-27.68,41.691-27.68c20.822,0,20.822,27.68,41.66,27.68c20.869,0,20.869-27.68,41.706-27.68
				c8.678,0,13.699,4.874,18.186,10.478c1.595-3.473,3.056-7.02,4.337-10.642C233.4,118.837,228.257,110.102,216.511,110.102z"/>
		</g>
		<path fill="#EA572D" d="M143.414,178.982c0,0-34.851,14.74-31.884,15.62c-41.034-11.938-64.259,7.363-65.183,7.126
			c-6.998-1.839-12.164-1.896-18.113-2.034c3.626,0.029,7.282-0.12,10.93-0.516c1.399-0.178,8.167-1.297,13.4-5.843
			c4.022-3.593,12.444-33.464-38.474-36.996c-28.364-1.982-43.017-11.193-64.943-61.605c-5.709-13.117-27.799-23.699-52.796-25.98
			c-15.501-1.417-44.031,0.672-50.337,1.565c-21.255,2.966-36.026,1.028-47.668,1.073c-9.283,0.035-30.121-2.74-45.347-4.974
			v107.765c30.145-16.868,89.756-43.831,109.859-6.739c18.096,33.405,28.201,54.54,28.201,54.54s14.504,27.396,56.911,19.468
			c0,0,36.92,3.01,78.389,0.7c19.393-1.074,44.94,7.17,61.382-0.239c26.801-12.088,65.942-26.07,65.942-26.07
			s33.746-11.61,34.179-12.893C192.438,189.608,173.448,168.697,143.414,178.982z M21.588,199.439
			c-0.319-0.021-0.643-0.042-0.97-0.065C20.94,199.398,21.265,199.417,21.588,199.439z M20.104,199.337
			c-1.811-0.138-3.746-0.333-5.846-0.616C16.182,198.969,18.133,199.177,20.104,199.337z"/>
	</g>
</switch>
</svg>
