<?xml version="1.0" encoding="utf-8"?>
<!DOCTYPE svg PUBLIC "-//W3C//DTD SVG 1.1//EN" "http://www.w3.org/Graphics/SVG/1.1/DTD/svg11.dtd" >
<svg version="1.1" id="Layer_1" xmlns="http://www.w3.org/2000/svg" xmlns:xlink="http://www.w3.org/1999/xlink" x="0px" y="0px" viewBox="-247 -247 512 512" enable-background="new -247 -247 512 512" xml:space="preserve">
<switch>
	<g i:extraneous="self">
		<g>
			<path fill="#E9572E" d="M141.928-102.665c0.307,0,0.584-0.051,0.801-0.152c3.697-1.703,6.461-4.467,7.422-7.393
				c0.989-2.99,0.275-7.218-2.998-9.182c-0.465-0.262-1.252-0.742-1.73-0.742c-1.295,1.048-1.486,2.299-1.703,3.624
				c-0.117,0.749-0.233,1.52-0.524,2.269c-0.522,1.296-1.702,2.177-2.851,3.027c-1.762,1.31-3.29,2.438-2.839,4.853
				C137.885-104.279,140.197-102.665,141.928-102.665z"/>
			<path fill="#E9572E" d="M101.141,172.754c-4.074,0-10.638-3.879-15.482-7.486c-2.096-1.572-3.885-3.1-5.006-4.213
				c-3.639-3.646,1.455-8.039-0.714-10.965c-2.228-2.918-5.137,5.85-10.972,1.469c-5.836-4.387-12.441-8.047-13.169-14.623
				c-0.321-2.941-0.96-6.324-2.052-9.416c-1.353-3.84-3.478-7.238-6.724-8.867c-5.863-2.92-9.502-3.652-8.075-10.238
				c1.483-6.576-1.427-12.434,3.682-14.623c5.122-2.199,6.592-5.844,10.259-2.199l-1.267-1.832l-0.451-0.664
				c2.33-1.6,2.11-2.814,1.396-5.418c-0.145-0.547-0.29-1.1-0.377-1.658c-4.643-1.689-8.76-3.691-11.438-6.688
				c-3.012-3.318-3.551-3.893-7.189-3.414c-1.469,0.211-2.662,0.334-3.725,0.445c-1.514,0.152-2.604,0.342-3.682,0.633
				c-0.074,0.93-0.334,1.965-1.149,3.143c-3.129,4.518-6.432,3.986-8.411,3.332c-0.028,3.596-2.095,4.664-3.93,4.891
				c-2.008,0.254-3.433-0.59-4.452-1.674c-0.32,1.271-0.874,2.467-2.052,3.268c-0.713,0.473-1.528,0.719-2.401,0.719
				c-0.495,0-0.991-0.072-1.485-0.225c-3.273-0.977-4.264-3.951-4.919-5.916c-0.26-0.793-0.494-1.455-0.712-1.797
				c-0.043,0.102-0.101,0.197-0.116,0.283c-0.685,1.52-2.109,4.672-6.315,4.992c-3.507,0.275-4.671-0.176-6.505-1.238
				c-0.32-0.195-0.728-0.42-1.237-0.684c-0.843,0.713-1.761,1.143-2.284,1.354c-0.349,1.471,0.263,2.619,1.033,4.074
				c0.335,0.654,0.685,1.463,1.033,2.242c0.669,1.527,1.251,3.244,1.251,5.492c0,2.92-1.047,5.057-1.817,6.621
				c-0.278,0.531-0.627,1.266-0.642,1.521c0.829,0.646,1.471,1.092,2.053,1.482c2.328,1.588,4.146,3.211,4.772,8.273
				c5.238-1.717,8.222-8.688,13.823-6.207c6.578,2.934,8.761,6.594,9.489,10.246c0.741,3.658,2.211,7.318,5.121,10.229
				c0.029,0.043,0.059,0.08,0.115,0.102c2.811,2.816,2.811,2.146,3.552,6.484c0.727,4.387,0.727,1.471,4.38,5.85
				c3.652,4.387,10.987,8.055,10.259,13.162c-0.757,5.121,8.761,6.584,13.141,8.039c1.848,0.627,3.944,2.285,5.835,4.213
				c2.561,2.641,4.715,5.799,5.152,7.486c0.727,2.932,6.562,2.932,8.031,8.047c1.483,5.123,8.032,3.668,8.032,8.773
				c0,5.125,3.667,8.049,2.212,13.172c-1.483,5.115-9.518,6.582-5.849,11.697c3.637,5.115,5.849-0.727,10.243-4.387
				c4.365-3.66,6.577-5.121,8.032-9.51c1.456-4.387-11.729-10.244-4.38-16.82c7.32-6.576,6.563-6.576,11.686-1.455
				c5.121,5.121,10.943,9.508,12.427,4.381C110.643,181.537,106.961,172.754,101.141,172.754z"/>
			<path fill="#E9572E" d="M169.154,213.717c4.365-2.205,7.291,8.039,10.215,4.381c2.91-3.654-2.182-8.77-8.031-12.428
				c-5.865-3.66-12.427-3.66-10.973-7.311c1.471-3.66,8.047-5.852,6.578-9.512c-1.471-3.65-11.699-10.236-7.291-14.631
				c4.352-4.381,8.76,10.98,12.412,7.32c3.639-3.66-2.197-6.58,4.381-10.238c6.592-3.66,14.625-6.578,19.746-5.115
				c2.271,0.646,3.07,1.455,3.494,2.453l-0.874-2.371c0.67-0.248,1.31-0.627,1.979-0.998c2.969-1.682,5.529-4.322,5.529-5.668
				c0-1.986-0.917-3.936-2.402-5.465c-0.043,0.176-0.102,0.234-0.131,0.43c-0.29,1.113-0.611,2.387-1.294,3.602
				c-2.388,4.197-8.192,3.791-14.333,3.377c-3.814-0.264-5.328-1.23-6.666-2.293c-0.553-0.451-0.729-0.574-1.658-0.662
				c-0.232,0.008-0.423,0.008-1.498,0.975c-1.762,1.58-4.439,4.018-10.23,3.412c-0.016,0.053-0.365,0.648-0.582,1.049
				c-0.203,0.369-0.466,0.809-0.756,1.244c-1.02,1.572-2.65,3.332-5.807,3.572c-4.555,0.379-5.808-2.277-6.432-3.543l-0.016-0.029
				l-0.377-3.479l-0.234,3.027c-0.072,0.043-0.189,0.32-0.291,0.451c-0.393,0.617-0.961,1.834-1.324,2.646
				c-0.916,2.068-2.371,5.379-5.397,5.379c-0.349,0-0.741-0.051-1.149-0.152c-1.646-0.408-2.721-1.318-3.422-1.922
				c-0.174-0.16-0.436-0.379-0.565-0.459c0.015,0.467,0.102,0.889,0.043,1.377c-0.043,0.174-2.838,17.191-11.947,20.502
				c0.16,0.219,0.392,0.379,0.524,0.596c2.926,4.389-0.713,9.512,2.197,12.436c2.939,2.926,8.79,0,10.971,2.191
				c2.199,2.195,21.219-1.465,20.461,3.65c-0.697,5.123-8.049,5.123-10.959,4.396c-2.922-0.736-13.152-2.191-11.683,1.461
				c1.455,3.66,5.819,9.502,5.819,14.633c0,5.115,5.122,2.184,5.122,2.184s1.455,6.576,5.138,6.576c3.65,0,0-6.576,2.924-6.576
				c2.941,0,4.396,7.318,6.578,4.4c2.211-2.934-7.291-13.176-5.107-16.107c2.168-2.92,5.107,3.666,8.773,1.461
				C174.248,221.756,164.762,215.908,169.154,213.717z"/>
			<path fill="#E9572E" d="M135.787,171.211c0.219-1.359-0.858-2.713-2.545-4.611c-0.379-0.424-0.714-0.889-1.078-1.332
				c-0.961-1.172-1.848-2.41-2.182-3.914c-0.846-3.805-1.207-6.709,1.31-12.158c-0.146-1.078-3.536-2.736-6.636-3.281
				c-0.406,0.779-0.903,2.234-1.252,3.266c-1.048,3.006-2.24,6.359-4.742,8.047c0.812,1.551,1.221,3.42,0.756,6.018
				c-0.117,0.699-0.262,1.369-0.395,2.023c-1.409,7.027-2.953,12.26,0.395,16.27c2.619,3.143,5.443,5.668,8.004,8.381l-0.263-2.627
				C131.351,186.855,134.959,176.748,135.787,171.211z"/>
			<path fill="#E9572E" d="M220.332,125.963c2.955-2.475,4.891-2.996,6.083-5.748l-2.255,2.539c-3.77-3.34-9.168-7.174-12.048-7.697
				c-1.136-0.205-2.489,0.707-4.804,2.344c-1.717,1.215-3.855,2.729-6.548,3.994c-5.122,2.422-11.698,4.395-16.894,4.395
				c-1.601,0-3.07-0.189-4.337-0.611c-1.353-0.451-3.944-0.494-6.446-0.537c-4.656-0.08-9.459-0.16-12.428-2.533
				c-0.771-0.627-1.367-1.303-1.891-1.994c-0.03,0.023-0.059,0.023-0.074,0.045c-0.349,0.822-0.102,2.203,0.686,3.623
				c0.582,1.061,1.715,1.682,2.938,2.336c0.583,0.318,1.34,0.807,2.081,1.402c1.426,1.15,2.663,2.846,1.789,5.598
				c-0.96,2.895-3.929,3.781-6.11,4.436c-0.729,0.219-1.979,0.59-2.3,0.859c1.033,1.68,1.747,3.07,2.358,4.271
				c0.844,1.658,1.644,3.238,2.021,5.412c0.074,0,0.161,0.008,0.22,0.008c1.338,0.029,3.36,0.082,4.757,1.746
				c0.918,1.113,1.238,2.584,0.961,4.375c-0.158,1.053-0.393,1.992-0.625,2.85c0.393-0.051,0.742-0.174,1.223-0.129
				c3.143,0.26,4.178-0.621,5.602-1.893c1.311-1.172,3.07-2.809,6.069-2.496c2.562,0.225,3.782,1.047,4.918,1.943
				c0.64,0.508,1.048,0.842,3.056,0.975c2.996,0.203,8.133,0.566,8.905-0.314c0.263-0.479,0.437-1.242,0.64-2.051
				c0.525-2.131,1.325-5.342,5.007-7.188c2.036-1.02,4.074-1.129,6.228-1.246c2.795-0.145,5.98-0.305,10.682-2.459l0.698,1.514
				c-0.175-0.975-0.321-1.971-0.161-3.145c1.209-9.727-2.632-10.854-1.439-13.066C219.141,127.062,219.591,126.582,220.332,125.963z
				"/>
			<path fill="#E9572E" d="M227.943,92.887c-2.721,0.037-5.689,0.031-8.527-0.508c-1.993-0.373-3.463-1.318-4.555-2.619
				c-0.188-0.234-0.48-0.387-0.654-0.648c-2.271-3.57-1.02-8.514,0.423-14.252l0.217-0.832c0.757-3.07-0.522-4.734-3.244-7.914
				c-1.528-1.775-3.274-3.793-4.584-6.434c-2.169-4.334-5.733-6.99-10.622-7.877c-0.232,0.012-0.554,0.436-0.758,0.711
				c-0.988,1.281-2.779,3.596-6.635,3.342c-1.164-0.111-1.223-0.031-2.184,0.697c-1.164,0.873-2.938,2.197-6.664,3.223
				c-3.783,1.078-6.477,0.436-9.312-0.24c-2.926-0.705-6.23-1.484-12.325-0.77c-4.556,0.543-10.929,13.635-12.384,19.979
				c-1.047,4.518-5.094,7.152-11.002,7.631c1.281,1.148,2.27,2.279,2.925,3.385c1.368,2.32,1.718,4.547,1.761,6.576
				c0.03,0.393,0.03,0.932,0.074,1.107c0.451-0.008,1.818,0,3.012,0.021c1.804,0.027,6.606,0.117,6.606,4.734
				c0,2.045-1.034,3.451-1.718,4.367c-0.16,0.217-0.393,0.539-0.494,0.689c0.057,0.025,0.217,0.387,0.758,1.041
				c0.392,0.436,0.553,0.643,3.172-0.625c1.992-0.969,5.338-2.59,7.973,0.058c1.659,1.661,2.329,3.653,2.91,5.421
				c0.553,1.775,1.02,3.172,2.329,4.219c1.368,1.086,5.616,1.158,8.729,1.209c3.116,0.051,6.026,0.102,8.266,0.846
				c3.057,1.004,10.42-0.531,16.749-3.516c2.198-1.031,4.019-2.32,5.618-3.447c2.926-2.082,5.689-4.068,9.4-3.363
				c4.902,0.889,11.247,5.924,14.027,8.309c0.16-0.902,0.306-1.912,0.407-3.141c0.741-8.783-4.408-10.973,0.741-16.088
				c5.125-5.121,6.579,3.66,8.034-5.857c0.115-0.777,0.218-1.447,0.319-2.088l-1.688,3.34
				C233.648,92.865,230.736,92.918,227.943,92.887z"/>
			<path fill="#E9572E" d="M112.039,103.496c-0.334-2.752-0.334-5.516,0.277-8.303c-3.042,0.35-6.52,0.518-10.826,0.518
				c-3.784,0-6.462-1.332-8.717-3.115c-0.451,3.74-2.314,5.959-4.09,7.176c-2.443,1.672-5.66,2.312-9.225,2.312
				c-9.43,0-20.955-4.525-25.32-6.627c0.176,4.939-2.211,12.025,1.659,13.684c5.122,2.189,3.667-12.424,8.761-8.766
				c5.137,3.652-2.91,9.502,3.694,16.08c3.929,3.957,6.316,8.17,9.3,11.064c1.993,1.928,4.292,3.275,7.508,3.566
				c1.559,0.146,2.779,0.32,3.857,0.531c-1.035-1.434-1.922-2.801-2.65-4.098c-4.393-7.93-3.404-13.475-1.119-16.996
				C89.789,103.357,101.199,101.604,112.039,103.496z"/>
			<path fill="#E9572E" d="M136.588,102.273c-2.707-1.498-2.766-4.184-2.824-5.791c-0.043-1.943-0.275-3.988-3.926-6.629
				c-0.961,0.357-2.156,0.385-3.611-0.094c-0.26-0.088-0.464-0.029-0.756-0.166c-0.319-0.141-0.553-0.234-0.727-0.307
				c-0.146,0.18-0.307,0.307-0.438,0.473c-0.582,0.684-1.105,1.316-1.805,1.928c-0.961,0.838-2.095,1.492-3.377,2.029
				c-1.511,3.652-1.511,7.436-0.711,11.35c0.217,1.027,0.597,2.098,0.902,3.137c0.887,2.961,1.965,5.959,3.201,9.043
				c1.353,3.369,2.604,6.805,3.594,10.273c1.222,4.186,1.774,8.449,1.311,12.836c3.186,0.809,7.45,2.502,9.166,5.588
				c0.802,1.389,0.846,2.932,0.466,4.459c5.384-2.924,12.572-3.746,18.481-3.258c-0.219-0.531-0.467-1.049-0.785-1.711
				c-0.729-1.381-1.544-2.99-2.359-5.283c-0.757-2.137-0.35-3.717,0.133-4.67c1.177-2.352,3.74-3.121,5.805-3.74
				c0.292-0.088,0.685-0.195,1.049-0.318c-1.427-0.773-3.203-1.965-4.614-3.902c-0.231-0.305-0.509-0.473-0.714-0.836
				c-1.73-3.164-2.035-6.346-0.901-8.963c0.611-1.367,1.688-2.402,2.969-3.23c-0.261-0.75-0.495-1.5-0.813-2.008
				c-0.423,0.158-1.004,0.436-1.427,0.639c-2.242,1.07-6.897,3.355-10.447-0.938c-3.465-4.125-2.038-7.021-0.917-8.666
				C140.809,103.488,138.582,103.387,136.588,102.273z"/>
			<path fill="#E9572E" d="M-20.322,109.885c-0.857-0.584-1.79-1.238-2.808-2.264c-3.187-3.186-1.571-6.461-0.611-8.418
				c0.611-1.258,1.193-2.443,1.193-3.951c0-1.898-0.698-3.23-1.601-4.904c-0.088-0.174-0.16-0.408-0.262-0.588
				c-0.902-1.711-1.805-3.623-1.805-6.215c0-4.16,2.983-5.297,4.249-5.775c0-1.682-1.427-3.145-2.678-4.434
				c-1.659-1.736-3.405-3.533-3.229-6.008c0.058-0.982,0.479-2.416,2.08-3.689c0.757-0.611,1.761-1.34,2.896-2.168
				c3.768-2.736,10.069-7.334,11.524-11.154c1.062-2.881,3.245-5.625,5.384-8.287c1.425-1.789,4.408-5.514,4.074-6.527
				c-0.902-2.641-5.937-6.969-12.528-10.746c-2.692-1.541-5.516-4.276-8.251-6.926c-1.252-1.207-2.561-2.487-3.783-3.564
				c-1.369-1.179-2.62-2.125-3.521-2.423c-5.37-1.798-18.045-14.363-18.51-22.446l3.012-0.182c-4.38,0-8.382-2.562-10.958,0.735
				c-2.561,3.296-1.09,10.608-6.955,11.699C-69.26,2.748-75.108,6.408-76.2,8.968c-1.062,2.562-2.183,1.457-6.185,0.356
				c-4.045-1.098-4.394-1.455-6.228-5.115c-1.834-3.651-4.046-6.584-6.606-4.751c-2.562,1.819,0.363,8.769-0.364,12.072
				c-0.728,3.288-2.197,2.554-5.834,2.183c-3.669-0.356-6.578,1.105-9.518-2.548c-2.911-3.66-13.533-6.583-17.2-3.66
				c-1.601,1.296-3.638,4.046-4.758,6.76c-1.325,3.39-1.15,6.724,3.303,7.129c8.062,0.729,12.427,4.025,14.624,7.32
				c2.198,3.275,1.471,8.768,2.198,13.518c0.728,4.752,8.425,10.602,6.954,16.088c-1.105,4.133-6.358,22.605-12.339,31.439
				c-1.28,1.928-2.604,3.324-3.929,4.088l0.873-0.283c2.707,8.15,3.639,8.877,10.172,12.145c2.576,1.279,3.986,0.85,5.937,0.275
				c2.402-0.699,5.704-1.674,9.881,1.477c3.201,2.387,4.293,4.4,5.18,6.01c0.845,1.572,1.529,2.809,4.802,4.773
				c5.72,3.426,9.168,3.326,11.903,3.252l1.02-0.021c1.237-3.77,3.288-6.941,6.724-9.4c5.106-3.66,10.97-1.463,15.366,0.727
				c4.379,2.199,8.032,5.852,12.426,10.246c4.381,4.371,2.91-1.471,7.306-2.926c3.696-1.238,7.028-5.383,12.34-6.264
				C-18.503,111.143-18.939,110.836-20.322,109.885z"/>
			<path fill="#E9572E" d="M54.096,93.367l-0.643-0.944c0.202,0.401,0.354,0.847,0.453,1.323L54.096,93.367z"/>
			<path fill="#E9572E" d="M52.888,91.592l0.565,0.831C53.298,92.114,53.115,91.83,52.888,91.592z"/>
			<path fill="#E9572E" d="M-75.879,127.52c-3.027-0.123-7.029-0.814-12.472-4.074c-4.685-2.809-5.922-5.072-7.014-7.064
				c-0.757-1.381-1.34-2.475-3.492-4.074c-1.747-1.316-2.503-1.105-4.541-0.5c-2.386,0.689-5.674,1.648-10.36-0.678
				c-8.251-4.133-10.1-6.332-13.213-15.65l2.882-0.961c-4.729,0-10.74-2.277-16.793-4.758c-4.249-1.727-8.527-3.543-12.456-4.75
				c-9.518-2.92-22.817-8.557-29.249-13.156c-10.215-7.305-8.048,0.729-13.169,1.455c-5.122,0.734-10.245-5.115-11.685,1.463
				c-1.354,5.994-0.408,9.574-2.388,13.48c6.869-1.562,10.711-1.191,12.952,1.508c0.61,0.705,1.163,1.418,1.586,2.443
				c0.465,1.15,0.61,1.396,1.324,1.666c1.309,0.502,2.678,0.873,3.973,1.238c4.409,1.229,10.433,2.902,10.433,9.656
				c0,4.844-3.812,6.357-6.082,7.26c-2.4,0.953-3.229,1.383-3.42,3.268c-0.51,5.004-2.721,8.234-4.511,10.826
				c-0.334,0.5-0.626,0.945-0.917,1.402c-0.582,0.924-1.076,1.805-1.223,2.598c-0.305,1.906-1.295,2.953-2.081,3.494
				c-1.935,1.359-4.234,0.887-6.082,0.531c-0.276-0.053-0.596-0.117-0.888-0.17c0.059,0.336,0.203,0.816,0.467,1.545
				c0.566,1.695,1.338,4.008,1.338,7.262c0,4.059-2.213,6.018-4.234,7.043c1.702,0.988,3.36,2.203,3.798,4.227
				c0.262,1.271-0.059,2.59-0.901,3.709c-0.933,1.223-2.241,2.191-3.639,3.209c-1.659,1.23-3.318,2.539-4.497,4.301
				c-0.756,1.143-1.353,2.43-1.527,4.127l-2.998-0.285c5.122,3.645,8.79,5.107,8.033,10.963c-0.729,5.852-2.184,10.23,3.667,11.707
				c5.849,1.455,10.244-2.932,14.623-1.477c4.396,1.477,10.23-5.105,13.17-3.65c2.91,1.467,5.835,1.467,10.244,5.855
				c4.365,4.373,10.957,4.373,13.155,0.727c2.197-3.66,6.577-6.582,10.215-5.842c3.667,0.727,6.607,0.727,9.518-4.395
				c2.923-5.121,5.849-6.576,12.44-8.781c5.312-1.762-0.35-4.488-1.179-8.949c-0.203-1.062-0.131-2.213,0.467-3.479
				c2.91-6.576,3.638-13.881,11.67-16.822c8.062-2.91,15.352-8.768,26.309-9.492c10.914-0.721,10.274-1.455,10.973-7.91
				c-0.35,0.008-0.669,0.014-1.047,0.014C-75.05,127.578-75.486,127.535-75.879,127.52z"/>
			<path fill="#E9572E" d="M-211.516,156.07c0.466-0.336,0.917-0.66,1.339-0.98c-0.334-0.189-0.699-0.387-0.945-0.531
				c-1.994-1.107-4.468-2.49-4.468-5.197c0-3.039,2.822-3.957,4.22-4.395c2.065-0.674,2.357-0.914,2.357-2.188
				c0-2.264-0.553-3.82-1.047-5.334c-0.67-2.023-1.428-4.316-0.103-6.994c1.702-3.395,5.457-2.646,7.465-2.262
				c0.319,0.066,0.786,0.16,1.164,0.211c0.087-0.318,0.262-0.574,0.364-0.881c0.625-1.789,1.585-3.361,2.604-4.838
				c1.615-2.344,3.113-4.539,3.463-7.988c0.553-5.652,4.744-7.312,7.233-8.303c2.254-0.895,2.254-1.039,2.254-1.627
				c0-1.807-0.96-2.416-5.995-3.814c-1.469-0.414-2.998-0.838-4.481-1.396c-3.231-1.209-4.206-3.609-4.802-5.043
				c-0.451-1.092-0.902-2.219-9.443,0.014l-0.83-3.207c-1.543,5.137-0.088,14.42-6.52,21.484c-3.754,4.127-8.44,9.582-12.165,14.719
				c-3.506,4.891-6.112,9.48-6.112,12.334c0,5.848,9.502,8.055,5.108,12.434c-3.304,3.303-6.941,7.627-7.858,11.531
				c-0.276,1.289,0.364,2.381,1.121,3.369c2.851,3.719,4.539-2.467,8.964-0.277c3.492,1.762,5.603-0.166,8.934,0.832
				c0.131-0.881,0.35-1.711,0.597-2.475C-217.481,160.625-214.019,157.912-211.516,156.07z"/>
			<path fill="#E9572E" d="M161.938,154.156c-0.466-0.021-1.136-0.107-1.862-0.27l-0.059,0.184
				c-6.796-2.357-20.751-0.918-23.837,5.152l-0.494-0.242c0.059,0.344,0.117,0.678,0.203,1.062c0.133,0.547,1.15,1.703,1.894,2.547
				c0.668,0.734,1.353,1.602,2.008,2.525c1.745-0.553,3.114-0.363,4.307,0.152c0.787,0.342,1.499,0.777,2.125,1.324
				c0.204-0.379,0.38-0.793,0.524-1.121c0.028-0.064,0.057-0.145,0.087-0.203c1.165-2.656,2.969-6.861,7.565-6.496
				c3.83,0.318,5.007,2.699,5.561,3.84c0.043,0.008,0.043-0.006,0.086-0.006c-0.275-1.66,0.291-3.303,0.846-4.912
				C161.24,156.705,161.66,155.547,161.938,154.156z"/>
			<path fill="#E9572E" d="M97.475,136.936c2.035,2.029,5.164,4.309,8.09,6.672c2.153-3.842,5.791-5.588,8.732-6.912
				c2.676-1.221,4.365-2.053,4.918-3.609l2.094,0.758c-0.32-2.088-0.8-4.191-1.482-6.324c-0.859-2.633-1.835-5.303-2.94-8.025
				c-1.267-3.162-2.518-6.365-3.478-9.595c-10.056-2.409-20.023-0.917-23.152,3.915c-2.052,3.15-0.785,7.988,3.202,13.705
				c1.601,2.322,3.55,4.744,6.096,7.32l-2.11,2.066C97.443,136.914,97.475,136.92,97.475,136.936z"/>
			<path fill="#E9572E" d="M117.657,147.209c0.815-2.379,1.848-5.072,3.651-6.482c0.059-0.342,0.088-0.691,0.117-1.027
				c-1.441,1.057-3.086,1.812-4.627,2.512c-3.521,1.6-5.646,2.879-6.521,5.916c0.349,0.414,0.815,0.82,1.106,1.234
				c1.383,2.074,3.551,3.508,5.325,5.277l-1.425-2.395C116.101,151.764,117.117,148.803,117.657,147.209z"/>
			<path fill="#E9572E" d="M222.123,147.799c-5.646,2.555-9.721,2.777-12.689,2.938c-0.203,0.01-0.32,0.031-0.509,0.037
				c2.125,2.533,3.448,5.619,3.448,8.826c0,2.023-1.076,3.906-2.444,5.668c-2.4,3.076-6.083,5.615-9.022,6.688l-1.02-2.744
				c0.321,1.156,0.38,2.554,1.414,4.285c2.225,3.654,8.773-0.42,10.243-2.197c2.299-2.75,4.321-4.641,6.403-6.031
				c1.236-0.816,2.487-1.471,3.827-2.023c3.667-1.455,10.243-2.189,11.729-5.836C234.579,154.703,226.022,153.168,222.123,147.799z"
				/>
			<path fill="#E9572E" d="M162.111-40.347c9.168-4.14,14.422-7.197,15.223-8.986c0.553-1.215,0.901-2.736,1.221-4.198
				c0.67-2.991,1.484-6.279,4.426-7.706c0.173-0.072,0.275-0.211,0.451-0.276c0.958-0.372,2.094-1.826,2.98-3.827
				c-11.145-9.131-17.023-9.554-22.204-9.845c-1.077-0.058-2.097-0.115-3.116-0.232c-1.511-0.188-1.773,0.139-2.851,1.921
				c-0.961,1.601-2.386,4.01-5.646,4.308c-3.899,0.4-5.573-1.862-6.388-2.917c-0.495-0.255-1.703,0.633-2.43,1.17
				c-1.921,1.485-4.309,3.268-7.32,3.101c0.189,2.386,0.393,4.692,0.627,6.599c0.174,1.491,0.35,2.591,0.51,3.579l0.247-3.033
				l16.325,1.331l7.684,16.742l-0.641,0.887C161.53-41.286,161.82-40.841,162.111-40.347z"/>
			<path fill="#E9572E" d="M245.085-40.144c0.073,0,0.146-0.006,0.233-0.021c-0.756-1.774-4.309-3.878-6.52-5.188
				c-5.252-3.121-11.785-6.984-13.039-13.482c-0.174-0.931-0.377-1.578-0.553-2.4c-1.672-7.254-3.607-10.731-5.121-12.165
				c-0.641,0.451-1.629,1.434-2.197,2.016c-1.791,1.804-3.596,3.667-6.098,3.274c-3.012-0.51-3.521-3.479-3.769-4.904
				c-0.364-2.132-0.626-2.561-1.674-2.86c-1.235-0.319-1.949,0.146-3.987,2.767c-1.018,1.28-2.066,2.597-3.463,3.47
				c-1.993,1.252-3.93,1.033-5.209,0.814c-0.379,2.845-1.34,5.421-2.576,7.589c-1.47,2.591-3.376,4.583-5.545,5.398
				c-0.377,0.35-0.83,2.394-1.076,3.617c-0.393,1.695-0.814,3.609-1.645,5.405c-1.73,3.85-8.309,7.516-18.117,11.94
				c0.627,1.396,1.281,2.903,1.835,4.104c1.251,2.626,2.386,5.049,3.056,7.29c1.09,3.763,0.844,7.014-2.562,9.896
				c-1.718,1.463-1.892,1.957-1.892,2.008c-0.045,0.32,0.437,1.507,0.814,2.453c0.029,0.006,0.029,0.035,0.029,0.051
				c5.5-2.445,12.66-3.951,17.127-3.238c2.081,0.32,4.219,0.968,6.388,1.622c2.795,0.837,5.415,1.638,7.771,1.638
				c2.184,0,4.467-0.343,6.489-0.634c2.49-0.363,4.656-0.684,6.373-0.429c2.314,0.327,3.639,2.037,4.6,3.281
				c0.334,0.423,0.828,1.056,1.062,1.186c0.247-0.138,0.77-0.829,1.324-1.564c1.178-1.506,3.084-4.001,6.781-3.659
				c2.372,0.239,4.074,1.55,5.341,2.786c0.334-1.578,1.062-3.44,2.808-5.194c0.742-0.742,1.542-1.615,2.4-2.532
				c1.193-1.288,2.388-2.532,3.596-3.71c-1.121-1.224-1.965-2.547-2.502-3.959c-1.165-3.07-1.062-6.525,0.609-10.433
				C238.625-39.576,242.83-39.948,245.085-40.144z"/>
			<path fill="#E9572E" d="M126.445-45.324c0.044-0.058,0.232-0.043,0.467-0.051c0.51,0.029,1.149,0.059,1.921,0.139
				c0.844,0.072,1.965,0.21,3.2,0.37c3.158,0.408,10.479,1.348,12.238,0.357c1.979-1.099,5.252-2.759,8.935-2.408l-3.07-6.693
				l-12.325-0.998c-0.408,4.817-7.013-1.272-9.604,0.685c-2.461,1.833-1.295,5.843-3.446,7.856l0.972-0.537
				C126.053-46.036,126.258-45.622,126.445-45.324z"/>
			<path fill="#E9572E" d="M123.085-45.142c0.724-0.209,1.257-0.533,1.676-0.925L123.085-45.142z"/>
			<path fill="#E9572E" d="M-28.078,6.087c1.979,0.655,4.017,2.249,6.155,4.154c1.834-1.87,4.265-3.688,6.359-4.816
				c-0.161-0.183-0.349-0.371-0.728-0.677l-1.367-1.062c-3.464-2.575-4.89-4.351-4.133-10.455c0.465-3.79-0.19-5.806-5.385-7.763
				l2.124-5.667c7.292,2.735,10.158,7.107,9.284,14.181c-0.378,2.981-0.334,3.273,1.311,4.532c1.223-1.105,1.207-1.527,1.077-2.743
				c-0.029-0.102-0.947-9.028,2.69-13.089c1.151-1.288,2.664-1.972,4.323-1.972c1.817,0,4.322-1.499,5.486-4.191
				c0.32-0.749,0.596-1.549,0.654-2.48c0.146-2.547,0.96-4.664,1.658-6.541c1.151-2.998,1.603-4.65,0.394-7.015
				c-0.16,0.329-0.246,0.648-0.131,0.946c-3.667-2.917-2.313-0.888-6.592-1.455c-5.485-0.734-11.335,5.114-9.502,8.033
				c-4.045-2.175-4.744-2.918-7.306,0.372c-2.589,3.296-1.105,4.387-2.589,6.22c-0.307,0.401-0.583,1.083-0.83,1.92
				c-0.858,2.882-1.469,7.618-3.187,9.037c-2.183,1.833-5.107-0.72-8.382-1.092c-3.289-0.363-4.395,4.751-8.804,4.751l3.042-0.175
				C-42.163-5.837-31.542,4.93-28.078,6.087z"/>
			<path fill="#E9572E" d="M-6.366-13.237c-0.611,0.596-1.383,4.874-1.02,8.345c0.437,3.668-0.813,5.763-2.677,7.545
				c0.801,1.273,0.975,2.496,0.814,4.039c-0.087,0.676-0.175,1.374,0.029,2.518c0.319,1.875,0.247,3.505,0.117,5.056
				c-0.102,0.915-0.204,1.826-0.321,2.692c-0.146,1.041-0.247,2.3-0.32,3.528c4.424,2.698,11.817,7.85,13.577,13.098
				C5.202,37.73,1.928,41.84-1.245,45.82c-1.572,1.941-3.027,3.9-3.929,5.676c1.819,1.209,2.983,1.332,4.978,1.49l1.468,0.123
				c0.308,0.021,1.819-0.705,2.664-1.156c2.503-1.361,7.13-3.869,11.233,0.205c1.325,1.338,1.862,2.684,2.155,3.994
				c7.102,0.312,24.156,0.605,27.137,0.605c3.114,0,4.584,2.363,5.473,3.768c0.072,0.109,0.146,0.217,0.218,0.334
				c-0.173-0.385-0.334-0.852-0.451-1.229c-0.8-2.4-1.993-6.025,0.438-9.045c2.283-2.859,4.931-4.939,7.784-6.301
				c0.028-0.254,0.028-0.566,0.028-0.816c0.16-3.178,0.188-3.941-2.008-5.943c-1.252-1.143-2.502-1.877-3.812-2.641
				c-2.387-1.402-5.094-2.996-7.102-7.016c-1.383-2.77-2.736-5.979-1.367-9.035c1.033-2.312,3.289-3.659,5.646-4.568
				c0.945-0.365,1.877-0.663,2.779-0.909c3.797-1.034,6.125-2.634,8.396-4.184c2.211-1.507,4.481-3.063,7.74-3.885
				c2.168-0.539,3.318-1.085,4.133-1.479c0.378-0.181,0.758-0.246,1.106-0.384c-0.349-11.795-2.765-19.121-4.337-22.433
				c-0.627-1.374-0.988-2.91-1.251-4.475c-0.961-5.449,0-11.547,0.581-15.221l6.055,0.626l-0.059,0.356
				c-0.598,3.572-1.484,9.728-0.319,14.238c0.173,0.642,0.231,1.354,0.494,1.906c2.997,6.403,4.655,15.279,4.918,25.124
				c3.667,1.52,8.717,6.468,12.251,10.717c1.631,1.965,2.941,3.776,3.596,4.955c0,0.007,0,0.013,0,0.028
				c0.133-0.05,0.247-0.108,0.379-0.153c1.236-0.522,3.084-1.244,5.602-1.097c5.167,0.436,7.043,1.17,10.536,5.521
				c0.874,1.121,1.659,2.299,2.4,3.436c1.442,2.211,2.388,3.586,3.624,4.09c0,0,0,0,0-0.01c0.29-1.01,0.799-2.699,2.459-3.564
				c0.742-0.393,1.994-0.742,3.652-0.182c2.154,0.719,3.436,2.117,4.381,3.135c1.091,1.18,1.178,1.174,1.644,1.115
				c0.698-0.074,1.499-0.219,2.356-0.379c3.639-0.656,9.168-1.666,14.232,1.578l1.717,1.092c2.125,1.316,3.886,2.48,5.035,3.914
				c1.674-0.996,2.415-4.309,3.085-10.041c0.174-1.402,0.319-2.742,0.522-3.906c0.701-3.857,2.402-6.891,4.047-9.531
				c0.32-0.524,0.64-1.157,0.961-1.637c0.843-1.348,1.658-2.561,2.125-3.697c1.018-2.575-0.67-7.305-2.62-12.776
				c-0.438-1.229-0.815-2.183-1.149-2.991c-1.85-4.569-2.198-7.173,2.766-11.378c1.177-0.99,1.294-2.066,0.043-5.269
				c-0.494-1.229-1.149-2.714-2.098-4.715c-0.958-2.044-2.051-4.365-3.142-7.014c-1.325-3.113-2.882-5.064-4.54-5.631
				c-2.008-0.691-4.365,0.611-6.082,1.563c-3.347,1.871-9.227,1.303-16.066,0.43c-1.164-0.152-2.182-0.283-2.981-0.356l-1.674-0.109
				c-3.493-0.188-4.365-1.048-6.171-4.373l2.649-1.455c-10.259,2.918-8.062-5.856-11.7-6.592c-3.695-0.72-7.334,0.735-12.428,4.388
				c-5.121,3.659-6.576-1.456-13.896,2.932c-7.35,4.388-13.896,7.306-16.094,5.115c-2.197-2.189-3.667-8.781-8.773-8.047
				c-5.124,0.735-11.701,8.047-16.096,3.659c-4.394-4.394,2.925-3.659,0.743-5.856c-2.212-2.19-9.502,3.667-10.23-2.19l-1.601,2.576
				c-5.18-3.23-11.67-3.921-11.846-3.937c-0.407,3.856-0.785,7.924,1.004,10.143c2.91,3.652,0,1.463-2.938,2.925
				c-2.926,1.455-1.441-2.197-6.564-2.925c-1.832-0.263-3.812-0.051-5.615,0.422c2.69,4.991,1.279,8.979,0.058,12.172
				c-0.611,1.616-1.179,3.144-1.281,4.78c-0.059,0.778-0.393,1.383-0.554,2.096C3.848-17.18-1.448-13.237-6.366-13.237z"/>
			<path fill="#E9572E" d="M10.862,56.443c-0.655-0.668-1.034-0.801-4.016,0.836c-1.835,0.977-3.901,2.018-6.17,1.869l-1.354-0.115
				c-2.4-0.197-4.583-0.443-7.566-2.35c-2.982,3.768-7.508,7.086-11.074,9.689c-0.785,0.562-1.485,1.078-2.095,1.523
				c0.35,0.398,0.801,0.871,1.149,1.229c1.702,1.773,3.769,4.031,4.337,7.08c1.207,0.516,2.109,0.988,2.72,1.344
				c0.845,0.504,0.961,0.584,2.969,0.418c0.553-0.047,0.611-0.047,1.223-1.428c0.655-1.449,2.097-4.824,6.476-4.016
				c3.245,0.588,4.555,3.07,5.282,5.041c0.335-1.992,1.207-4.352,4.045-4.352c1.892,0,3.114,1.105,3.958,2.279
				c0.611-1.799,2.008-2.438,3.289-2.629c1.6-0.217,2.939,0.293,3.914,0.656c0.349,0.123,0.858,0.326,1.047,0.326
				c-0.014-0.006,0.364-0.188,1.034-1.156c-0.132-0.596-2.255-1.754-3.406-2.377c-1.95-1.072-3.797-2.076-4.931-3.59
				c-1.879-2.486-1.078-5.135-0.556-6.873C11.75,57.84,11.793,57.359,10.862,56.443z"/>
			<path fill="#E9572E" d="M-17.542,14.339c0.697,0.683,1.396,1.352,2.095,1.986c0.015-0.082,0.015-0.189,0.029-0.264
				c0.087-0.647,0.146-1.206,0.203-1.796c0.088-0.642,0.117-1.323,0.117-1.95c-0.873,0.64-1.703,1.309-2.372,1.95
				C-17.483,14.294-17.528,14.315-17.542,14.339z"/>
			<path fill="#E9572E" d="M65.3,42.502c1.544,0,2.983-1.943,4.409-3.826c1.746-2.307,3.668-4.947,6.884-4.57
				c1.891,0.205,3.012,1.348,3.797,2.643c13.854-1.957,18.466-5.23,19.763-7.705c0.247-0.51,0.902-2.039-0.423-4.896
				c-0.538,0.115-1.091,0.312-1.644,0.553c-1.603,0.662-5.385,2.24-8.034-2.576c-1.075-2-3.726-5.144-6.431-7.857
				c-2.648-2.708-5.342-4.984-6.506-5.26c-1.091-0.212-1.105-0.219-2.139,0.269c-1.004,0.481-2.502,1.208-5.281,1.891
				c-2.199,0.562-3.799,1.639-5.777,3.012c-0.059,0.03-0.102,0.059-0.145,0.089c-2.533,1.725-5.399,3.653-10.101,4.934
				c-3.914,1.068-4.438,2.008-4.481,2.109c-0.115,0.262-0.088,1.105,1.281,3.848c1.192,2.416,2.589,3.244,4.744,4.504
				c1.439,0.854,3.084,1.811,4.831,3.383c3.841,3.531,4.103,6.432,3.985,9.629C64.456,42.635,64.879,42.502,65.3,42.502z"/>
			<path fill="#E9572E" d="M29.227,66.33c0.976-0.102,2.095-0.217,3.479-0.406c6.518-0.924,8.891,1.316,12.557,5.355
				c2.896,3.23,9.211,5.318,15.426,7.172c4.133,1.238,9.356-1.236,14.404-3.623c2.329-1.09,4.571-2.152,6.753-2.916
				c3.216-1.121,3.216-1.682,3.173-4.047c0-1.143-0.029-2.566,0.393-4.102c0.598-2.205,2.01-3.93,3.362-5.598
				c1.761-2.137,3.287-3.994,3.114-6.613c-0.074-1.434-0.35-2.449-0.772-2.793c-0.945-0.787-4.569-0.385-6.097-0.219
				c-6.314,0.734-8.193-4.494-9.08-7c-0.086-0.225-0.189-0.494-0.277-0.748c-0.306,0.451-0.742,1.055-1.091,1.521
				c-2.008,2.641-4.714,6.248-9.27,6.248c-5.021,0-8.702,3.633-10.435,5.801c-0.377,0.457,0.204,2.219,0.584,3.383
				c0.785,2.328,2.356,7.188-2.518,9.217c-4.847,2.002-7.232-1.775-8.135-3.215c-0.233-0.371-0.582-0.93-0.756-1.068
				c-2.766,0.129-20.111-0.168-27.27-0.488c-0.117,0.414-0.219,0.83-0.204,0.996c0.319,0.357,1.919,1.23,2.969,1.805
				c1.366,0.748,2.823,1.543,4.044,2.539C25.501,66.883,27.262,66.527,29.227,66.33z"/>
			<path fill="#E9572E" d="M89.674,89.498c-1.688-2.213-3.113-4.672-4.365-7.102c-0.786-1.572-1.66-2.92-2.504-4.316
				c-1.672,0.656-3.361,1.406-5.121,2.229c-4.554,2.16-9.604,4.539-14.639,4.539c-1.369,0-2.736-0.182-4.074-0.59
				c-0.029,0-0.044-0.006-0.059-0.014c0.262,1.6,0.29,3.543-0.582,5.516c-0.117,0.26-0.234,0.516-0.379,0.779
				c7.814,3.564,22.336,7.676,27.3,4.24c0.843-0.582,1.892-1.717,1.526-4.947l0.597-0.072L89.674,89.498z"/>
			<path fill="#E9572E" d="M140.227,77.377c0.523-2.309,3.521-11.293,8.25-17.768v-9.656c-1.426,0.895-3.157,1.25-6.156,0.766
				c-0.988-0.17-1.934-0.402-2.879-0.621c-3.756-0.902-4.557-0.844-5.529,0.51c-3.521,4.854-8.906,8.695-14.407,10.268
				c-1.571,0.451-2.94,1.17-4.396,1.934c-2.152,1.143-4.568,2.41-7.508,2.41c-0.756,0-1.558-0.088-2.401-0.277
				c-3.55-0.822-7.843-2.459-10.87-4.031c-0.291,0.373-0.581,0.771-0.844,1.1c-1.02,1.229-1.979,2.393-2.24,3.332
				c-0.176,0.721-0.176,1.529-0.146,2.459c0.015,2.625-0.334,5.289-2.953,7.465c0.857,1.47,1.818,2.896,2.575,4.381
				c3.142,6.205,5.384,10.012,10.769,10.012c8.482,0,14.623-0.438,17.025-2.539c0.668-0.59,1.106-1.137,1.455-1.572
				c1.863-2.357,3.754-3.361,7.902-1.52c0.059-0.068,0.102-0.139,0.13-0.205c0.785-1.158,2.239-3.305,5.298-3.305
				C135.613,80.518,139.586,80.111,140.227,77.377z"/>
			<path fill="#E9572E" d="M222.328,49.604c-1.66-1.514-3.188-1.506-5.925-1.338c-1.498,0.086-3.185,0.189-4.976-0.117
				c-1.382-0.225-2.766-0.639-4.177-1.078c-2.75-0.844-5.181-1.504-8.004-0.748c4.482,1.164,9.808,3.898,13.185,10.645
				c0.99,1.973,2.415,3.615,3.755,5.203c2.852,3.316,6.083,7.07,4.538,13.336l-0.217,0.844c-0.917,3.625-2.066,8.141-1.194,9.502
				c0.073,0.125,0.395,0.174,0.568,0.264c0.976-2.365,2.795-4.57,4.627-6.709c0.902-1.047,1.791-2.082,2.505-3.086
				c0.958-1.402,2.152-2.475,3.33-3.514c2.227-1.973,3.959-3.529,4.133-7.32c0.133-2.408-1.105-3.199-4.393-4.686
				c-1.995-0.895-4.062-1.818-5.341-3.717c-1.514-2.279-1.368-4.17-1.31-5.297C223.52,50.928,223.52,50.703,222.328,49.604z"/>
			<path fill="#E9572E" d="M145.174,38.98l-1.804-1.135c-3.058-1.963-6.665-1.303-9.866-0.719c-1.02,0.188-1.979,0.361-2.823,0.441
				c-3.552,0.371-5.471-1.68-6.722-3.033c-0.234-0.262-0.467-0.494-0.643-0.691c-1.279,2.816-3.258,3.814-5.922,3.326
				c-4.16-0.744-6.285-4.016-8.164-6.905c-0.624-0.982-1.279-1.987-2.051-2.946c-0.247-0.314-0.423-0.475-0.627-0.729
				c0.117,2.162-0.377,3.945-1.031,5.225c-3.361,6.512-13.316,9.242-22.09,10.639c0.262,0.07,0.538,0.102,0.902,0.07
				c4.09-0.457,7.988-0.676,10.694,1.604c1.776,1.488,2.736,3.803,2.911,7.07c0.088,1.666-0.203,3.092-0.656,4.424
				c2.316,1.17,6.041,2.656,9.285,3.412c1.789,0.414,3.188-0.256,5.719-1.578c1.571-0.836,3.348-1.785,5.559-2.416
				c4.162-1.18,8.439-4.25,11.176-7.996c3.551-4.838,8.322-3.689,11.844-2.838c0.801,0.189,1.631,0.395,2.446,0.531
				c1.993,0.326,1.993,0.348,3.521-1.469l1.411-1.602c0.393-0.451,0.48-0.678,0.48-0.678
				C148.448,41.316,146.57,39.848,145.174,38.98z"/>
			<path fill="#E9572E" d="M46.281-80.982c0-4.379-5.851-2.19-4.381-8.767c1.471-6.578,5.122-13.17,1.471-13.905
				c-3.667-0.734-3.667,5.858-7.334,8.047c-3.653,2.19-10.215,1.47-12.398,6.585c-2.212,5.115-8.062,9.509-6.607,15.359
				c1.281,5.187,3.173,8.644,4.105,12.427c0.117,0.487,0.203,0.968,0.29,1.463c0.176,0.982,0.117,2.24,0.015,3.565l0.291-2.926
				c0.32,0.037,7.67,0.822,13.955,4.533c2.213-1.411,6.941-0.327,6.941-5.173c0-0.487-0.015-0.976-0.059-1.463
				c-0.349-6.075-2.808-11.925-2.14-14.624C41.159-78.786,46.281-76.587,46.281-80.982z"/>
			<path fill="#E9572E" d="M192.248-123.553c0.858-0.458,1.689-0.895,2.096-1.434c-0.246-0.181-0.553-0.385-0.799-0.56
				c-0.846-0.582-1.894-1.339-3.027-2.255c-0.494,1.258-0.467,1.804-2.008,1.121c-3.275-1.463-8.02-2.198-13.171-1.827
				l-19.384,10.965c-0.711,15.359,5.881,3.659,6.592,13.155c0.148,1.826,0.438,3.528,0.76,5.166l-0.176-3.063
				c1.891-0.11,2.24-0.538,3.027-1.499c1.455-1.79,3.289-3.442,7.537-3.259c4.656,0.276,7.727,3.07,10.419,5.53
				c1.601,1.469,3.114,2.858,4.7,3.426c1.44,0.502,1.789,0.292,3.477-1.411c0.642-0.648,1.457-1.361,2.359-2.008
				c0-0.509-0.03-0.881-0.03-1.412c0-2.866-0.989-3.79-2.62-5.318c-1.514-1.397-3.36-3.136-4.219-6.322
				C186.239-120.352,190.138-122.432,192.248-123.553z"/>
			<path fill="#E9572E" d="M189.934-91.794c-0.945,0-1.977-0.175-3.156-0.589c-2.736-0.976-4.788-2.853-6.766-4.656
				c-2.227-2.037-4.164-3.798-6.666-3.944c-1.572-0.095-1.717,0.065-2.475,1.004c-1.074,1.338-2.764,3.303-6.984,3.675
				c1.135,5.376,1.98,9.195-2.051,10.199c-5.881,1.471-8.791-10.958-13.896-10.223c-5.122,0.721-10.973,5.115-11.715,13.883
				c-0.32,3.871-0.189,8.418,0.088,12.704l0.422-4.111c0.931,0.131,2.226-1.025,3.375-1.898c1.703-1.296,3.639-2.765,5.995-2.765
				c2.823,0,4.163,1.753,4.905,2.707c0.16,0.204,0.393,0.51,0.494,0.575c0.8-0.124,1.266-0.902,1.557-1.375
				c1.137-1.907,3.23-5.472,8.76-4.825c0.875,0.103,1.776,0.153,2.723,0.204c5.195,0.284,12.18,0.75,23.66,9.575
				c0.334-0.931,0.829-1.848,1.762-2.524c1.628-1.171,3.404-0.858,4.481-0.669c0.757,0.138,1.075,0.181,1.251,0.072
				c0.494-0.319,1.223-1.251,1.891-2.082c0.248-0.327,0.597-0.712,0.902-1.083c-1.482-2.241-2.969-6.715-3.58-15.781
				C193.674-92.71,192.09-91.794,189.934-91.794z"/>
			<path fill="#E9572E" d="M-103.631-51.734c-1.455,5.857-10.942,2.932-13.881,7.319c-2.926,4.388,8.789,6.578,14.639,10.245
				c5.85,3.645-2.94,5.843-7.334,4.372c-4.366-1.455-7.305,0.743-10.23,4.395c-2.924,3.646-10.973,2.924-10.973,5.85
				c0,2.917,13.171,2.189,16.096,2.917c2.925,0.735,3.667-3.652,6.592-4.388c2.909-0.733,5.85,2.94,10.942,2.94
				c5.122,0,15.396,1.447,21.231,4.373c5.834,2.924,18.262,2.924,19.005-1.455c0.74-4.388-3.653-4.388-4.381-8.041
				c-0.757-3.659,13.155-5.849,11.7-17.556c-0.743-5.85-8.062-2.19-10.26-7.319l-0.713-19.732c-1.688-2.554-2.837-5.886-3.755-9.518
				c-1.425-5.711-2.211-12.164-3.564-17.542c-2.198-8.782-10.958-1.456-13.155-8.047c-2.196-6.577,26.323-7.312,25.582-19.012
				c-0.364-5.878-16.808-1.462-19.731-7.319c-2.925-5.842,13.635-5.871,13.14-10.229c-0.728-6.586-16.064-5.115-21.187-1.471
				c-5.123,3.652-11.715,3.652-10.245,10.251c1.455,6.578-1.47,5.123-6.576,10.958c-5.124,5.856,2.183,7.319,0.728,12.435
				c-1.455,5.122,5.849,7.312,4.379,10.244c-1.44,2.925-5.106,8.768-0.728,10.23c4.075,1.354,4.991,3.943,6.271,9.502
				c0.088,0.473,0.204,0.954,0.32,1.471c1.485,6.584,3.652,10.964-1.469,14.624c-5.123,3.659-10.229-8.04-16.08-4.388
				C-113.117-61.957-102.145-57.577-103.631-51.734z"/>
			<path fill="#E9572E" d="M-124.002-90.485c0,1.973,2.139,3.253,5.34,4.97c1.79,0.953,3.479,1.855,4.773,3.128l-0.48,0.467
				c0.523-0.255,1.049-0.547,1.571-0.779c3.886-1.789,6.971-3.201,6.971-7.785c0-2.837-0.466-8.061-3.392-11.466
				c-1.425,1.666-3.622,3.129-6.576,4.839C-118.647-95.432-124.002-92.31-124.002-90.485z"/>
			<path fill="#E9572E" d="M-155.535-51.755c4.816,0,6.446-1.833,7.887-3.441c1.02-1.143,2.051-2.321,4.001-2.321
				c0.874,0,1.863,0.233,3.027,0.699c1.28,0.517,2.474,1.025,3.608,1.505c3.027,1.304,5.414,2.336,7.247,2.336
				c1.207,0,2.096-0.436,2.896-1.418c2.837-3.559,5.778-7.226,7.961-11.568c1.745-3.521,2.036-11.133,2.094-13.505l-1.381,1.368
				c-0.626-0.633-1.994-1.368-3.319-2.066c-3.594-1.92-8.541-4.555-8.541-10.317c0-5.304,5.967-8.782,11.206-11.858
				c1.308-0.757,3.025-1.761,4.16-2.591c-0.669-0.123-1.339-0.291-2.125-0.291c-0.654,0-1.338,0.043-2.065,0.139
				c-0.845,0.101-1.833,0.188-2.881,0.29c-3.463,0.307-9.284,0.838-10.041,2.424c-0.059,0.115-0.233,0.465,0.276,1.229
				c1.426,2.131,1.731,4.518,0.8,6.242c-1.033,1.943-3.463,2.299-5.544,0.618c-2.924-2.335-5.238-3.521-6.896-3.521
				c-0.918,0-2.228,0.321-2.838,3.1c-0.742,3.304-2.998,4.773-4.656,5.843c-0.874,0.589-1.674,1.091-1.747,1.63
				c-0.058,0.458,0.32,1.186,1.105,2.109c1.077,1.252,2.183,2.284,3.187,3.194c1.82,1.666,3.246,2.983,3.043,4.584
				c-0.146,1.229-1.223,2.335-3.507,3.609c-2.097,1.164-4.206,1.965-6.069,2.677c-4.074,1.55-7.013,2.678-7.436,6.257
				c-0.072,0.547-0.16,1.105-0.232,1.674c-0.495,3.404-1.062,7.261,0.815,9.422C-160.353-52.396-158.416-51.755-155.535-51.755z"/>
			<path fill="#E9572E" d="M65.824,215.012c-1.266-0.793-2.662-1.148-4.336-1.148c-1.529,0-3.043,0.283-4.658,0.596
				c-1.644,0.307-3.33,0.627-5.049,0.627c-1.12,0-2.152-0.133-3.113-0.416c-1.427-0.422-2.445-1.557-3.363-2.568
				c-0.77-0.852-1.482-1.658-2.152-1.658c-0.248,0-0.51,0.109-0.829,0.334c-1.513,1.09-2.896,1.594-4.396,1.594
				c-1.396,0-2.678-0.445-4.03-0.918c-0.479-0.172-0.974-0.355-1.526-0.516c-0.148-0.049-0.293-0.064-0.438-0.064
				c-0.815,0-1.718,0.691-2.125,1.643c-0.173,0.387-0.494,1.375,0.234,2.154c5.034,5.436,11.495,8.389,18.364,11.525
				c2.486,1.148,5.094,2.328,7.564,3.631l0.205,0.115c1.951,1.035,4.613,2.453,6.434,2.453c0.553,0,0.988-0.139,1.279-0.414
				c1.294-1.215,0.843-3.129,0.336-5.342c-0.482-2.029-0.977-4.148-0.117-6.018l0.275-0.617c0.466-1.062,1.105-2.518,2.096-3.602
				c0.057-0.064,0.088-0.146,0.072-0.291C66.492,215.66,65.984,215.113,65.824,215.012z"/>
			<path fill="#E9572E" d="M2.175,127.848c-0.044,0-0.074-0.006-0.102-0.006c-0.19,0-0.466,0.102-1.105,0.967
				c-0.234,0.305-0.438,0.66-0.656,0.996c-0.582,0.932-1.091,1.73-1.79,1.986c-4.947,1.848-8.92,3.668-7.741,7.318
				c0.553,1.631,0.743,3.35,0.902,5.008c0.291,2.684,0.538,5.223,2.343,7.08c1.323,1.375,3.434,0.77,4.292-1.107
				c0.32-0.654,0-1.645-0.26-2.445c-0.292-0.914-0.642-1.955,0.202-2.508c6.476-4.191,5.21-10.617,3.988-16.83L2.175,127.848z"/>
			<path fill="#E9572E" d="M-3.398,156.508c-1.659,0-3.813,1.018-5.735,1.906c-0.349,0.168-0.669,0.326-1.004,0.48l0.059,0.297
				c-0.771,0.328-1.643,0.488-2.822,0.488c-0.655,0-1.295-0.043-1.949-0.096c-0.568-0.035-1.121-0.078-1.616-0.078
				c-0.901,0-1.455,0.131-1.718,0.43c-0.261,0.254-0.349,0.719-0.29,1.381c0.131,1.578,0.263,3.15,0.407,4.723
				c0.61,6.904,1.252,14.043,0.437,21.26c1.411,0.582,3.026,0.879,4.86,0.879c3.798,0,7.684-1.258,10.419-2.393
				c0.058-3.5,0.654-6.984,1.221-10.367c0.933-5.486,1.819-10.666,0.642-15.949C-1.07,156.844-2.35,156.508-3.398,156.508z"/>
			<path fill="#E9572E" d="M-66.232,164.533c-0.072-0.131-0.741-0.59-1.09-0.838l-0.451-0.318c-0.642-0.451-1.311-0.678-2.039-0.678
				c-1.483,0-2.692,0.938-3.041,1.58c-0.858,1.477-0.422,2.836,0.072,3.725c1.165,2.008,3.726,3.441,5.909,3.092
				c0.334-0.053,0.581-0.189,0.757-0.437c0.785-1.099,0.291-3.862-0.029-5.698L-66.232,164.533z"/>
			<path fill="#E9572E" d="M-82.646,163.637v-0.051c-3.026,0.393-5.587,1.885-7.393,3.268c-0.232,0.174-0.319,0.393-0.319,0.699
				c0.028,0.924,1.076,2.379,2.327,3.244c1.208,0.836,5.385,3.295,8.28,0.262c1.658-1.732,2.313-3.316,2.096-5.152
				C-77.918,163.527-79.475,163.377-82.646,163.637z"/>
			<path fill="#E9572E" d="M207.281,253.676c-0.874,0.125-1.807,0.248-2.709,0.227c-1.047-0.053-2.008-0.643-3.024-1.26
				c-1.093-0.684-2.242-1.418-3.435-1.252l-0.088-0.756l-2.924,0.734v0.758c-0.815,0-1.646,0.027-2.459,0.064
				c-2.066,0.096-4.25,0.176-6.434-0.291c-0.51-0.107-1.076-0.246-1.659-0.393c-2.632-0.648-6.256-1.527-7.827-0.4
				c-0.525,0.379-0.787,0.967-0.844,1.818c-0.176,2.227,1.482,2.605,5.004,2.895c1.15,0.096,2.329,0.191,3.289,0.467
				c1.076,0.32,2.182,0.707,3.318,1.1c4.408,1.551,8.992,3.145,13.212,0.828c1.804-1.004,3.58-0.303,5.122,0.293
				c1.078,0.414,2.097,0.801,3.042,0.676c0.917-0.123,1.702-0.617,2.228-1.398c0.521-0.754,0.697-1.672,0.494-2.502
				C211.062,253.248,209.842,253.307,207.281,253.676z"/>
			<path fill="#E9572E" d="M-90.737-147.236c-0.553-0.088-1.048-0.131-1.557-0.131c-6.257,0-9.793,6.65-12.617,12.442
				c1.428-0.852,3.043-1.63,4.701-2.423C-94.973-139.851-90.01-142.216-90.737-147.236z"/>
			<path fill="#E9572E" d="M-59.364-142.914c0.873,0.232,1.776,0.465,2.561,0.792c0.481,0.211,0.875-0.065,1.093-0.292
				c0.305-0.349,0.393-0.728,0.362-0.836c-0.741-3.093-1.79-5.952-4.249-5.952c-0.145,0-0.276,0.007-0.421,0.022
				c-1.646,0.189-3.085,1.731-3.361,2.99C-63.788-144.26-62.392-143.685-59.364-142.914z"/>
			<path fill="#E9572E" d="M54.664-73.764c-0.599,0-1.267,0.124-1.951,0.363c-2.444,0.829-3.361,2.976-2.852,6.541
				c0.334,2.379,1.367,5.457,4.423,6.643c1.601,0.619,3.2-0.108,4.003-1.768c1.192-2.489,1.354-7.16-0.364-9.866
				C57.136-73.125,56.029-73.764,54.664-73.764z"/>
			<path fill="#E9572E" d="M105.797-89.874c-1.645,4.097-3.346,8.346-1.542,11.445c0.146,0.269,0.29,0.269,0.38,0.269
				c0.887,0,2.617-1.848,3.287-3.535c1.455-3.566,1.251-7.873-0.611-12.166c-0.059-0.007-0.131-0.007-0.232-0.007
				c-0.307,0-0.67,0.058-0.859,0.146c-0.219,0.087-0.246,0.153-0.246,0.153c-0.031,0.102,0.129,0.443,0.203,0.625
				c0.204,0.443,0.436,0.996,0.219,1.564L105.797-89.874z"/>
			<path fill="#E9572E" d="M117.904-94.639c0.087,0.662,0.668,0.8,1.135,0.8c0.844,0,1.717-0.473,1.979-1.077
				c0.173-0.443,0.378-0.916,0.581-1.389c1.398-3.057,2.184-5.276,0.801-7.008l-0.014,0.015
				C119.971-100.736,117.497-98.088,117.904-94.639z"/>
			<path fill="#E9572E" d="M260.539-24.574c0.176,0.051-0.479,0.648-0.961,1.092c0,0.016-0.028,0.021-0.028,0.021
				c-2.298,2.132-6.126,5.64-13.14,5.108c-1.471,0.175-5.545,4.555-7.494,6.664c-0.902,0.969-1.776,1.899-2.533,2.686
				c-1.221,1.222-1.295,2.4-1.354,3.776c-0.059,1.243-0.219,4.547-3.592,5.122c-2.65,0.415-4.367-1.434-5.619-2.802
				c-0.828-0.916-1.688-1.848-2.502-1.928c-0.248,0.029-0.379,0.072-1.338,1.31c-1.035,1.339-2.445,3.173-5.007,3.747
				c-3.753,0.858-5.851-1.877-6.984-3.333c-0.29-0.385-0.729-0.959-0.946-1.091c-0.685-0.051-2.517,0.24-4.379,0.51
				c-2.242,0.326-4.803,0.698-7.364,0.698c-3.246,0-6.462-0.968-9.517-1.899c-1.891-0.574-3.754-1.157-5.559-1.434
				c-3.375-0.494-9.662,0.91-14.115,2.947c1.921,5.588,3.289,10.478,1.644,14.565c-0.362,0.954-1.062,2.032-1.718,3.079
				c-0.334,0.553-0.522,1.041-0.902,1.621c-1.658,2.598-3.534,5.538-4.146,8.965c-0.188,1.062-0.321,2.277-0.481,3.559
				c-0.654,5.572-1.773,14.406-8.656,15.562c-0.32,0.574-0.583,1.164-1.093,1.746l-0.071,0.08h1.848v8.092
				c1.062-0.568,2.138-1.014,3.273-1.143c7.145-0.846,11.38,0.152,14.436,0.887c2.502,0.584,4,0.93,6.314,0.305
				c2.619-0.729,3.639-1.498,4.627-2.238c1.631-1.209,3.145-2.092,6.215-1.879c-0.627-1.068-0.977-2.221-0.684-3.514
				c0.609-2.861,3.521-3.945,7.508-5.449c5.18-1.928,9.401-0.627,12.82,0.422c1.15,0.35,2.256,0.705,3.391,0.893
				c1.136,0.197,2.328,0.117,3.609,0.045c2.982-0.184,6.723-0.4,10.346,2.896c3.129,2.837,3.244,5.057,3.113,7.092
				c-0.059,0.787-0.073,0.955,0.307,1.508c0.29,0.451,1.717,1.09,2.764,1.562c3.1,1.4,8.295,3.742,7.977,10.508
				c-0.322,6.322-3.697,9.342-6.172,11.547c-0.961,0.881-1.832,1.629-2.385,2.459c-0.846,1.178-1.863,2.357-2.883,3.557
				c-0.932,1.094-1.979,2.33-2.764,3.473c0.522,0,1.047,0.014,1.572,0.014c3.463-0.043,6.561,0.072,9.137,1.129
				c0.699-4.773,0.785-4.664,3.754-8.789c3.639-5.131,2.184-13.906,8.76-14.625c6.579-0.742,5.851,10.223,13.912,9.494
				c0.547-0.05,1.053-0.476,1.521-1.207v-93.095c-0.873-1.134-1.82-2.356-2.729-3.223C261.629-24.107,261.02-24.574,260.539-24.574z
				"/>
			<path fill="#E9572E" d="M203.694-247c-2.037,7.143-3.069,13.374-3.808,12.854c0.263,0.583-1.322,19.564-1.047,20.067
				c0.364,0.64,0.553,1.229,0.814,1.847c1.646,3.9,1.572,7.226,1.412,9.939c-0.102,1.819-0.203,3.398,0.234,4.933
				c0.393,0.306,2.429,0.51,3.534,0.626c2.823,0.284,6.024,0.611,7.887,3.121c1.136,1.484,1.485,3.397,1.062,5.682
				c-0.071,0.364-6.882,37.004-15.205,45.917c1.892,1.703,2.938,3.521,1.919,5.276c-0.451,0.813-1.396,1.614-2.852,2.37
				c-1.294,0.671-2.328,1.325-3.188,1.951c0.933,0.757,1.82,1.396,2.518,1.877c2.156,1.477,5.734,3.942,2.475,8.825
				c-1.221,1.849-2.969,2.771-4.35,3.515c-0.54,0.284-1.442,0.771-1.588,1.011c-0.027,0.058-0.059,0.393,0.117,1.062
				c0.408,1.499,1.279,2.321,2.502,3.456c1.922,1.79,4.541,4.249,4.541,9.749c0,11.096,1.368,19.398,2.678,21.398
				c1.354-0.458,2.837-0.691,4.656-0.182c3.783,1.084,5.078,3.849,5.646,5.981c2.035-2.06,5.776-5.785,9.588-2.925
				c3.639,2.721,6.302,8.498,8.164,17.411c0.102,0.444,0.219,0.793,0.321,1.252c0.727,3.819,5.733,6.788,10.157,9.415
				c4.801,2.845,9.371,5.543,9.631,9.982c0.336,5.944-4.189,6.337-5.906,6.481c-1.848,0.161-2.852,0.249-3.855,2.576
				c-1.646,3.842-1.093,6.171,0.727,8.047c0.087,0.103,0.247,0.19,0.35,0.292c0.16-0.088,0.305-0.212,0.466-0.292
				c1.208-0.596,2.431-0.996,3.623-0.916c4.365,0.363,6.462-1.602,8.513-3.493c1.44-1.346,2.954-2.735,5.107-2.735
				c1.694,0,3.155,0.604,4.461,1.527V-247H203.694z"/>
			<path fill="#E9572E" d="M11.184-117.543c2.938,5.857,3.651,9.51,10.243,10.237c6.577,0.728,13.184-5.115,17.521-9.502
				c4.424-4.395,12.455-10.237,14.667-4.395l-0.668-2.954c2.356-0.531,3.229-3.5,4.161-7.654c0.553-2.335,1.02-4.351,2.109-5.828
				c0.451-0.742,0.888-3.929,1.193-6.039c0.83-5.857,1.658-11.91,5.398-14.413c0.016-0.175-0.465-1.361-0.843-2.227
				c-1.165-2.837-2.94-7.137-1.034-12.376c0.814-2.263,0.976-5.18,1.105-8.258c0.336-6.658,0.744-14.952,8.979-19.66
				c5.632-3.208,6.403-6.344,7.306-9.975c0.145-0.524,0.318-1.099,0.494-1.645c0.436-1.666,1.02-3.39,2.211-5.057
				c1.224-1.688,1.746-3.805,2.357-6.264c0.977-3.849,2.066-8.214,6.172-11.801l2.035-1.761c4.26-3.636,6.355-5.427,7.044-9.886
				H87.971c-3.231,4.268-6.354,8.495-8.773,11.727c-6.577,8.767-2.184,13.89-10.944,20.474c-1.105,0.794-2.095,1.659-3.024,2.568
				c-6.854,6.541-10.857,15.25-16.008,17.178c-5.85,2.19-4.38,5.85-8.062,8.775c-3.639,2.924-6.549-0.743-10.957,2.197
				c-4.38,2.917-9.504,1.456-11.686,5.115c-2.212,3.652-5.122,4.38-4.396,10.229c0.714,5.857-0.727,9.517-2.938,13.169
				c-2.184,3.661,0.741,10.973,0,19.012C10.455-128.508,8.272-123.393,11.184-117.543z"/>
			<path fill="#E9572E" d="M96.542-230.791c-2.679,2.343-3.42,5.289-4.278,8.716c-0.698,2.794-1.425,5.698-3.303,8.317
				c-0.334,0.458-0.537,0.99-0.757,1.527c-0.392,0.946-0.713,1.957-1.004,3.114c-1.019,4.133-2.298,9.277-10.157,13.766
				c-5.355,3.063-5.646,8.455-5.937,14.697c-0.175,3.398-0.349,6.912-1.485,10.033c-1.105,3.027-0.043,5.545,0.961,7.989
				c1.047,2.539,2.809,6.78-1.396,9.589c-1.485,0.989-2.329,6.977-2.779,10.201c-0.598,4.366-1.033,7.123-2.343,8.841
				c-0.336,0.436-0.757,2.306-1.034,3.543c-0.974,4.3-2.487,10.797-8.745,12.201c0.437,3.506-0.96,5.253,0.785,8.76
				c2.198,4.381,3.669,6.577,3.669,14.625c0,8.04,3.637,10.965,3.637,16.086c0,5.123-0.727,16.094,6.592,16.829
				c7.29,0.721,6.563-8.796,13.141-8.796c6.606,0,11.729-5.107,12.441-10.965c0.727-5.843,3.652-16.079,5.851-23.398
				c2.196-7.306,10.985-2.918,13.169-13.89c2.184-10.965,4.38-20.474-4.396-24.127c-8.773-3.66-7.306-14.632-4.394-21.208
				c2.91-6.578,8.789-15.36,12.455-19.013c3.639-3.667,13.883-9.51,17.536-15.359c2.515-4.046,0.158-8.804,0.158-13.519
				c0-2.109,0.451-4.198,2.038-6.221c5.094-6.592,13.883-10.972,19.732-5.857c4.742,4.155,6.635,8.309,4.424,12.078
				c-0.51,0.866-1.252,1.731-2.212,2.554c-5.152,4.379-10.245,16.814-15.368,22.657c-5.121,5.857-8.031,9.517-6.576,18.284
				c1.455,8.781,1.455,13.896-0.742,19.747c-2.168,5.857,6.593,6.584,9.518,9.51c0.828,0.843,1.322,1.811,1.773,2.743
				c1.094,2.298,2.008,4.356,7.729,3.841c4.248-0.386,9.268-1.986,14.158-3.841c4.41-1.667,8.701-3.545,12.15-4.934
				c7.318-2.925,10.244-5.123,14.639-2.197l-2.14-2.147c5.195-5.173,11.524-30.55,13.782-42.992
				c0.131-0.735,0.028-1.004,0.028-1.004c-0.393-0.364-2.503-0.575-3.639-0.691c-2.997-0.305-7.537-0.764-8.745-4.991
				c-0.727-2.525-0.596-4.774-0.479-6.957c0.173-2.837,0.318-5.296-1.442-8.483c-0.188-0.327-0.276-0.764-0.421-1.099
				c-1.34-2.735,2.342-26.112,1.514-29.474c-11.76-7.879-28.711,5.144-41.59-1.019c1.223,5.698,1.98,11.372,1.572,16.465
				l-6.055-0.487c0.467-5.69-0.771-12.457-2.474-19.129c-0.861-0.386-1.736-0.747-2.603-1.125h-35.75
				c-0.851,7.346-4.547,10.514-9.23,14.492L96.542-230.791z"/>
		</g>
	</g>
</switch>
</svg>