<?xml version="1.0" encoding="utf-8"?>
<!DOCTYPE svg PUBLIC "-//W3C//DTD SVG 1.1//EN" "http://www.w3.org/Graphics/SVG/1.1/DTD/svg11.dtd" >
<svg version="1.1" id="Layer_1" xmlns="http://www.w3.org/2000/svg" xmlns:xlink="http://www.w3.org/1999/xlink" x="0px" y="0px" viewBox="-247 -247 512 512" enable-background="new -247 -247 512 512" xml:space="preserve">
<switch>
	<g i:extraneous="self">
		<g>
			<path fill="#95C11F" d="M265,172.043v-15.857c-23.958-4.649-47.568-8.5-70.746-11.611c-8.685-8.034-22.758-19.013-22.122-20.996
				c-9.522-13.23-4.265-50.416-4.265-67.712c0,0,66.416,0,67.351-7.128c0-4.06-44.584-37.636-58.807-55.951
				c12.34-3.051,29.41,4.069,36.99-9.161c-5.698-12.212-58.823-77.889-56.939-88.059c9.491,0,22.525-3.798,31.068-1.763
				c2.697-10.322-25.358-28.199-33.901-49.564c-7.579-11.203-4.836-26.518-7.684-37.706c-18.036-1.023-3.692,27.529-13.199,35.665
				c-17.071,14.245-19.919,32.56-35.106,45.789c-3.781,14.246,20.491,4.293,26.187,12.423
				C111.502-80.251,54.925-9.487,62.549-11.281c14.223,1.018,28.462,4.068,41.75,3.044c0,0-64.548,53.925-56.004,65.12
				c21.833,8.145,47.447,5.086,69.264-1.017c4.761,8.136-2.411,51.069-2.411,58.197c-0.097,10.697-22.264,15.685-30.884,20.614
				c-18.884-0.881-37.352-1.331-55.354-1.412V-247H10.396v380.311c-29.454,0.275-57.567,1.513-84.126,3.408
				C-85.316,55.957-87.614-25.796-66.849-56.083c1.417,4.936-1.717,10.005-1.717,10.005l4.625,6.847c0,0,3.089-7.999,1.944-13.137
				c-1.16-5.131,2.682,6.847,2.29,14.841c-0.376,8.001,5.424,10.283,5.424,10.283c0.377-6.849,0-13.711,0-13.711
				s5.002,7.428,4.233,17.132c-0.376,4.526,5.395,8.559,5.395,8.559s1.929-6.857,0.377-14.842
				c-1.552-7.987,5.017,10.291,4.234,18.262l4.654,4.564l-0.391-15.979c3.465,8.564,1.145,16.551,10.41,25.675
				c0-13.192-10.592-36.689-19.028-50.34l10.02,9.16l10.938,4.671c0,0,1.537-5.139-6.946-17.696c0,0,8.859,3.413,10.788,19.399
				l8.091,2.863c0,0,0.784-4.001-4.987-15.421c0,0,5.41,5.716,10.382,17.123l5.032,0.58c-3.721-22.901-20.266-33.834-40.44-36.885
				c-4.264-4.565-10.833-11.632-10.833-11.632c2.712-0.919,9.628,6.849,9.628,6.849l8.859-8.565
				c-5.017-6.283-12.355-5.139-12.355-5.139s7.143-1.612,12.732,1.717c1.943,1.146,9.658-10.848,9.658-10.848
				c-9.658-9.688-13.319-8.986-41.073,13.847l-0.029-0.091c-23.78-50.887-30.77-20.417-38.814-28.85
				c0.958,1.52,1.692,7.829,10.11,9.385l10.789,4.571h-8.106l4.671,7.414c5.756,0,10.004,5.146,10.004,5.146h-7.699l10.547,9.153
				l-4.775-0.603c-21.049-7.813-31.657-0.829-39.688,5.967c-5.8-20.115-13.801-40.811-24.83-62.152
				c-0.12-0.053-0.166-0.038-0.256-0.098c0.271-0.045,0.557-0.121,0.858-0.062c6.585,1.492,12.763,12.491,12.763,12.491l8.633,1.499
				l-0.527-11.986l7.593,11.24l9.131,0.746l-2.049-13.493l9.644,12.747h8.588l-5.56-13.499l11.648,12.746l7.593-0.761l-3.028-5.982
				c0,0,5.545,8.981,20.747,0.754c-21.395,7.255-26.714-37.239-76.451-18.743l-6.282,0.791l13.861-12.023h-10.11
				c0,0,5.575-6.751,13.154-6.751l6.072-9.739h-10.623l14.178-6.005c10.98-2.019,12.021-10.205,13.259-12.292
				c-10.568,10.968-19.76-28.914-50.912,37.852l-0.061,0.121c-36.492-29.992-41.284-30.918-53.94-18.179
				c0,0,10.125,15.729,12.657,14.237c7.368-4.353,16.725-2.251,16.725-2.251s-9.628-1.499-16.228,6.749l11.678,11.248
				c0,0,9.056-10.187,12.656-8.995c0,0-8.664,9.273-14.224,15.271c-26.533,4.015-48.245,18.352-53.126,48.417l6.584-0.753
				c6.568-14.976,13.666-22.473,13.666-22.473c-7.563,14.991-6.6,20.22-6.6,20.22l10.652-3.743
				c2.517-20.982,14.163-25.472,14.163-25.472c-11.134,16.492-9.115,23.226-9.115,23.226l14.389-6.125l13.109-12.023
				c-11.044,17.924-24.967,48.788-24.967,66.108c12.189-11.994,9.13-22.481,13.681-33.736l-0.513,21.003l6.088-6.004
				c-1.025-10.471,7.593-34.458,5.575-23.979c-2.019,10.493,0.496,19.489,0.496,19.489s7.565-5.289,7.097-11.24
				c-1.039-12.732,5.575-22.488,5.575-22.488s-0.512,8.995,0,17.99c0,0,7.594-3.006,7.066-13.484
				c-0.527-10.503,4.55-26.225,3.059-19.482c-1.521,6.729,2.516,17.238,2.516,17.238l6.088-8.997c0,0-4.129-6.636-2.275-13.122
				c9.402,13.688,15.821,35.271,19.617,61.939c-2.335,1.002-4.836,1.289-7.715,0.317c3.3,1.786,5.952,2.448,8.106,2.562
				c7.101,52.844,4.512,126.027-6.049,197.324c-43.837,5.065-81.839,11.553-112.629,17.633v15.51
				C-144.201,155.335,48.945,131.112,265,172.043z M-108.298-62.645l-4.218,10.276h6.554l7.337-9.696l-1.583,10.275l6.961-0.579
				l5.786-8.552l-0.407,9.131l6.585-1.145c0,0,4.716-8.37,9.703-9.507c0.256-0.054,0.482,0.015,0.678,0.046
				c-0.075,0.036-0.12,0.028-0.195,0.082c-17.659,34.119-27.543,66.137-33.087,96.24c-0.316-28.303-2.999-58.001-10.863-89.159
				L-108.298-62.645z"/>
			<path fill="#95C11F" d="M246.759,218.711c1.522,0.256,16.497,3.111,18.007,3.368c0.082-0.063,0.154-0.128,0.234-0.191V206.46
				c-2.308-0.482-4.254-0.883-5.042-1.022C64.07,170.761-111.733,188.11-219.387,207.05c-2.334,0.413-19.564,4.1-27.613,5.778
				v15.108c13.239-2.509,40.503-7.714,42.59-8.064C-99.378,202.325,64.492,187.854,246.759,218.711z"/>
			<path fill="#95C11F" d="M-99.89-186.379c0.135-0.14,0.271-0.283,0.407-0.441C-99.629-186.75-99.761-186.598-99.89-186.379z"/>
			<path fill="#95C11F" d="M-172.982,265c10.786-1.352,20.834-2.609,21.844-2.729c84.361-10.02,195.27-15.602,317.796-2.275
				c1.546,0.163,27.591,4.354,32.018,5.005H265v-6.123c-29.383-4.452-77.351-11.754-79.629-12.034
				c-140.999-17.141-268.015-9.132-359.125,3.042c-2.562,0.34-45.684,7.06-48.186,7.405c-9.034,1.695-17.562,3.359-25.061,4.903V265
				H-172.982z"/>
			<path fill="#95C11F" d="M-104.034-107.152c0.096,0.111,0.191,0.211,0.287,0.312
				C-103.839-106.986-103.932-107.103-104.034-107.152z"/>
		</g>
	</g>
</switch>
</svg>