<?xml version="1.0" encoding="utf-8"?>
<!DOCTYPE svg PUBLIC "-//W3C//DTD SVG 1.1//EN" "http://www.w3.org/Graphics/SVG/1.1/DTD/svg11.dtd" >
<svg version="1.1" id="Layer_1" xmlns="http://www.w3.org/2000/svg" xmlns:xlink="http://www.w3.org/1999/xlink" x="0px" y="0px" viewBox="-247 -247 512 512" enable-background="new -247 -247 512 512" xml:space="preserve">
<switch>
	<g i:extraneous="self">
		<path fill="#B2B2B2" d="M76.26-120.661v-81.873h-91.298V13.083h-156.301v-76.649h-43.193v279.42h43.193h156.301H76.26h156.302
			v-336.515H76.26z M-137.84,215.308h-18.259v-21.812h18.259V215.308z M-129.745,177.456h-5.046h-5.076h-16.232v-28.351h16.232
			h5.076h5.046V177.456z M-129.745,139.013h-5.046h-5.076h-16.232v-28.352h16.232h5.076h5.046V139.013z M-129.745,100.57h-5.046
			h-5.076h-16.232V72.228h16.232h5.076h5.046V100.57z M-129.745,62.135h-5.046h-5.076h-16.232V33.8h16.232h5.076h5.046V62.135z
			 M-83.046,215.308h-18.275v-21.812h18.275V215.308z M-78.977,177.456h-5.105h-5.061h-16.247v-28.351h16.247h5.061h5.105V177.456z
			 M-78.977,139.013h-5.105h-5.061h-16.247v-28.352h16.247h5.061h5.105V139.013z M-78.977,100.57h-5.105h-5.061h-16.247V72.228
			h16.247h5.061h5.105V100.57z M-78.977,62.135h-5.105h-5.061h-16.247V33.8h16.247h5.061h5.105V62.135z M-28.237,215.308h-18.274
			v-21.812h18.274V215.308z M-28.237,177.456h-5.075h-5.076h-16.233v-28.351h16.233h5.076h5.075V177.456z M-28.237,139.013h-5.075
			h-5.076h-16.233v-28.352h16.233h5.076h5.075V139.013z M-28.237,100.57h-5.075h-5.076h-16.233V72.228h16.233h5.076h5.075V100.57z
			 M-28.237,62.135h-5.075h-5.076h-16.233V33.8h16.233h5.076h5.075V62.135z M7.29,194.947H-2.89V-181.61H7.29V194.947z
			 M27.577,194.947H17.441V-181.61h10.136V194.947z M47.864,194.947H37.713V-181.61h10.151V194.947z M68.166,194.947H58V-181.61
			h10.166V194.947z M109.79,214.922H91.5v-36.193h18.29V214.922z M117.869,152.124h-5.03h-5.106H91.5v-47.041h16.232h5.106h5.03
			V152.124z M117.869,88.318h-5.03h-5.106H91.5V41.294h16.232h5.106h5.03V88.318z M117.869,24.551h-5.03h-5.106H91.5v-47.047h16.232
			h5.106h5.03V24.551z M117.869-39.24h-5.03h-5.106H91.5v-47.04h16.232h5.106h5.03V-39.24z M164.568,214.922h-18.274v-36.193h18.274
			V214.922z M168.623,152.124h-5.076h-5.061h-16.247v-47.041h16.247h5.061h5.076V152.124z M168.623,88.318h-5.076h-5.061h-16.247
			V41.294h16.247h5.061h5.076V88.318z M168.623,24.551h-5.076h-5.061h-16.247v-47.047h16.247h5.061h5.076V24.551z M168.623-39.24
			h-5.076h-5.061h-16.247v-47.04h16.247h5.061h5.076V-39.24z M219.377,214.922h-18.289v-36.193h18.289V214.922z M219.377,152.124
			h-5.091h-5.061h-16.247v-47.041h16.247h5.061h5.091V152.124z M219.377,88.318h-5.091h-5.061h-16.247V41.294h16.247h5.061h5.091
			V88.318z M219.377,24.551h-5.091h-5.061h-16.247v-47.047h16.247h5.061h5.091V24.551z M219.377-39.24h-5.091h-5.061h-16.247v-47.04
			h16.247h5.061h5.091V-39.24z"/>
	</g>
</switch>
</svg>
