<?xml version="1.0" encoding="utf-8"?>
<!DOCTYPE svg PUBLIC "-//W3C//DTD SVG 1.1//EN" "http://www.w3.org/Graphics/SVG/1.1/DTD/svg11.dtd" >
<svg version="1.1" id="Layer_1" xmlns="http://www.w3.org/2000/svg" xmlns:xlink="http://www.w3.org/1999/xlink" x="0px" y="0px" viewBox="-247 -247 512 512" enable-background="new -247 -247 512 512" xml:space="preserve">
<switch>
	<g i:extraneous="self">
		<g>
			<path fill="#B2B2B2" d="M6.828,44.346H-95.341v181.785H55.663V78.885C34.822,74.967,17.219,62.08,6.828,44.346z M-19.542,147.908
				c-6.109,0-11.059-4.949-11.059-11.059s4.95-11.074,11.059-11.074c6.125,0,11.059,4.965,11.059,11.074
				S-13.417,147.908-19.542,147.908z"/>
			<path fill="#B2B2B2" d="M-95.341-28.131H6.828c10.391-17.734,27.994-30.593,48.835-34.525v-145.475H-95.341V-28.131z
				 M-19.542-129.951c6.125,0,11.059,4.963,11.059,11.087c0,6.109-4.934,11.059-11.059,11.059c-6.109,0-11.059-4.949-11.059-11.059
				C-30.601-124.988-25.651-129.951-19.542-129.951z"/>
			<path fill="#B2B2B2" d="M74.5,79.668v146.463H265v-9.688L113.191,64.633C102.336,73.168,89.101,78.537,74.5,79.668z
				 M141.97,125.775c6.109,0,11.059,4.965,11.059,11.074s-4.949,11.059-11.059,11.059s-11.073-4.949-11.073-11.059
				S135.86,125.775,141.97,125.775z"/>
			<path fill="#B2B2B2" d="M141.012,8.107c0,16.225-5.558,31.043-14.6,43.088L265,189.771v-353.025L130.549-28.828
				C137.05-17.972,141.012-5.433,141.012,8.107z M227.753,7.54c6.11,0,11.06,4.966,11.06,11.06c0,6.125-4.949,11.074-11.06,11.074
				c-6.108,0-11.058-4.949-11.058-11.074C216.695,12.506,221.645,7.54,227.753,7.54z"/>
			<path fill="#B2B2B2" d="M74.5-208.131v144.677c17.154,1.35,32.653,8.446,44.322,19.693L265-189.924v-18.207H74.5z
				 M141.97-107.805c-6.109,0-11.073-4.949-11.073-11.059c0-6.125,4.964-11.087,11.073-11.087s11.059,4.963,11.059,11.087
				C153.028-112.754,148.079-107.805,141.97-107.805z"/>
			<path fill="#B2B2B2" d="M-247,226.131h132.807V44.346H-247V226.131z M-207.974,125.775c6.124,0,11.073,4.965,11.073,11.074
				s-4.949,11.059-11.073,11.059c-6.111,0-11.059-4.949-11.059-11.059S-214.084,125.775-207.974,125.775z"/>
			<path fill="#B2B2B2" d="M-247-28.131h132.807v-180H-247V-28.131z M-207.974-129.951c6.124,0,11.073,4.963,11.073,11.087
				c0,6.109-4.949,11.059-11.073,11.059c-6.111,0-11.059-4.949-11.059-11.059C-219.032-124.988-214.084-129.951-207.974-129.951z"/>
		</g>
	</g>
</switch>
</svg>