<?xml version="1.0" encoding="utf-8"?>
<!DOCTYPE svg PUBLIC "-//W3C//DTD SVG 1.1//EN" "http://www.w3.org/Graphics/SVG/1.1/DTD/svg11.dtd" >
<svg version="1.1" id="Layer_1" xmlns:x="&ns_extend;" xmlns:i="&ns_ai;" xmlns:graph="&ns_graphs;"
	 xmlns="http://www.w3.org/2000/svg" xmlns:xlink="http://www.w3.org/1999/xlink" x="0px" y="0px" viewBox="-247 -247 512 512" enable-background="new -247 -247 512 512" xml:space="preserve">
<switch>
	<g i:extraneous="self">
		<path fill="#36A9E1" d="M250.215,28.223L235.143-74.498H97.336L82.264,28.223h-51.47v-211.625h61.974
			c3.448,17.222,18.638,30.217,36.879,30.217c20.805,0,37.668-16.878,37.668-37.67c0-20.792-16.863-37.641-37.668-37.641
			c-18.241,0-33.431,12.965-36.879,30.203H-15.661c-1.313-10.635-5.257-20.449-11.338-28.62c-3.434-1.031-7.08-1.583-10.843-1.583
			c-18.239,0-33.428,12.965-36.895,30.203h-24.48c-3.464-17.237-18.659-30.203-36.91-30.203c-3.777,0-7.424,0.552-10.845,1.583
			c-7.498,10.068-11.933,22.555-11.933,36.058c0,13.534,4.436,25.99,11.933,36.058c3.421,1.045,7.067,1.613,10.845,1.613
			c18.238,0,33.446-12.996,36.91-30.217h24.48c3.466,17.222,18.672,30.217,36.895,30.217c3.764,0,7.41-0.567,10.83-1.613
			c6.094-8.155,10.021-17.985,11.352-28.604H4.266v339.935h-149.652v-27.619c21.239-3.391,36.922-14.578,36.922-28.021
			c0-9.964-8.589-18.717-21.674-23.99h21.674c0-9.947-8.589-18.716-21.674-23.988h21.674c0-9.948-8.589-18.73-21.674-23.988h21.674
			c0-9.963-8.589-18.716-21.674-24.003h21.674c0-9.933-8.589-18.716-21.674-23.973h21.674c0-13.445-15.684-24.647-36.922-28.052
			v-25.378h62.869l-14.205-53.011h-125.291l-14.206,53.011h64.318v25.378c-21.241,3.405-36.954,14.607-36.954,28.052h21.673
			c-13.07,5.257-21.673,14.04-21.673,23.973h21.673c-13.07,5.287-21.673,14.04-21.673,24.003h21.658
			c-13.055,5.258-21.658,14.04-21.658,23.988h21.688c-13.085,5.272-21.688,14.041-21.688,23.988h21.673
			c-13.07,5.273-21.673,14.026-21.673,23.99c0,13.442,15.713,24.645,36.954,28.05l-0.716,54.118h0.716H4.266V265h26.528V54.737
			h219.988V28.223H250.215z"/>
	</g>
</switch>
</svg>
