<?xml version="1.0" encoding="utf-8"?>
<!DOCTYPE svg PUBLIC "-//W3C//DTD SVG 1.1//EN" "http://www.w3.org/Graphics/SVG/1.1/DTD/svg11.dtd" >
<svg version="1.1" id="Layer_1" xmlns="http://www.w3.org/2000/svg" xmlns:xlink="http://www.w3.org/1999/xlink" x="0px" y="0px" viewBox="-247 -247 512 512" enable-background="new -247 -247 512 512" xml:space="preserve">
<switch>
	<g i:extraneous="self">
		<g>
			<path fill="#F59E00" d="M162.557-118.09c7.469,0,13.127-2.536,17.112-6.868h0.24c-1.449,7.471-4.95,13.372-10.125,17.461
				c-4.348,3.516-10.021,5.553-15.922,6.036c-3.5,0.377-5.795,0.498-8.209,0.256v11.816c2.293,0.106,5.554,0.106,8.933-0.24
				c10.609-0.741,20.012-4.468,26.774-10.745c8.208-7.833,13.61-19.785,13.61-36.536c0-19.18-9.629-33.412-27.964-33.412
				c-16.645,0-28.222,12.918-28.222,27.979C138.785-127.87,148.912-118.09,162.557-118.09z M166.281-159.35
				c9.644,0,13.628,9.055,13.628,19.679c0,2.037-0.362,3.244-0.844,4.331c-2.294,3.607-6.642,6.52-12.662,6.52
				c-8.194,0-12.903-6.278-12.903-14.367C153.5-152.709,158.811-159.35,166.281-159.35z"/>
			<path fill="#F59E00" d="M231.009-89.282c18.832,0,28.718-15.785,28.718-41.108c0-23.044-8.798-39.931-27.737-39.931
				c-18.337,0-28.703,16.283-28.703,40.761C203.405-105.671,213.049-89.282,231.009-89.282z M231.626-158.973
				c8.92,0,13.146,10.714,13.146,28.93c0,18.818-4.467,29.442-13.266,29.442c-8.073,0-13.266-9.9-13.266-29.081
				C218.241-149.209,223.795-158.973,231.626-158.973z"/>
			<polygon fill="#F59E00" points="193.657,-37.715 140.959,-37.715 140.959,-25.401 177.978,-25.401 177.978,-25.174 
				144.928,40.684 160.503,40.684 193.657,-28.178 			"/>
			<path fill="#F59E00" d="M231.009,41.995c18.832,0,28.718-15.784,28.718-41.124c0-23.028-8.798-39.915-27.737-39.915
				c-18.337,0-28.703,16.283-28.703,40.76C203.405,25.607,213.049,41.995,231.009,41.995z M231.626-27.695
				c8.92,0,13.146,10.714,13.146,28.93c0,18.833-4.467,29.427-13.266,29.427c-8.073,0-13.266-9.87-13.266-29.065
				C218.241-17.916,223.795-27.695,231.626-27.695z"/>
			<path fill="#F59E00" d="M159.898,148.191c-7.123,0-13.884-2.294-17.264-4.104l-3.003,11.212
				c4.09,2.294,11.695,4.589,20.871,4.589c19.166,0,31.601-12.179,31.601-27.135c0-9.522-4.347-16.148-10.262-19.891
				c-5.19-3.499-12.179-5.07-19.06-5.07c-2.279,0-3.849,0.106-5.538,0.362l2.293-15.68h30.152v-12.3h-40.655l-5.07,39.554
				c3.017-0.361,6.275-0.724,10.743-0.724c15.561,0,22.185,5.9,22.185,14.955C176.892,143.241,168.576,148.191,159.898,148.191z"/>
			<path fill="#F59E00" d="M231.009,159.889c18.832,0,28.718-15.801,28.718-41.11c0-23.043-8.798-39.945-27.737-39.945
				c-18.337,0-28.703,16.284-28.703,40.761C203.405,143.483,213.049,159.889,231.009,159.889z M231.626,90.182
				c8.92,0,13.146,10.73,13.146,28.931c0,18.832-4.467,29.442-13.266,29.442c-8.073,0-13.266-9.885-13.266-29.065
				C218.241,99.961,223.795,90.182,231.626,90.182z"/>
			<path fill="#F59E00" d="M71.963,75.589C62.53,60.316,50.911,24.836,41.177-5.225h-218.761
				c-15.091,36.25-31.192,74.596-33.064,80.813c-0.694,2.232-3.2,6.036-6.852,10.595H78.24
				C76.476,83.074,74.483,79.68,71.963,75.589z"/>
			<path fill="#F59E00" d="M-20.47-146.839c-6.248-12.194-32.476-75.471-46.3-76.482c-8.36-0.618-35.555,50.224-57.165,94.35
				h112.489C-15.52-137.135-18.765-143.535-20.47-146.839z"/>
			<path fill="#F59E00" d="M26.824-47.207c-7.982-19.409-20.1-44.913-30.242-65.617h-128.32
				c-10.397,21.775-18.426,39.735-20.554,45.484c-3.275,8.813-10.398,26.244-18.578,45.952H35.91
				C32.395-32.117,29.285-41.262,26.824-47.207z"/>
			<path fill="#F59E00" d="M-247-128.972v16.148h115.263c2.475-5.191,5.101-10.61,7.802-16.148H-247z"/>
			<path fill="#F59E00" d="M113.901-112.824c3.607,0,6.52-3.607,6.52-8.059c0-4.481-2.912-8.089-6.52-8.089H-11.446
				c2.445,4.844,5.131,10.278,8.028,16.148H113.901z"/>
			<path fill="#F59E00" d="M113.629-5.225c3.758,0,6.792-3.636,6.792-8.073c0-4.497-3.034-8.089-6.792-8.089H35.91
				c1.675,5.085,3.44,10.534,5.267,16.163H113.629z"/>
			<path fill="#F59E00" d="M-247-21.387v16.163h69.416c2.279-5.478,4.528-10.896,6.716-16.163H-247z"/>
			<path fill="#F59E00" d="M-247,86.184v16.191h14.967c5.735-5.841,10.745-11.454,14.533-16.191H-247z"/>
			<path fill="#F59E00" d="M113.781,102.375c3.682,0,6.64-3.622,6.64-8.088c0-4.453-2.958-8.104-6.64-8.104H78.24
				c3.758,6.654,6.173,11.619,8.164,16.191H113.781z"/>
			<path fill="#F59E00" d="M95.053,122.566c-3.984-8.602-6.037-14.17-8.648-20.191h-318.437
				c-6.081,6.195-10.729,14.783-14.967,23.188V265h512C169,254.375,103.488,140.842,95.053,122.566z"/>
		</g>
	</g>
</switch>
</svg>
