<?xml version="1.0" encoding="utf-8"?>
<!DOCTYPE svg PUBLIC "-//W3C//DTD SVG 1.1//EN" "http://www.w3.org/Graphics/SVG/1.1/DTD/svg11.dtd" >
<svg version="1.1" id="Layer_1" xmlns="http://www.w3.org/2000/svg" xmlns:xlink="http://www.w3.org/1999/xlink" x="0px" y="0px" viewBox="-247 -247 512 512" enable-background="new -247 -247 512 512" xml:space="preserve">
<switch>
	<g i:extraneous="self">
		<path fill="#F59E00" d="M-88.456-34.966h-156.308c2.433,7.047,4.599,13.894,6.602,20.667h143.372
			C-92.862-21.042-90.725-27.933-88.456-34.966z"/>
		<path fill="#F59E00" d="M-8.492,34.799h-81.462c-11.082,68.037,0.401,124.797,37.327,193.68h83.302
			C-13.179,156.659-24.721,104.615-8.492,34.799z"/>
		<path fill="#F59E00" d="M1.166,0.269h-83.91c-1.736,6.794-3.174,13.412-4.539,19.954h82.5C-2.972,13.732-1.059,7.123,1.166,0.269z
			"/>
		<path fill="#F59E00" d="M66.028,2.42c17.733-19.72,29.564-40.663,36.245-54.375L93.963,265h33.099l-8.394-320.687
			c1.083-0.985,2.024-2.11,2.815-3.334c13.337,7.21,35.681,17.565,62.251,23.21C227.188-26.569,265-33.486,265-33.486
			s-31.716-21.797-75.168-31.032c-26.452-5.622-50.945-5.281-66.079-4.154c-0.104-1.06-0.029-2.113-0.37-3.175
			c-2.062-6.356-7.952-10.243-14.287-10.31c-0.415-15.11-2.551-39.908-11.038-66.033c-13.708-42.252-38.824-71.961-38.824-71.961
			s-2.833,38.772,10.875,81.025c8.5,26.14,21.333,47.445,29.894,59.92c-5.06,3.784-7.552,10.378-5.489,16.735
			c0.326,0.979,0.979,1.728,1.483,2.604c-12.892,7.907-33.365,22.179-51.791,42.66C14.46,15.795,1.3,52.364,1.3,52.364
			S36.298,35.438,66.028,2.42z"/>
		<g>
			<path fill="#F59E00" d="M-229.053,138.649c-5.315,17.202-12.777,28.075-17.947,35.678V265h199.596l-2.865-4.552
				c-58.705-96.149-72.65-164.972-48.394-260.18h-135.553C-220.582,52.943-220.24,97.672-229.053,138.649z"/>
		</g>
	</g>
</switch>
</svg>
