<?xml version="1.0" encoding="utf-8"?>
<!DOCTYPE svg PUBLIC "-//W3C//DTD SVG 1.1//EN" "http://www.w3.org/Graphics/SVG/1.1/DTD/svg11.dtd" >
<svg version="1.1" id="Layer_1" xmlns="http://www.w3.org/2000/svg" xmlns:xlink="http://www.w3.org/1999/xlink" x="0px" y="0px" viewBox="-247 -247 512 512" enable-background="new -247 -247 512 512" xml:space="preserve">
<switch>
	<g i:extraneous="self">
		<g>
			<path fill-rule="evenodd" clip-rule="evenodd" fill="#B17F4A" d="M218.062,202.032c-2.831-11.78-14.328-26.288-21.996-38.988
				C143.578,76.328,87.384-15.526,36.102-99.893c2.621-10.711,4.882-21.785,6.99-33.023c44.322-30.297,90.89-58.394,153.969-69.994
				c0.858-3.841-1.386-12.354-2.999-16.964c-36.804,3.812-68.924,7.548-97.97,15.985c-28.88,8.376-53.06,21.89-77.015,36.006
				c-47.818,28.158-92.863,56.677-140.952,84.97c12.7,21.98,26.32,43.012,38.99,64.992c25.536-13.453,47.908-30.085,71.982-45
				C41.781,20.586,97.207,112.454,151.08,201.04c7.006,11.538,16.437,29.663,25.988,33.987
				C200.404,245.603,223.56,225.023,218.062,202.032z"/>
			<path fill-rule="evenodd" clip-rule="evenodd" fill="#B17F4A" d="M-62.894,61.052c-6.855-9.446-15.261-17.356-21.995-26.968
				c-17.958,13.709-33.898,29.423-51.976,42.982c13.694,17.972,29.574,33.761,42.981,52.005c9.431-7.246,18.622-14.719,26.997-23.02
				C-66.042,90.579-65.153,75.122-62.894,61.052z"/>
			<path fill-rule="evenodd" clip-rule="evenodd" fill="#B17F4A" d="M-43.896,129.071c-11.962,29.995-19.811,64.148-29.995,95.952
				c5.891,1.869,11.405,3.329,16.994,5.032c5.032,1.507,10.952,5.016,16.014,4.972c5.242-0.03,12.414-4.672,18.982-7.006
				c18.169-6.343,39.985-13.709,58.002-19.976c-3.3-20.716-8.769-39.232-13.017-58.997C0.155,142.992-22.081,136.242-43.896,129.071
				z"/>
			<path fill-rule="evenodd" clip-rule="evenodd" fill="#B17F4A" d="M-111.886,134.043c-30.99,0-61.979,0-92.984,0
				c0,11.013,0,21.122,0,31.02c0,10.185-2.229,21.86,0,30.976c1.477,6.026,9.476,13.032,13.996,18.002
				c5.619,6.177,11.902,10.456,16,16.016c21.333,0,42.666,0,63.998,0C-111.54,198.372-109.551,164.039-111.886,134.043z"/>
		</g>
	</g>
</switch>
</svg>
