<?xml version="1.0" encoding="utf-8"?>
<!DOCTYPE svg PUBLIC "-//W3C//DTD SVG 1.1//EN" "http://www.w3.org/Graphics/SVG/1.1/DTD/svg11.dtd" >
<svg version="1.1" id="Layer_1" xmlns="http://www.w3.org/2000/svg" xmlns:xlink="http://www.w3.org/1999/xlink" x="0px" y="0px" viewBox="-247 -247 512 512" enable-background="new -247 -247 512 512" xml:space="preserve">
<switch>
	<g i:extraneous="self">
		<path fill="#B2B2B2" d="M9.007-247C-132.391-247-247-132.383-247,9c0,141.376,114.609,256,256.007,256
			C150.375,265,265,150.377,265,9C265-132.383,150.375-247,9.007-247z M179.411,179.411c-22.139,22.139-47.913,39.519-76.608,51.657
			c-29.701,12.563-61.258,18.934-93.795,18.934c-32.544,0-64.107-6.37-93.811-18.935c-28.697-12.138-54.473-29.518-76.611-51.656
			c-22.138-22.138-39.517-47.913-51.655-76.61C-225.632,73.1-232.002,41.54-232.002,9c0-32.542,6.37-64.102,18.932-93.804
			c12.138-28.697,29.517-54.472,51.654-76.61c22.138-22.138,47.915-39.518,76.612-51.655c29.704-12.563,61.266-18.933,93.811-18.933
			c32.538,0,64.095,6.37,93.795,18.933c28.695,12.138,54.471,29.517,76.608,51.655c22.139,22.139,39.519,47.914,51.656,76.61
			C243.632-55.101,250.002-23.541,250.002,9c0,32.54-6.37,64.098-18.935,93.8C218.93,131.497,201.55,157.272,179.411,179.411z"/>
		<g>
			<rect x="131.98" y="-75.085" fill="#B2B2B2" width="52.098" height="54.361"/>
			<path fill="#B2B2B2" d="M172.222-137.121H131.98v54.361h52.098v-38.47C180.214-126.884,176.236-132.255,172.222-137.121z"/>
			<rect x="131.98" y="-13.05" fill="#B2B2B2" width="52.098" height="54.375"/>
			<path fill="#B2B2B2" d="M124.334-176.115c-15.426-9.343-33.153-18.008-52.113-24.403v55.729h52.113V-176.115z"/>
			<path fill="#B2B2B2" d="M85.359-73.445c6.768-4.511,16.932,15.812,14.662,24.855c-1.638,6.55-12.184,17.288-22.156,27.865h46.469
				v-54.361H72.221v8.334C77.667-69.224,82.722-71.68,85.359-73.445z"/>
			<rect x="72.221" y="-137.121" fill="#B2B2B2" width="52.113" height="54.361"/>
			<path fill="#B2B2B2" d="M64.605,27.892V-5.54C56.498,5.701,53.728,18.045,64.605,27.892z"/>
			<path fill="#B2B2B2" d="M-1.464-122.021c1.385,2.773,3.52,5.34,6.033,7.605v-22.163C-0.431-131.886-3.98-127.069-1.464-122.021z"
				/>
			<path fill="#B2B2B2" d="M191.723,41.325h8.018c1.787-3.625,2.895-7.022,2.895-9.71c0-8.523-2.37-28.96-7.134-44.665h-3.778
				V41.325z"/>
			<path fill="#B2B2B2" d="M131.98,48.979v54.375h25.413c11.833-11.943,14.319-33.661,20.431-36.711
				c1.862-0.933,4.014-2.547,6.254-4.598V48.979H131.98z"/>
			<path fill="#B2B2B2" d="M191.723-109.476v26.716h15.193C202.387-91.426,197.239-100.588,191.723-109.476z"/>
			<path fill="#B2B2B2" d="M27.857-105.074c5.567-2.249,10.028,15.341,4.714,22.314h32.034v-54.361H12.814v28.447
				C18.861-105.426,24.978-103.922,27.857-105.074z"/>
			<path fill="#B2B2B2" d="M192.484-21.479c-0.272-0.635-0.522-1.284-0.762-1.939v2.693h1.073
				C192.692-20.976,192.59-21.233,192.484-21.479z"/>
			<path fill="#B2B2B2" d="M20.523-75.085c-4.31,2.32-7.404,4.879-5.072,9.549c4.512,9.037,31.578,10.165,36.09,7.902
				c1.926-0.963,7.17-3.174,13.064-5.741v-11.71H20.523z"/>
			<path fill="#B2B2B2" d="M-166.693-118.822v36.062h17.584c-0.974-9.59-1.742-18.714-0.082-21.194
				c2.241-3.397,24.797-15.804,28.195-15.804c1.048,0,3.596,1.507,6.386,3.786v-21.149h-38.561
				C-158.233-131.034-162.737-124.89-166.693-118.822z"/>
			<path fill="#B2B2B2" d="M-174.338-57.19v-17.896h-8.32c-0.587,2.058-1.471,3.868-2.621,5.016
				C-187.815-67.517-180.203-59.894-174.338-57.19z"/>
			<path fill="#B2B2B2" d="M-174.338-82.76v-23.219c-3.565,6.606-6.453,12.995-8.671,18.971c0.584,1.17,0.936,2.647,1.084,4.248
				H-174.338z"/>
			<path fill="#B2B2B2" d="M-148.062-72.31c-0.083-0.909-0.171-1.837-0.264-2.775h-18.367v17.614
				C-160.048-59.343-147.114-61.726-148.062-72.31z"/>
			<path fill="#B2B2B2" d="M-114.61-144.789v-27.404c2.52-1.721,5.068-3.413,7.646-5.031v32.435h48.04
				c0.613-1.943,2.067-3.184,4.044-3.95v-52.161c2.533-0.776,5.096-1.509,7.645-2.197v53.237c5.179-0.049,11.018,0.721,15.32,0.721
				c9.022,0,4.512-7.909,12.406-14.69c5.955-5.11,16.401-1.872,24.078-3.854v-42.635c1.48-0.044,2.959-0.073,4.438-0.073
				c1.288,0,2.547,0.044,3.807,0.081v36.699c6.059-4.071,11.332,10.724,8.275,19.938c-0.981,2.953-3.771,5.905-7.092,8.883h50.607
				v-58.03h0.417c-17.396-5.238-35.686-8.458-54.083-8.458c-73.195,0-124.958,31.257-157.396,66.488H-114.61z"/>
			<path fill="#B2B2B2" d="M-64.881-137.121h-42.083v29.302c2.641,3.937,3.712,7.982,0.615,10.64
				c-0.216,0.187-0.419,0.383-0.615,0.582v13.837h11.18c6.085-4.412,12.766-10.177,11.991-13.277
				c-1.113-4.526-9.008-14.691-3.369-22.593C-83.202-124.209-71.971-130.888-64.881-137.121z"/>
			<path fill="#B2B2B2" d="M135.188,111.006c2.355,0.229,4.551,0.224,6.593,0H135.188z"/>
			<path fill="#B2B2B2" d="M131.98-144.789h33.465c-1.888-1.975-3.774-3.812-5.652-5.485c-7.639-6.801-17.053-14.028-27.812-21.041
				V-144.789z"/>
			<path fill="#B2B2B2" d="M124.334,41.325V-13.05H72.221v46.181c14.375,7.576,25.824,2.303,35.565,8.194H124.334z"/>
			<path fill="#B2B2B2" d="M124.334,48.979h-9.658c5.097,12.807-1.179,40.834,7.03,54.375h2.628V48.979z"/>
			<path fill="#B2B2B2" d="M191.723,48.979v4.75c1.219-1.538,2.393-3.135,3.494-4.75H191.723z"/>
			<path fill="#B2B2B2" d="M191.723-75.085v19.574c1.566-3.518,3.735-5.97,6.4-6.641c9.023-2.263,19.158,20.336,18.045,29.381
				c1.113,7.909,11.277,4.511,9.021-7.909c-0.871-4.803-6.285-18.205-14.355-34.405H191.723z"/>
		</g>
		<g>
			<path fill="#B2B2B2" d="M-54.88,103.354V48.979h-52.084v9.026c9.074,7.517,15.937,19.748,16.404,38.011
				c-0.871,2.366-1.934,4.815-3.111,7.338H-54.88z"/>
			<path fill="#B2B2B2" d="M-146.949,50.824c1.702-0.796,3.627-1.411,5.702-1.846h-25.446v39.119c1.516-2.203,2.562-4.23,2.841-5.63
				C-162.724,76.799-160.38,57.1-146.949,50.824z"/>
			<path fill="#B2B2B2" d="M-54.88,111.006h-42.518c-3.394,6.821-7.023,14.084-9.566,21.664v32.741h52.084V111.006z"/>
			<rect x="-166.693" y="-13.05" fill="#B2B2B2" width="52.083" height="54.375"/>
			<rect x="-106.964" y="-13.05" fill="#B2B2B2" width="52.084" height="54.375"/>
			<path fill="#B2B2B2" d="M-174.338-13.05h-32.793c-0.733,13.696-0.574,34.038,1.971,54.375h30.822V-13.05z"/>
			<path fill="#B2B2B2" d="M-126.319,48.979c3.91,0.733,7.889,2.045,11.709,3.996v-3.996H-126.319z"/>
			<path fill="#B2B2B2" d="M-174.338,96.594V48.979h-29.749c3.177,20.276,8.943,39.699,18.808,51.556
				C-182.374,101.983-178.221,99.894-174.338,96.594z"/>
			<path fill="#B2B2B2" d="M-35.298-64.416c1.828-1.099-3.46-2.434-11.938-3.275v7.755C-42.037-61.558-37.524-63.074-35.298-64.416z
				"/>
			<path fill="#B2B2B2" d="M-106.349-59.882c-0.208,0.192-0.41,0.386-0.615,0.58v38.578h52.084v-16.912
				c-11-2.63-24-10.026-15.379-14.336c3.782-1.897,9.545-3.792,15.379-5.605v-10.679C-72.858-69.186-97.75-67.837-106.349-59.882z"
				/>
			<path fill="#B2B2B2" d="M-114.61-20.725v-30.644c-9.636,10.88-15.898,20.852-22.175,20.852c-3.43,0-16.19-4.673-29.908-7.02
				v16.812H-114.61z"/>
			<path fill="#B2B2B2" d="M57.164,88.106c-11.262,0-37.201,11.308-41.713-3.384c-2.692-8.771-2.567-22.763-1.793-35.744h-0.844
				v54.375h14.356c0.229-0.193,0.457-0.385,0.687-0.557c8.754-1.597,25.352,0.178,36.748-1.811V84.24
				C62.282,84.911,59.766,86.151,57.164,88.106z"/>
			<path fill="#B2B2B2" d="M75.209,96.016c3.83-5.114,1.878-10.228-2.988-11.862v14.38C73.44,97.839,74.462,97.014,75.209,96.016z"
				/>
			<path fill="#B2B2B2" d="M-174.338-20.725v-17.829c-15.004-1.357-29.312,1.579-32.142,17.829H-174.338z"/>
			<path fill="#B2B2B2" d="M25.797,173.049H12.814v55.262c-1.26,0.022-2.52,0.088-3.807,0.088c-1.479,0-2.958-0.065-4.438-0.109
				v-55.24h-51.805v46.832c2.85,1.618,5.377,2.921,7.426,3.802c16.917,3.384,72.179,11.3,102.628-1.136
				C54.007,214.456,37.159,191.503,25.797,173.049z"/>
			<path fill="#B2B2B2" d="M-54.88,173.049h-49.345c0.4,0.681,0.814,1.362,1.26,2.044c2.581,7.754,28.794,28.005,48.085,40.186
				V173.049z"/>
			<rect x="-47.236" y="111.006" fill="#B2B2B2" width="51.805" height="54.405"/>
			<rect x="-47.236" y="48.979" fill="#B2B2B2" width="51.805" height="54.375"/>
			<rect x="-47.236" y="-13.05" fill="#B2B2B2" width="51.805" height="54.375"/>
			<path fill="#B2B2B2" d="M4.569-21.696C-10.869-25.802-34.46-32.64-47.236-35.864v15.14H4.569V-21.696z"/>
			<path fill="#B2B2B2" d="M12.814,41.325h1.372c0.45-5.851,0.949-11.192,1.265-15.356c0.874-7.092-1.016-28.123-1.313-39.019
				h-1.323V41.325z"/>
			<path fill="#B2B2B2" d="M14.338,150.237c-2.523-12.581,1.173-28.89,6.941-39.231h-8.465v54.405h8.455
				C17.548,158.848,14.962,153.397,14.338,150.237z"/>
		</g>
	</g>
</switch>
</svg>
