<?xml version="1.0" encoding="utf-8"?>
<!DOCTYPE svg PUBLIC "-//W3C//DTD SVG 1.1//EN" "http://www.w3.org/Graphics/SVG/1.1/DTD/svg11.dtd" >
<svg version="1.1" id="Layer_1" xmlns="http://www.w3.org/2000/svg" xmlns:xlink="http://www.w3.org/1999/xlink" x="0px" y="0px" viewBox="-247 -247 512 512" enable-background="new -247 -247 512 512" xml:space="preserve">
<switch>
	<g i:extraneous="self">
		<g>
			<path fill="#B2B2B2" d="M-186.008,145.529h-33.558v31.124h37.4v9.35h-48.543V99.676h46.622v9.35h-35.479v27.281h33.558V145.529z"
				/>
			<path fill="#B2B2B2" d="M-171.536,124.779c4.355-0.769,12.424-1.408,19.725-1.408c10.375,0,27.538,1.665,27.538,15.498
				c0,7.685-5.892,12.424-12.937,13.961v0.256c9.094,1.28,15.754,6.404,15.754,15.37c0,16.266-20.493,18.315-32.661,18.315
				c-6.917,0-14.089-0.513-17.419-0.769V124.779z M-160.905,178.574c3.202,0.384,5.508,0.513,9.094,0.513
				c7.557,0,18.828-1.794,18.828-10.76s-8.966-10.887-19.725-10.887h-8.197V178.574z M-160.777,150.012h8.454
				c8.325,0,16.907-2.434,16.907-9.734c0-6.147-5.379-9.094-16.65-9.094c-3.714,0-6.02,0.256-8.71,0.513V150.012z"/>
			<path fill="#B2B2B2" d="M-110.441,144.248c0-7.941-0.256-14.345-0.512-20.237h10.118l0.513,10.631h0.256
				c4.611-7.557,11.912-12.039,22.03-12.039c14.985,0,26.257,12.68,26.257,31.508c0,22.286-13.577,33.302-28.178,33.302
				c-8.197,0-15.37-3.587-19.084-9.734h-0.256v33.686h-11.143V144.248z M-99.298,160.771c0,1.665,0.256,3.202,0.512,4.611
				c2.049,7.812,8.838,13.192,16.907,13.192c11.912,0,18.828-9.734,18.828-23.951c0-12.424-6.532-23.055-18.444-23.055
				c-7.685,0-14.857,5.507-17.035,13.961c-0.384,1.408-0.769,3.073-0.769,4.61V160.771z"/>
			<path fill="#B2B2B2" d="M15.334,154.495c0,22.927-15.882,32.917-30.867,32.917c-16.779,0-29.715-12.296-29.715-31.893
				c0-20.75,13.577-32.917,30.74-32.917C3.295,122.603,15.334,135.538,15.334,154.495z M-33.849,155.135
				c0,13.577,7.813,23.823,18.828,23.823c10.759,0,18.828-10.118,18.828-24.079c0-10.503-5.251-23.823-18.571-23.823
				C-28.085,131.056-33.849,143.352-33.849,155.135z"/>
			<path fill="#B2B2B2" d="M77.325,124.011v61.992H66.054v-53.026H37.235v53.026H26.092v-61.992H77.325z"/>
			<path fill="#B2B2B2" d="M126.763,186.003l-0.896-7.813h-0.384c-3.458,4.867-10.119,9.223-18.956,9.223
				c-12.553,0-18.957-8.838-18.957-17.804c0-14.985,13.321-23.183,37.272-23.055v-1.281c0-5.123-1.409-14.345-14.089-14.345
				c-5.764,0-11.784,1.793-16.139,4.61l-2.562-7.429c5.123-3.33,12.552-5.507,20.365-5.507c18.956,0,23.567,12.936,23.567,25.36
				v23.183c0,5.379,0.256,10.631,1.024,14.857H126.763z M125.098,154.366c-12.296-0.256-26.257,1.922-26.257,13.961
				c0,7.301,4.867,10.76,10.631,10.76c8.069,0,13.192-5.124,14.985-10.375c0.385-1.153,0.641-2.434,0.641-3.586V154.366z"/>
		</g>
		<g>
			<path fill="#B2B2B2" d="M-186.017-145.477h-33.558v31.124h37.4v9.35h-48.543v-86.328h46.622v9.35h-35.479v27.282h33.558V-145.477
				z"/>
			<path fill="#B2B2B2" d="M-120.311-121.909c0,6.404,0.128,12.04,0.513,16.907h-9.991l-0.64-10.119h-0.256
				c-2.946,4.995-9.478,11.527-20.493,11.527c-9.734,0-21.39-5.379-21.39-27.153v-36.247h11.271v34.326
				c0,11.783,3.586,19.725,13.833,19.725c7.557,0,12.808-5.251,14.857-10.247c0.641-1.665,1.025-3.714,1.025-5.764v-38.041h11.271
				V-121.909z"/>
			<path fill="#B2B2B2" d="M-104.813-147.654c0-7.301-0.128-13.577-0.512-19.34h9.862l0.384,12.167h0.512
				c2.818-8.325,9.606-13.577,17.163-13.577c1.281,0,2.177,0.128,3.202,0.384v10.631c-1.153-0.256-2.306-0.384-3.843-0.384
				c-7.941,0-13.577,6.02-15.114,14.474c-0.256,1.537-0.512,3.33-0.512,5.251v33.045h-11.143V-147.654z"/>
			<path fill="#B2B2B2" d="M-11.312-136.511c0,22.927-15.882,32.917-30.868,32.917c-16.779,0-29.715-12.296-29.715-31.892
				c0-20.75,13.577-32.917,30.74-32.917C-23.353-168.403-11.312-155.467-11.312-136.511z M-60.496-135.87
				c0,13.577,7.813,23.823,18.828,23.823c10.759,0,18.828-10.119,18.828-24.08c0-10.503-5.251-23.823-18.572-23.823
				C-54.732-159.95-60.496-147.654-60.496-135.87z"/>
			<path fill="#B2B2B2" d="M-0.299-146.757c0-7.941-0.256-14.345-0.512-20.237H9.308l0.513,10.631h0.256
				c4.611-7.557,11.912-12.04,22.03-12.04c14.985,0,26.257,12.68,26.257,31.508c0,22.287-13.577,33.301-28.178,33.301
				c-8.197,0-15.37-3.586-19.085-9.734h-0.256v33.686H-0.299V-146.757z M10.845-130.235c0,1.666,0.256,3.202,0.513,4.611
				c2.049,7.813,8.837,13.192,16.906,13.192c11.912,0,18.828-9.734,18.828-23.952c0-12.424-6.532-23.055-18.443-23.055
				c-7.686,0-14.857,5.508-17.035,13.961c-0.385,1.409-0.769,3.074-0.769,4.611V-130.235z"/>
			<path fill="#B2B2B2" d="M103.702-105.002l-0.896-7.813h-0.384c-3.458,4.867-10.119,9.222-18.956,9.222
				c-12.553,0-18.957-8.837-18.957-17.803c0-14.986,13.321-23.183,37.272-23.055v-1.281c0-5.124-1.409-14.345-14.089-14.345
				c-5.764,0-11.784,1.793-16.139,4.611l-2.562-7.429c5.123-3.33,12.552-5.508,20.365-5.508c18.956,0,23.567,12.937,23.567,25.36
				v23.183c0,5.379,0.256,10.631,1.024,14.857H103.702z M102.037-136.639c-12.296-0.256-26.257,1.921-26.257,13.961
				c0,7.301,4.867,10.759,10.631,10.759c8.069,0,13.192-5.123,14.985-10.375c0.385-1.153,0.641-2.434,0.641-3.586V-136.639z"/>
		</g>
		<g>
			<path fill="#B2B2B2" d="M-186.017-0.62h-33.558v31.124h37.4v9.35h-48.543v-86.328h46.622v9.35h-35.479v27.281h33.558V-0.62z"/>
			<path fill="#B2B2B2" d="M-120.311,22.946c0,6.404,0.128,12.04,0.513,16.907h-9.991l-0.64-10.118h-0.256
				c-2.946,4.995-9.478,11.527-20.493,11.527c-9.734,0-21.39-5.38-21.39-27.153v-36.248h11.271v34.326
				c0,11.784,3.586,19.725,13.833,19.725c7.557,0,12.808-5.251,14.857-10.246c0.641-1.665,1.025-3.715,1.025-5.764v-38.041h11.271
				V22.946z"/>
			<path fill="#B2B2B2" d="M-104.813-2.798c0-7.301-0.128-13.577-0.512-19.34h9.862l0.384,12.167h0.512
				c2.818-8.325,9.606-13.577,17.163-13.577c1.281,0,2.177,0.128,3.202,0.384v10.631c-1.153-0.256-2.306-0.384-3.843-0.384
				c-7.941,0-13.577,6.02-15.114,14.473c-0.256,1.537-0.512,3.33-0.512,5.252v33.045h-11.143V-2.798z"/>
			<path fill="#B2B2B2" d="M-11.312,8.346c0,22.927-15.882,32.917-30.868,32.917c-16.779,0-29.715-12.296-29.715-31.893
				c0-20.749,13.577-32.917,30.74-32.917C-23.353-23.547-11.312-10.611-11.312,8.346z M-60.496,8.985
				c0,13.577,7.813,23.823,18.828,23.823c10.759,0,18.828-10.118,18.828-24.079c0-10.503-5.251-23.823-18.572-23.823
				C-54.732-15.094-60.496-2.798-60.496,8.985z"/>
			<path fill="#B2B2B2" d="M-0.299-1.901c0-7.941-0.256-14.345-0.512-20.237H9.308l0.513,10.63h0.256
				c4.611-7.557,11.912-12.04,22.03-12.04c14.985,0,26.257,12.68,26.257,31.508c0,22.286-13.577,33.302-28.178,33.302
				c-8.197,0-15.37-3.587-19.085-9.734h-0.256v33.686H-0.299V-1.901z M10.845,14.621c0,1.665,0.256,3.202,0.513,4.611
				c2.049,7.812,8.837,13.192,16.906,13.192c11.912,0,18.828-9.734,18.828-23.951c0-12.424-6.532-23.055-18.443-23.055
				c-7.686,0-14.857,5.507-17.035,13.961c-0.385,1.408-0.769,3.073-0.769,4.61V14.621z"/>
			<path fill="#B2B2B2" d="M75.652,10.907c0.256,15.241,9.99,21.518,21.262,21.518c8.069,0,12.937-1.409,17.163-3.202l1.921,8.069
				c-3.971,1.793-10.759,3.843-20.621,3.843c-19.084,0-30.483-12.553-30.483-31.253c0-18.699,11.015-33.429,29.074-33.429
				c20.237,0,25.617,17.803,25.617,29.203c0,2.306-0.257,4.099-0.385,5.252H75.652z M108.697,2.838
				c0.129-7.173-2.945-18.316-15.626-18.316c-11.399,0-16.395,10.503-17.291,18.316H108.697z"/>
		</g>
		<path fill="#B2B2B2" d="M265-17.751c-3.154-0.131-5.797-0.446-6.188-0.709c-0.828-0.548-1.125-7.499-7.218-0.828
			c-4.997-0.844-9.035-0.223-11.683,0.828c-5.561,2.232-1.389-6.937-2.796-8.327c-1.374-1.39,3.017-10.737-1.641-10.026
			c-7.262,1.123-9.199-2.219-12.512,0.561c-3.371,2.795-12.524,6.107-14.197,6.107c-1.671,5.842-8.354,10.293-10.559,10.589
			c0,5.842-10.027,6.108-10.027,6.108s0.562,6.389-6.106,6.669c-6.67,0.282,0.548,5.28-15.839,2.5
			c-0.576,7.794-7.808,10.573-8.932,13.354c-1.094,2.765,8.932,28.913-16.667,28.913c-1.377,0,2.263,2.232,2.263,2.232
			s0.798,3.623-1.983,5.842c-2.779,2.217-0.561,10.56-5.841,14.182c-5.278,3.594-10.292,29.178,1.11,35.597
			c2.219-3.639-2.692,34.354,21.413,66.43c7.527,10.012,16.416,3.639,16.416,3.639s6.106,23.352,17.775,8.888
			c6.418-1.391,17.806,1.108,17.806,1.108s3.371-3.046,3.371-5.264c0-2.234,3.594-2.516,4.438,0.267
			c0.812,2.808,5.855-2.693,5.855-2.693s3.047-14.61,18.19-17.509l2.897-1.774c0,0,3.401,4.126,2.812,5.827
			c-0.562,1.714,2.292-0.593,2.292-0.593s4.539,8.726,5.708,7.306c1.154-1.39,5.545-10.5,6.832-2.751
			c0.954,0.146,2.156,1.04,3.009,2.03V-17.751z"/>
		<g>
			<path fill="#B2B2B2" d="M265-141.222v-3.876c-0.045,0.061-0.078,0.118-0.126,0.179C263.17-142.709,263.874-141.69,265-141.222z"
				/>
			<path fill="#B2B2B2" d="M265-75.975c-1.939-0.428-3.635-1.321-3.881-3.8c-0.651-6.876-1.301-11.757-1.301-11.757
				s3.411-1.522,5.182-1.085v-9.906c-1.134-2.547-2.728-4.279-4.532-3.383c-4.555,2.278,5.235-6.861-3.904-10.44
				c1.628-5.235-5.545-4.569-3.267-11.09c-5.221-1.953-3.595-6.863-0.636-6.863c-1.333-2.928,3.902-4.243,3.902-4.243
				s0.947-5.872,5.234-3.92c-1.33-4.569-1.655-13.044,0.621-12.393c1.872,0.528,2.433,1.905,2.581,2.413V-247H161.229
				c-0.732,5.674-0.63,8.437,6.56,14.444c8.149,6.862-3.948,8.163-6.227,6.226c-2.277-1.966-10.764-2.292-13.368-0.341
				c-2.603,1.967-0.976-2.602,2.604-2.928c3.592-0.34,0.974-4.91,7.185-6.862c6.183-1.952-8.163-6.182-10.47-4.584
				c-2.247,1.656-11.742-2.914-20.542-0.636l-1.3-1.967c0,0-5.9,0.325-5.546,1.967c0.311,1.612-8.814-1.316-12.393,3.269
				c-3.609,4.555,3.253,11.417,0,15.01c4.909,1.967,7.482,10.441,6.537,14.36c-1.006,3.919,6.831,3.253,6.831,3.253
				s3.905,1.302-0.324,7.837c4.229,1.628,2.602,9.791,1.3,12.409c-1.3,2.618,3.936,6.181,2.603,9.79
				c-1.301,3.593,6.537,3.593,6.537,3.593s3.27,8.489,5.871,10.766c2.631,2.278,8.858-3.312,7.854-12.392
				c-0.326-2.943,4.879,0.976,4.879,0.976s6.213,5.206,5.562,8.163c-0.665,2.928-1.983,6.536-5.886,3.904
				c-1.627,6.211-0.651,14.715,6.537,13.073c-0.326-3.608,2.942-2.942,2.942-2.942s-6.227-5.399,6.196-2.293
				c6.537,1.627,2.617-5.871,6.182-12.407c3.606-6.522,6.227-8.474-1.952-8.149c-8.134,0.311-10.085-6.004-10.767-8.163
				c-1.952-6.196-1.124,4.688-10.115-8.814c-3.253-4.88,2.1-2.604-4.23-7.513c-2.956-2.277,3.225-9.775,3.225-9.775
				s-3.225-5.235-9.108-2.617c-5.886,2.617-1.317-5.561,0-5.22c1.313,0.34,5.884,1.627,8.163,0c2.276-1.642,4.908,2.914,4.908,2.914
				s-1.892,18.012,7.499,16.001c4.57-0.977,4.229,10.441,11.4,1.626h3.271c0,0,1.313-4.88,3.592-3.919
				c2.279,0.99,1.982-6.847,0.978-8.785c-0.978-1.967,11.239,0.193,6.521,14.345c-1.938,5.871-9.126,5.22-9.126,5.22l3.906,6.862
				c3.607,10.441,9.138,11.742,7.187,23.824c-0.445,2.766-6.878,3.609-6.878,3.609s-0.605,7.498-9.745,7.158
				c0,0-5.576,2.292-6.876,2.603c-1.287,0.34,0.341,7.202-2.604,7.527c-2.942,0.31-2.942,12.068-11.431,2.603
				s-2.957,13.398,0.976,8.489c3.903-4.895,1.626,9.139,3.252,5.871c1.628-3.268,0.992,12.083-10.114,12.748
				c-11.076,0.637,1.657,8.149,4.229,7.498c2.633-0.65,3.285,2.929-10.765,2.603c-14.021-0.31-11.077,14.701,2.306,10.116
				c13.369-4.571,6.537,1.301,6.537,1.301l2.928,2.307c0,0-1.154,0.488-1.389,2.042c-0.268,1.538,4.346,3.83,5.293,4.465
				c0.975,0.651,5.235,9.14,4.259,11.432c-0.976,2.292,5.235,10.455-18.277,5.545c-2.634,3.904-16.002,0.651-16.002,0.651
				s4.199,5.117-6.862,5.887c-4.555,0.325,6.227,1.966,7.187,9.464c0.992,7.498,4.244,8.813,4.244,8.813l-0.324,10.767
				c0,0,2.616,6.197,12.732,2.928c0,6.536,4.585,12.083,15.337,3.933h6.551c0,0-1.331-5.886,9.108-5.886
				c1.333-2.617-1.936-4.244,1.968-8.488c3.919-4.229-7.512-7.158,5.236-15.646c12.731-8.519-5.236-1.981,4.568-14.374
				c-2.322-3.594-7.838-17.628,6.507-8.488c0.354-5.236,1.303-15.011,2.604-15.011c1.33,0,15.41-5.546,14.389,7.837
				c-0.339,4.245,6.196-1.967,14.331,7.824c6.893-0.325,15.009,3.268,15.009,3.268s-2.172,6.507-0.62,14.359
				c0.62,3.268-5.887,1.301-5.887,1.301c-1.609,8.504,10.456,4.91,13.711,4.57c3.251-0.311-3.92-7.823-3.92-7.823
				c-1.301-6.196,12.099-11.742-0.636-16.977c0,0,12.394-4.259-5.899-5.886c-15.93-1.419-10.102-5.205-10.102-5.205
				s-9.791,0.31-10.781-8.489c-11.076-0.326-6.522-19.256,5.9-3.284c12.394,16.001,0-3.904,14.982,7.217
				c4.895,0,13.706,2.913,14.373,5.206c0.666,2.292,1.641,9.14,1.641,9.14s4.912-1.968,5.207,1.953
				c0.341,3.918,10.455,8.163,11.771,6.536c0.072-0.091,0.166-0.147,0.272-0.181V-75.975z"/>
		</g>
	</g>
</switch>
</svg>
