<?xml version="1.0" encoding="utf-8"?>
<!DOCTYPE svg PUBLIC "-//W3C//DTD SVG 1.1//EN" "http://www.w3.org/Graphics/SVG/1.1/DTD/svg11.dtd" >
<svg version="1.1" id="Layer_1" xmlns="http://www.w3.org/2000/svg" xmlns:xlink="http://www.w3.org/1999/xlink" x="0px" y="0px" viewBox="-247 -247 512 512" enable-background="new -247 -247 512 512" xml:space="preserve">
<switch>
	<g i:extraneous="self">
		<g>
			<g>
				<path fill="#95C11F" d="M-156.772-156.442c3.864-32.917,33.712-56.475,66.615-52.61c32.917,3.863,56.489,33.695,52.626,66.613
					c-3.879,32.918-33.711,56.475-66.614,52.611C-137.064-93.699-160.622-123.523-156.772-156.442z"/>
				<path fill="#95C11F" d="M-97.136-149.44"/>
			</g>
			<g>
				<path fill="#95C11F" d="M-156.772-156.442c3.864-32.917,33.712-56.475,66.615-52.61c32.917,3.863,56.489,33.695,52.626,66.613
					c-3.879,32.918-33.711,56.475-66.614,52.611C-137.064-93.699-160.622-123.523-156.772-156.442z"/>
				
					<path fill="#95C11F" stroke="#1D1D1B" stroke-width="15.3357" stroke-linecap="round" stroke-linejoin="round" stroke-miterlimit="10" d="
					M-97.136-149.44"/>
			</g>
		</g>
		<path fill="#95C11F" d="M112.62,29.091c-13.149,0.951-27.241-1.872-41.348-2.808c-7.549,1.663,48.491-63.71,60.696-81.553
			c-5.646-7.52-29.713,1.669-25.938-11.479c15.021-12.221,17.85-29.136,34.761-42.294c9.42-7.518-4.778-33.89,13.089-32.94
			c2.785,10.335,0.075,24.487,7.562,34.82c8.477,19.747,36.259,36.259,33.608,45.783c-8.477-1.88-21.387,1.633-30.777,1.633
			c-1.858,9.389,50.755,70.052,56.43,81.327c-7.532,12.205-24.455,5.639-36.676,8.462c14.078,16.909,58.241,47.917,58.241,51.677
			c-0.912,6.574-66.719,6.574-66.719,6.574c0,15.972-5.166,50.327,4.253,62.549c-0.973,2.808-56.564,5.061-56.445-8.792
			c0-6.575,7.083-46.231,2.412-53.757c-21.625,5.637-46.996,8.463-68.606,0.942C48.717,78.895,112.62,29.091,112.62,29.091z"/>
		<g>
			<g>
				<path fill="#95C11F" d="M73.693,41.85c-0.841-0.072-1.679-0.14-2.515-0.2c-0.054,0-0.106,0.001-0.16,0.001
					c-4.801,0-9.175-2.1-12.116-5.645c-0.932,7.702-1.844,14.244-1.844,16.538c-0.01,1.418,0.598,2.657,1.687,3.737
					C62.751,52.085,67.66,47.318,73.693,41.85z"/>
			</g>
			<g>
				<path fill="#95C11F" d="M60.866,11.479c1.954-2.941,4.649-6.676,8.23-11.399c6.937-9.148,16.119-20.599,24.999-31.672
					c3.647-4.548,7.34-9.152,10.772-13.472c-4.01-1.217-7.857-3.425-10.84-7.505c-2.152-2.943-5.369-9.248-2.738-18.412l1.328-4.627
					l3.734-3.038c5.266-4.285,8.767-9.807,12.821-16.202c2.173-3.428,4.467-7.043,7.168-10.701
					c-11.475-15.13-21.297-29.166-20.495-33.207c8.912,0,21.146-3.318,29.188-1.534c2.517-9.024-23.826-24.689-31.854-43.396
					c-7.098-9.794-4.522-23.213-7.189-33.007c-16.921-0.898-3.458,24.104-12.386,31.226C57.567-172.99,54.9-156.959,40.644-145.381
					c-3.563,12.475,19.245,3.766,24.607,10.872C53.657-117.58,0.539-55.623,7.682-57.195c13.374,0.892,26.733,3.565,39.192,2.667
					c0,0-60.564,47.213-52.552,57.007c20.488,7.13,44.524,4.454,65.027-0.892C60.445,3.343,60.86,6.952,60.866,11.479z"/>
			</g>
		</g>
		<path fill="#95C11F" d="M-247.03,68.51H48.333c4.718-6.515,12.495-14.997,25.36-26.66c-0.841-0.072-1.679-0.14-2.515-0.2
			c-0.054,0-0.106,0.001-0.16,0.001c-6.133,0-11.58-3.414-14.217-8.909c-0.417-0.869-0.719-1.725-0.963-2.571H-247.03V68.51z"/>
		<path fill="#95C11F" d="M-247.03,85.647v30.672H41.138c-0.963,0.688-1.92,1.369-2.89,2.067
			c-9.284,6.682-18.608,12.843-27.934,18.526H-247.03v23.004h214.084c-88.993,40.643-172.273,38.784-214.084,12.632v92.423h512.114
			V36.37c-11.197-1.991-22.466-3.044-34.104-2.916c-3.465,4.087-7.54,6.696-11.601,8.353c4.268,3.519,8.537,6.958,12.366,10.043
			c5.806,4.678,10.82,8.718,14.661,12.036c5.505,4.756,11.198,9.675,11.198,17.833v1.059l-0.146,1.049
			c-0.55,3.963-3.031,11.13-13.468,14.61c-2.678,0.894-6.049,1.631-10.305,2.256c-6.057,0.89-14.252,1.595-24.359,2.096
			c-6.769,0.336-13.468,0.537-19.096,0.658c-0.476,7.966-0.995,16.925-0.645,24.723c0.472,10.499,2.301,13.221,2.362,13.312
			l5.055,6.558l-2.71,7.823c-3.463,9.996-13.829,11.14-18.812,11.689c-4.301,0.475-9.719,0.736-15.255,0.736
			c-5.93,0-14.768-0.298-23.191-1.717c-10.73-1.807-17.988-4.928-22.842-9.823c-4.005-4.039-6.194-9.27-6.173-14.736
			c0.005-2.648,0.441-6.269,1.344-13.519c0.576-4.618,1.707-13.699,2.308-21.521c-8.728,1.437-17.11,2.161-25.064,2.161
			c-12.562,0-24.164-1.821-34.485-5.414l-4.095-1.425l-2.742-3.357c-3.009-3.684-4.454-8.367-4.167-13.289H-247.03z"/>
	</g>
</switch>
</svg>
