<?xml version="1.0" encoding="utf-8"?>
<!DOCTYPE svg PUBLIC "-//W3C//DTD SVG 1.1//EN" "http://www.w3.org/Graphics/SVG/1.1/DTD/svg11.dtd" >
<svg version="1.1" id="Layer_1" xmlns="http://www.w3.org/2000/svg" xmlns:xlink="http://www.w3.org/1999/xlink" x="0px" y="0px" viewBox="-247 -247 512 512" enable-background="new -247 -247 512 512" xml:space="preserve">
<switch>
	<g i:extraneous="self">
		<g>
			<path fill="#EA572D" d="M97.535,36.02l-0.523-2.885L92.59,51.69c-0.794,3.349-3.221,6.077-6.446,7.262
				c-3.237,1.183-6.834,0.667-9.62-1.372L61.788,46.751l-29.675,99.515c-1.306,4.393-5.336,7.338-9.817,7.338
				c-0.345,0-0.661-0.016-0.99-0.046c-4.887-0.473-8.753-4.323-9.232-9.202L-3.215-8.233l-12.604,59.667
				c-0.989,4.685-5.097,8.065-9.877,8.146c-0.061,0-0.121,0-0.166,0c-4.722,0-8.843-3.223-9.968-7.816l-7.942-32.263l-4.812,13.736
				c-1.439,4.107-5.321,6.873-9.684,6.873h-81.94C-82.997,123.049,9,194.242,9,194.242s88.806-68.751,146.166-149.83h-47.527
				C102.693,44.412,98.452,40.891,97.535,36.02z"/>
			<path fill="#EA572D" d="M-51.732-19.857c1.499-4.279,5.321-7,10.177-6.856c4.526,0.217,8.394,3.387,9.458,7.793l5.47,22.198
				l17.013-80.427c1.049-4.962,5.53-8.439,10.597-8.132c5.051,0.278,9.142,4.189,9.652,9.227L27.316,90.555L46.29,26.914
				c0.961-3.208,3.418-5.74,6.565-6.804c3.193-1.058,6.671-0.519,9.354,1.468l13.999,10.289l12.079-50.712
				c1.095-4.632,5.232-7.883,9.984-7.883c0.073,0,0.166,0,0.253,0.007c4.857,0.12,8.949,3.628,9.834,8.386l7.809,42.223h52.608
				c20.158-32.531,33.963-66.24,33.963-97.701c0-201.256-193.723-30.928-193.723-30.928s-193.754-168.034-193.754,30.928
				c0,30.081,12.59,62.202,31.296,93.391h87.892L-51.732-19.857z"/>
			<path fill="#EA572D" d="M-247,40.111h106.792c-4.676-6.781-9.098-13.632-13.234-20.535H-247V40.111z"/>
			<path fill="#EA572D" d="M265,23.887h-96.225c-4.271,6.91-8.827,13.76-13.609,20.525H265V23.887z"/>
		</g>
	</g>
</switch>
</svg>
