<?xml version="1.0" encoding="utf-8"?>
<!DOCTYPE svg PUBLIC "-//W3C//DTD SVG 1.1//EN" "http://www.w3.org/Graphics/SVG/1.1/DTD/svg11.dtd" >
<svg version="1.1" id="Layer_1" xmlns="http://www.w3.org/2000/svg" xmlns:xlink="http://www.w3.org/1999/xlink" x="0px" y="0px" viewBox="-247 -247 512 512" enable-background="new -247 -247 512 512" xml:space="preserve">
<switch>
	<g i:extraneous="self">
		<g>
			<path fill="#36A9E1" d="M8.992,126.062c64.576,0,116.933-52.342,116.933-116.932C125.925-55.445,8.992-242,8.992-242
				S-107.939-55.445-107.939,9.13C-107.939,73.721-55.583,126.062,8.992,126.062z"/>
			<path fill="#36A9E1" d="M133.128,64.348c-2.832,7.588-6.325,14.838-10.435,21.686c0.042,0.008,0.083,0.017,0.125,0.024
				c-3.129,5.235-6.601,10.246-10.411,14.979c-0.019-0.01-0.036-0.02-0.055-0.029c-5.172,6.48-10.931,12.373-17.208,17.746
				c13.206,5.494,20.436,11.525,20.436,16.02c0,10.619-40.472,30.104-106.588,30.104c-66.114,0-106.558-19.484-106.558-30.104
				c0-4.494,7.218-10.525,20.408-16.02c-6.249-5.373-12.036-11.266-17.207-17.746c-0.015,0.008-0.029,0.016-0.044,0.023
				c-3.799-4.732-7.267-9.742-10.395-14.976c0.038-0.008,0.075-0.016,0.113-0.022c-4.11-6.848-7.604-14.098-10.435-21.686
				C-189.705,79.402-247,108.703-247,150.686c0,63.76,131.906,98.141,255.992,98.141c124.104,0,256.008-34.381,256.008-98.141
				C265,108.703,207.705,79.402,133.128,64.348z M-100.313,104.423c-12.863,8.086-20.737,18.198-20.737,30.351
				c0,35.166,65.438,53.557,130.042,53.557c64.639,0,130.044-18.391,130.044-53.557c0-12.153-7.853-22.267-20.73-30.353
				c37.513,10.721,58.605,25.881,58.605,38.31c0,21.639-63.883,51.816-167.919,51.816c-104.033,0-167.902-30.178-167.902-51.816
				C-158.91,130.303-137.818,115.144-100.313,104.423z M8.992,225.371c-137.029,0-232.522-39.35-232.522-74.686
				c0-20.183,31.215-41.684,83.558-56.416c-25.868,12.2-42.392,28.443-42.392,48.461c0,48.893,98.588,75.271,191.356,75.271
				c92.786,0,191.389-26.379,191.389-75.271c0-20.015-16.525-36.256-42.385-48.455c52.329,14.732,83.536,36.23,83.536,56.41
				C241.532,186.021,146.039,225.371,8.992,225.371z"/>
		</g>
	</g>
</switch>
</svg>
