<?xml version="1.0" encoding="utf-8"?>
<!DOCTYPE svg PUBLIC "-//W3C//DTD SVG 1.1//EN" "http://www.w3.org/Graphics/SVG/1.1/DTD/svg11.dtd" >
<svg version="1.1" id="Layer_1" xmlns="http://www.w3.org/2000/svg" xmlns:xlink="http://www.w3.org/1999/xlink" x="0px" y="0px" viewBox="-247 -247 512 512" enable-background="new -247 -247 512 512" xml:space="preserve">
<switch>
	<g i:extraneous="self">
		<g>
			<path fill="#95C11F" d="M265,68.773v-12.93c-73.961-3.478-134.334,8.619-178.348,22.983c-31.12,3.507-47.144,1.501-60.999-20.738
				c-4.817-36.247-2.348-73.022,13.337-102.57c7.902-14.887,20.411,6.924,20.411,6.924c7.226,7.195,1.806,24.159,9.664,30.422
				c5.75,4.605,33.732,6.036,33.732,1.445c0-16.528,24.099-21.722,24.099-21.722c12.072,5.766,33.765-13.05,34.953-23.241
				c2.424-5.766,4.847-8.67,6.036-15.911c-4.833-7.27-13.261-14.496-12.058-23.21c3.643-5.796,9.664-4.336,9.664-10.146
				c-2.439-4.335-6.021-5.78-7.239-8.715l-4.833-18.815c-15.654-13.066-10.838,8.67-15.654-23.212
				c-1.204-7.209-18.093-14.48-25.318-27.576c-13.247-21.72-42.75-16.151-49.418-33.295c0.707,1.882-7.24-2.875-14.466,2.905
				c0,0-25.318,8.67-31.354,2.89c-24.1,7.255-48.214-5.795-66.292,10.146c-2.408,0-4.817,0-6.036-1.445l-22.895,15.941
				c-2.423,4.364-8.444,11.576-4.801,15.955c6.006,1.429,1.219,8.671-19.297,17.416c-14.782,6.232-20.502,21.735-24.114,39.091
				c1.203,5.826-17.07,14.857-19.478,48.68l-3.433,15.144c1.204,7.481,14.481,14.45,14.481,14.45
				c3.612-1.429,38.564,11.666,49.402,23.227c16.889,7.24,37.375-15.941,38.58-24.656c2.424-4.35,28.931-11.576,39.784-10.146
				C8.794-14.407,7.575,31.988-5.686,62.439c0,2.874-6.021,17.4-6.021,14.48c-20.749,4.172-50.295-6.256-69.704,10.595
				C-146.67,68.694-204.048,57.757-247,51.42v13.293c107.145,15.995,304.325,61.05,486.793,186.229
				c4.426,2.853,12.215,8.799,19.268,14.059H265v-11.806c-5-4.038-10.5-8.203-15.756-11.796
				c-10.22-7.044-20.439-14.058-30.737-20.606c8.479-3.034,24.057-7.678,46.493-10.764v-13.669
				c-36.363,4.644-56.765,13.395-61.064,15.416c-10.566-6.458-21.118-12.72-31.701-18.695c15.495-7.231,46.826-18.918,92.766-23.87
				v-13.599c-58.197,5.771-94.487,22.119-107.696,29.221c-16.843-9.137-33.688-17.838-50.426-25.876
				C119.487,151.82,173.302,124.764,265,120v-12.863c-98.096,5.433-157.623,36.047-172.814,44.925
				c-23.723-10.957-47.204-20.877-70.22-29.773C48.066,106.613,134.349,62.518,265,68.773z"/>
			<path fill="#95C11F" d="M-247,109.662C-148,125.174,20.497,164.824,184.627,265h25.347
				C37.165,154.825-143.265,112.441-247,96.338V109.662z"/>
			<path fill="#95C11F" d="M-247,154.755C-162.624,168.579-35.611,198.928,96.329,265h28.773
				C-17.529,189.549-156.776,156.119-247,141.46V154.755z"/>
			<path fill="#95C11F" d="M-247,200.022C-184.39,210.76-101.669,230.191-11.857,265h35.51
				C-79.965,221.564-176.366,198.642-247,186.626V200.022z"/>
			<path fill="#95C11F" d="M-247,231.509v13.934c11.239,2.317,23.587,4.519,28.351,5.546c18.639,3.847,38.758,8.487,60.025,14.012
				h48.838c-46.41-13.887-88.914-23.768-124.969-30.646C-238.688,233.523-242.89,232.483-247,231.509z"/>
		</g>
	</g>
</switch>
</svg>
