<?xml version="1.0" encoding="utf-8"?>
<!DOCTYPE svg PUBLIC "-//W3C//DTD SVG 1.1//EN" "http://www.w3.org/Graphics/SVG/1.1/DTD/svg11.dtd" >
<svg version="1.1" id="Layer_1" xmlns="http://www.w3.org/2000/svg" xmlns:xlink="http://www.w3.org/1999/xlink" x="0px" y="0px" viewBox="-247 -247 512 512" enable-background="new -247 -247 512 512" xml:space="preserve">
<switch>
	<g i:extraneous="self">
		<g>
			<g>
				<path fill="#EA572D" d="M143.051-160.237c-0.664,0-1.297,0.136-1.946,0.272v-45.522c0-4.875-3.925-8.814-8.798-8.814H14.881
					c-4.858,0-8.827,3.939-8.827,8.814v12.896l-18.109-37.54l6.444-3.32c2.596-1.357,3.637-4.595,2.277-7.213
					c-1.357-2.625-4.603-3.66-7.198-2.301l-21.293,11.016c-2.656,1.358-3.668,4.587-2.294,7.213c0.92,1.841,2.822,2.905,4.738,2.905
					c0.815,0,1.675-0.204,2.46-0.611l5.372-2.776l19.438,40.277H-19.45c2.928,3.041,5.72,6.226,8.193,9.636l-4.239,8.399
					c1.569,2.452,3.032,4.942,4.33,7.515l9.417,0.49c2.611,5.893,4.603,11.982,5.916,18.2l-7.319,5.938
					c0.468,2.883,0.754,5.743,0.921,8.625l8.376,4.279c0.015,6.458-0.681,12.834-1.978,19.029l-9.115,2.468
					C-5.129-99.676-5.4-99.02-5.611-98.34h65.026c7.984-15.189,23.738-25.701,42.059-25.701c16.104,0,30.319,8.082,38.966,20.321
					c0.438-1.041,0.665-2.211,0.665-3.418v-19.098c0.649,0.12,1.282,0.257,1.946,0.257c7.062,0,12.783-7.667,12.783-17.128
					C155.834-152.562,150.113-160.237,143.051-160.237z"/>
				<path fill="#EA572D" d="M101.474-107.976c-17.476,0-31.66,14.17-31.66,31.652c0,17.491,14.185,31.669,31.66,31.669
					c17.493,0,31.661-14.178,31.661-31.669C133.135-93.806,118.967-107.976,101.474-107.976z M101.474-59.7
					c-9.16,0-16.601-7.433-16.601-16.624c0-9.174,7.44-16.6,16.601-16.6c9.192,0,16.601,7.426,16.601,16.6
					C118.074-67.132,110.666-59.7,101.474-59.7z"/>
				<g>
					<g>
						<g>
							<path fill="#EA572D" d="M101.474-76.323"/>
						</g>
					</g>
				</g>
				<path fill="#EA572D" d="M-20.854-97.948c1.146-5.334,1.72-10.82,1.704-16.367l-7.228-3.689c-0.121-2.46-0.378-4.936-0.755-7.433
					l6.278-5.102c-1.117-5.334-2.838-10.593-5.086-15.671l-8.104-0.424c-1.131-2.217-2.369-4.354-3.743-6.481l3.668-7.222
					c-3.184-4.414-6.881-8.526-11.017-12.231l-7.575,2.906c-1.902-1.562-3.925-3.042-6.053-4.399l0.423-8.089
					c-4.708-2.731-9.749-4.98-15.061-6.708l-5.734,5.743c-2.37-0.635-4.799-1.179-7.305-1.578l-2.896-7.546
					c-5.434-0.58-10.972-0.58-16.465,0l-2.927,7.569c-2.445,0.392-4.86,0.906-7.32,1.555l-5.735-5.713
					c-5.176,1.668-10.231,3.917-15.061,6.693l0.438,8.088c-2.067,1.374-4.074,2.808-6.036,4.399l-7.59-2.882
					c-4.045,3.653-7.772,7.735-10.987,12.225l3.667,7.236c-1.358,2.082-2.611,4.218-3.743,6.473l-8.089,0.431
					c-2.249,4.987-3.938,10.224-5.116,15.664l6.339,5.094c-0.423,2.474-0.649,4.942-0.786,7.454l-7.213,3.698
					c0,5.44,0.543,10.934,1.706,16.366l7.832,2.113c0.649,2.392,1.404,4.747,2.309,7.093l-5.085,6.323
					c2.188,4.98,4.965,9.765,8.225,14.254l8.014-1.275c1.555,1.931,3.229,3.78,5.01,5.568l-2.082,7.832
					c4.043,3.652,8.496,6.905,13.325,9.667l6.791-4.414c2.234,1.131,4.482,2.149,6.821,3.041l1.298,8.013
					c5.191,1.698,10.579,2.852,16.103,3.434l4.42-6.813c2.445,0.135,4.966,0.135,7.456,0l4.466,6.792
					c5.419-0.56,10.806-1.683,16.088-3.419l1.298-8.028c2.278-0.868,4.572-1.886,6.806-3.018l6.807,4.391
					c4.724-2.717,9.175-5.953,13.325-9.688l-2.112-7.817c1.765-1.758,3.41-3.607,4.995-5.561l8.028,1.253
					c3.215-4.423,5.991-9.191,8.225-14.254l-5.086-6.324c0.876-2.316,1.63-4.656,2.294-7.085L-20.854-97.948z M-97.562-69.562
					c-24.674,0-44.686-20.026-44.686-44.692c0-24.667,20.011-44.67,44.686-44.67c24.674,0,44.684,20.003,44.684,44.67
					C-52.878-89.588-72.888-69.562-97.562-69.562z"/>
				<g>
					<g>
						<path fill="#EA572D" d="M-84.946-121.814"/>
					</g>
				</g>
				<g>
					<g>
						<path fill="#EA572D" d="M-119.897-114.254c0-12.353,10.005-22.335,22.335-22.335c12.344,0,22.349,9.982,22.349,22.335
							c0,12.359-10.005,22.335-22.349,22.335C-109.892-91.918-119.897-101.895-119.897-114.254z"/>
						<path fill="#EA572D" d="M-95.661-116.156"/>
					</g>
				</g>
			</g>
			<path fill="#EA572D" d="M-38.3,49.605l-97.187-61.919l-97.188,61.919v25.187l10.746,0.189v90.214h172.054h0.105l-0.105-90.403
				H-38.3V49.605z M-135.486,149.817h-41.938V60.546h41.938V149.817z M-72.828,109.132h-40.112V60.546h40.112V109.132z"/>
			<path fill="#EA572D" d="M161.854,114.285v-81.4h-24.599v81.4h-13.399V-14.238H99.272v128.523H43.389v64.267H21.553V42.091h-24.6
				v136.461h-18.486v66.348h246.015V114.285H161.854z M193.876,179.058H79.758v-32.643h114.118V179.058z"/>
		</g>
	</g>
</switch>
</svg>
