<?xml version="1.0" encoding="utf-8"?>
<!DOCTYPE svg PUBLIC "-//W3C//DTD SVG 1.1//EN" "http://www.w3.org/Graphics/SVG/1.1/DTD/svg11.dtd" >
<svg version="1.1" id="Layer_1" xmlns="http://www.w3.org/2000/svg" xmlns:xlink="http://www.w3.org/1999/xlink" x="0px" y="0px" viewBox="-247 -247 512 512" enable-background="new -247 -247 512 512" xml:space="preserve">
<switch>
	<g i:extraneous="self">
		<g>
			<path fill="#36A9E1" d="M203.91,159.222c-1.328-2.407-2.711-4.807-4.15-7.194c40.01-41.207,61.983-94.312,61.983-150.051
				c0-123.375-107.672-223.727-240.009-223.727c-132.352,0-240.04,100.352-240.04,223.727c0,58.011,24.133,115.969,64.923,156.942
				c-28.227,4.842-56.625,3.579-82.056-6.04c-3.25-1.252-6.919,0.402-8.156,3.669c-1.238,3.279,0.417,6.933,3.683,8.17
				c15.961,6.031,33.002,8.99,50.479,9.354l27.177,44.803l16.659-48.215c41.979,28.044,90.024,44.89,139.536,44.89
				c58.01,0,122.282-19.221,195.125-57.75c13.099,22,21.335,44.969,22.771,66.398c0.226,3.341,2.998,5.892,6.294,5.892
				c0.146,0,0.312,0,0.444-0.017c3.49-0.224,6.129-3.235,5.892-6.726c-0.294-4.39-0.871-8.841-1.687-13.329
				c12.827-7.98,20.142-19.653,17.612-30.582C237.495,166.753,222.324,158.947,203.91,159.222z M-205.646,1.976
				c0-116.38,101.992-211.067,227.38-211.067c125.357,0,227.364,94.687,227.364,211.067c0,51.466-19.979,100.565-56.37,139.078
				c-2.343-3.437-4.802-6.837-7.354-10.198c10.267-15.466,11.629-32.942,2.038-42.856c-8.138-8.46-22.024-9.216-35.723-3.331
				c20.588-27.215,31.833-59.985,31.833-93.532c0-89.393-77.971-162.128-173.807-162.128c-95.849,0-173.818,72.736-173.818,162.128
				c0,55.472,33.213,112.612,81.914,142.731c-17.694,9.556-36.776,17.105-56.211,21.912
				C-180.523,116.941-205.646,59.498-205.646,1.976z M111.966,64.923c18.326-22.126,27.922-49.493,27.12-77.5
				c-0.911-30.702-14.122-59.57-37.188-81.311c-25.066-23.619-59.929-36.278-95.611-35.473
				C-64.989-127.199-121.383-71.312-119.43-4.778c1.404,47.972,33.7,90.792,81.032,108.382
				c-9.477,8.318-19.979,16.044-31.196,22.979c-48.333-26.751-81.851-81.971-81.851-135.446c0-82.428,72.29-149.469,161.16-149.469
				c88.856,0,161.146,67.041,161.146,149.469c0,32.985-11.849,65.19-33.473,91.197C129.249,75.993,120.744,70.153,111.966,64.923z
				 M12.087,37.645c-2.93,0.188-5.253,2.354-5.784,5.101c-0.346,0.46-0.637,0.972-0.852,1.535
				C-1.103,61.586-12.814,78.494-28.03,93.849c-0.215-0.097-0.436-0.184-0.666-0.257c-45.404-14.51-76.792-54.188-78.089-98.728
				c-1.759-59.584,49.146-109.626,113.444-111.565c32.388-0.983,63.91,10.676,86.561,32.014
				c20.619,19.429,32.4,45.166,33.207,72.483c0.739,24.756-7.756,49.032-23.93,68.711c1.64-18.204-5.513-34.126-18.778-38.621
				c-13.939-4.729-30.105,4.557-39.746,21.373C33.36,37.564,22.69,36.964,12.087,37.645z M-20.312,103.517l57.212,10.279
				L9.475,65.343c2.826-5.038,5.267-10.138,7.285-15.272c39.922-1.617,80.474,15.683,114.205,42.174
				C63.142,141.311,14.438,145.28-56.732,132.732C-43.356,123.941-31.056,114.092-20.312,103.517z M-134.602,167.383
				c10.188-2.603,20.279-5.909,30.142-9.823l50.535,30.912l-6.777-46.801c23.162,4.177,44.028,6.719,63.902,6.719
				c45.136,0,85.134-13.129,135.354-49.938c17.736,15.121,33.281,32.735,45.46,51.279
				C52.239,219.387-46.523,224.848-134.602,167.383z"/>
			<polygon fill="#36A9E1" points="29.966,-2.213 -7.357,-2.213 -7.357,-78.215 -28.516,-78.215 -28.516,15.605 29.966,15.605 			
				"/>
		</g>
	</g>
</switch>
</svg>
