<?xml version="1.0" encoding="utf-8"?>
<!DOCTYPE svg PUBLIC "-//W3C//DTD SVG 1.1//EN" "http://www.w3.org/Graphics/SVG/1.1/DTD/svg11.dtd" >
<svg version="1.1" id="Layer_1" xmlns="http://www.w3.org/2000/svg" xmlns:xlink="http://www.w3.org/1999/xlink" x="0px" y="0px" viewBox="-247 -247 512 512" enable-background="new -247 -247 512 512" xml:space="preserve">
<switch>
	<g i:extraneous="self">
		<path fill-rule="evenodd" clip-rule="evenodd" fill="#B17F4A" d="M141.781-166.695c-87.287,0-174.606,0-261.864,0
			c-35.307,45.248-70.926,90.144-106.978,134.631c0,0.298,0,0.612,0,0.925C-148.02,49.02-69.711,129.938,8.076,211.364
			C88.771,132.251,165.633,49.259,245.061-31.139c0-0.313,0-0.626,0-0.925C210.604-76.923,175.477-121.09,141.781-166.695z
			 M112.279-129.808c-6.4,26.192-13.291,51.885-19.377,78.368c-20.822-25.268-40.438-51.773-59.932-78.368
			C59.416-129.808,85.848-129.808,112.279-129.808z M-10.361-129.808c-20.346,27.304-40.69,54.6-62.707,80.226
			c-5.981-26.587-11.635-53.541-18.451-79.308C-66.296-131.039-37.09-129.196-10.361-129.808z M-167.128-23.755
			c27.669,0,55.323,0,82.993,0C-59.554,29.42-36.076,83.714-11.3,136.695C-62.328,86.578-118.188,28.406-167.128-23.755z
			 M-63.85-23.755c48.88,0,97.76,0,146.625,0C59.281,31.149,33.701,83.923,9.924,138.515C-15.791,85.534-39.625,30.703-63.85-23.755
			z M109.504-42.207c5.697-27.513,13.006-53.392,19.361-80.218c20.076,26.342,43.523,54.212,60.857,80.218
			C162.992-42.207,136.234-42.207,109.504-42.207z"/>
	</g>
</switch>
</svg>
