<?xml version="1.0" encoding="utf-8"?>
<!DOCTYPE svg PUBLIC "-//W3C//DTD SVG 1.1//EN" "http://www.w3.org/Graphics/SVG/1.1/DTD/svg11.dtd" >
<svg version="1.1" id="Layer_1" xmlns="http://www.w3.org/2000/svg" xmlns:xlink="http://www.w3.org/1999/xlink" x="0px" y="0px" viewBox="-247 -247 512 512" enable-background="new -247 -247 512 512" xml:space="preserve">
<switch>
	<g i:extraneous="self">
		<g>
			<g>
				<path fill="#B17F4A" d="M-19.591-186.561L-233.38,188.018h425.834l1.76-15.897h-1.76c0,0-95.426-84.838-109.548-90.132
					c-14.153-5.279-3.551-21.207-3.551-21.207L68.753,34.297c0,0-8.813-5.294-7.069-14.138c1.791-8.843,1.791-19.446,1.791-19.446
					L58.149-9.859l-5.293-19.447L42.268-39.909v-10.604l-9.73-9.73c0,0,4.437,0.887,4.437-4.407c0-5.309-8.858-3.534-8.858-8.843
					c0-5.294,4.422-6.181,0-10.603c-4.406-4.407-9.7-9.7-9.7-9.7l-6.195-6.197v-51.255l-8.829-8.813l-10.604-10.603l-8.844-8.813
					L-19.591-186.561z"/>
				<path fill="#B17F4A" d="M194.214,32.521c0,0-68.912,42.427-47.69,63.634c21.19,21.19,5.264,40.622,31.779,37.104
					c26.5-3.564,13.294,28.561,30.049,22.935c26.486-8.828,32.695-15.039,45.946-37.103c5.294-8.828,14.122-56.519,3.535-58.31
					c-10.62-1.759-12.379-21.19-26.518-19.416C217.18,43.125,199.493,23.693,194.214,32.521z"/>
				<path fill="#B17F4A" d="M164.165,21.919c5.308-1.76,58.309-5.309,31.81-37.103c0,0-19.416-37.103-28.261-24.725
					c0,0-26.514,14.122-21.19,26.5c0,0-5.323,33.568,14.121,28.274C180.093,9.557,164.165,21.919,164.165,21.919z"/>
				<path fill="#B17F4A" d="M102.337-137.096c0,0-8.813,0-14.139,5.294c-5.292,5.309-5.292,3.534-10.602,8.843
					c-5.294,5.294-3.55-3.534-8.844,7.069c-5.278,10.604-5.278,14.138-7.069,19.431c-1.744,5.295-1.744,14.153-1.744,14.153
					s-8.858,1.744,1.744,10.603c10.619,8.813,12.363,14.107,12.363,14.107l12.378,14.137l7.099,5.294l8.813,5.293L116.46-34.6
					l3.563-8.859l5.278-14.137l7.069-15.897l1.775-5.294v-12.376l-1.775-8.83l-5.309-8.843l-5.31-7.053l-5.293-7.069l-7.055-8.843
					L102.337-137.096z"/>
			</g>
		</g>
	</g>
</switch>
</svg>
