<?xml version="1.0" encoding="utf-8"?>
<!DOCTYPE svg PUBLIC "-//W3C//DTD SVG 1.1//EN" "http://www.w3.org/Graphics/SVG/1.1/DTD/svg11.dtd" >
<svg version="1.1" id="Layer_1" xmlns="http://www.w3.org/2000/svg" xmlns:xlink="http://www.w3.org/1999/xlink" x="0px" y="0px" viewBox="-247 -247 512 512" enable-background="new -247 -247 512 512" xml:space="preserve">
<switch>
	<g i:extraneous="self">
		<path fill="#B2B2B2" d="M-76.332,168.422l-0.845,1.861v2.018c0,9.014,6.263,16.682,18.651,22.912L-130.934,265h25.898
			l65.146-62.765c0.305,0.088,0.603,0.177,0.912,0.264c13.687,3.844,30.242,6.558,48.241,7.997L-47.343,265h25.908l55.437-53.354
			c1.834,0.025,3.676,0.038,5.523,0.038c20.227,0,39.674-1.531,56.699-4.397L36.222,265h25.935l70.033-67.325
			c14.676-6.099,22.688-13.782,23.882-22.959L265,69.998V29.979H91.489L39.713-82.205l153.033,96.023l1.375,0.194
			c1.524,0.18,3.005,0.269,4.424,0.269c9.674,0,16.356-3.842,17.089-4.289l7.146-4.291L84.973-95.016
			c17.791-3.917,49.454-10.226,72.178-14.771c9.358-1.868,17.521-3.498,23.202-4.665l18.328,11.497l26.013-6.458l-33.099-28.359
			l7.28-34.654l-22.56,1.211l-7.623,13.814l-4.784-4.231l-19.346,3.049l12.139,20.527l-57.212,7.608l-56.376,4.261l-131.587-89.34
			l-1.598-0.748c-0.479-0.164-4.86-1.51-9.404-1.51c-5.651,0-8.716,2.108-10.3,3.902l-3.723,4.17l97.353,80.579
			c-11.003,1.914-16.848,6.294-19.868,10.57c-8.985,1.6-31.081,6.338-37.15,15.951c-1.884,3.006-2.242,6.25-1.046,9.374
			c4.754,12.468,29.361,13.425,36.777,13.425c4.693,0,9.448-0.27,13.753-0.822l27.807-1.764c8.147,6.234,18.268,5.231,23.441-1.914
			l7.026-1.106l4.829,3.03L-12.438,29.979H-247v17.938h89.833L-247,135.104v25.092l115.83-112.277h57.825L-247,215.857v25.584
			L-47.347,47.918h26.63l-25.052,54.281L-213.925,265h25.333l121.991-117.663L-76.332,168.422z M27.321,193.108
			c-18.888-0.613-36.683-2.637-51.622-5.892l28.577-27.532c12.126-1.876,24.273-3.003,35.435-3.227
			c7.472-0.153,15.799,0.279,24.409,1.218L27.321,193.108z M122.954,181.578c-3.31,1.268-7.295,2.567-12.092,3.836
			c-15.917,4.209-35.979,6.85-57.544,7.643l33.146-31.9c4.095,0.828,8.146,1.751,12.092,2.771
			c17.438,4.506,26.503,9.085,30.446,11.834L122.954,181.578z M102.28,145.934l15.574-14.989l11.056,23.954
			C121.395,151.485,112.207,148.454,102.28,145.934z M261.918,47.918L149.619,155.931l-17.755-38.47l72.259-69.543H261.918z
			 M120.284,47.918h57.826l-54.239,52.225L106.083,61.6L120.284,47.918z M92.078,75.093l17.785,38.538l-28.932,27.857
			c-14.466-2.399-29.131-3.652-41.591-3.397c-4.325,0.087-8.775,0.3-13.302,0.627L92.078,75.093z M39.525-38.772l31.731,68.752
			H7.795L39.525-38.772z M-0.484,47.918h10.963L-9.289,66.994L-0.484,47.918z M-30.137,112.167l66.612-64.249h43.06l4.547,9.85
			l-87.783,84.605c-9.654,1.655-19.211,3.744-28.247,6.22c-3.716,1.018-10.431,2.86-17.548,5.521L-30.137,112.167z M-29.129,166.881
			l-15.112,14.564c-4.602-1.784-7.863-3.501-10.11-4.969C-49.872,173.978-41.939,170.513-29.129,166.881z"/>
		<polygon fill="#B2B2B2" points="138.839,265 265,143.456 265,118.439 112.94,265 		"/>
	</g>
</switch>
</svg>
