<?xml version="1.0" encoding="utf-8"?>
<!DOCTYPE svg PUBLIC "-//W3C//DTD SVG 1.1//EN" "http://www.w3.org/Graphics/SVG/1.1/DTD/svg11.dtd" >
<svg version="1.1" id="Layer_1" xmlns="http://www.w3.org/2000/svg" xmlns:xlink="http://www.w3.org/1999/xlink" x="0px" y="0px" viewBox="-247 -247 512 512" enable-background="new -247 -247 512 512" xml:space="preserve">
<switch>
	<g i:extraneous="self">
		<path fill="#EA572D" d="M-106.489-24.674c0-15.295-12.393-27.718-27.688-27.718c-15.326,0-27.733,12.423-27.733,27.718
			s12.407,27.719,27.733,27.719C-118.882,3.044-106.489-9.379-106.489-24.674z"/>
		<path fill="#EA572D" d="M14.73,3.029c15.295,0,27.702-12.408,27.702-27.704c0-15.31-12.407-27.718-27.702-27.718
			c-15.325,0-27.733,12.408-27.733,27.718C-13.003-9.379-0.595,3.029,14.73,3.029z"/>
		<path fill="#EA572D" d="M163.623,3.029c15.295,0,27.703-12.408,27.703-27.704c0-15.31-12.408-27.718-27.703-27.718
			c-15.296,0-27.703,12.408-27.703,27.718C135.92-9.379,148.327,3.029,163.623,3.029z"/>
		<g>
			<path fill="#EA572D" d="M62.541,8.368H37.26c-6.407,4.407-14.167,7.009-22.529,7.009S-1.377,12.775-7.814,8.368H-34.27
				c-7.189,0-13.039,5.851-13.039,13.055v89.291c0,7.204,5.85,13.055,13.039,13.055c7.204,0,13.024-5.851,13.024-13.055V42.178
				h5.504l0.031,203.909c0,7.188,5.955,13.896,13.145,13.896c7.188,0,13.024-5.835,13.024-13.023V122.852h7.354v124.107
				c0,7.188,5.821,13.023,13.04,13.023c7.189,0,13.145-6.708,13.145-13.896l0.016-203.909h5.504v68.536
				c0,7.204,5.821,13.055,13.024,13.055c7.204,0,13.04-5.851,13.04-13.055V21.423C75.581,14.219,69.745,8.368,62.541,8.368z"/>
			<path fill="#EA572D" d="M-86.367,8.398h-25.282c-6.422,4.407-14.183,6.979-22.529,6.979c-8.362,0-16.123-2.572-22.56-6.979
				h-26.439c-7.205,0-13.04,5.821-13.04,13.055v89.261c0,7.233,5.835,13.055,13.04,13.055c7.204,0,13.039-5.821,13.039-13.055
				V42.178h5.489l0.004,48.413h-0.004l-12.783,110.812h12.795l0.003,44.699c0,7.173,5.956,13.881,13.16,13.881
				s13.024-5.835,13.024-13.023v-45.557h7.354v45.557c0,7.188,5.835,13.023,13.025,13.023c7.204,0,13.16-6.708,13.16-13.881
				l0.003-44.699h12.81L-104.899,90.69l0.003-48.513h5.49v68.536c0,7.233,5.834,13.055,13.039,13.055
				c7.204,0,13.04-5.821,13.04-13.055V21.453C-73.327,14.219-79.163,8.398-86.367,8.398z"/>
			<path fill="#EA572D" d="M211.434,8.368h-25.281c-6.421,4.407-14.167,7.009-22.529,7.009c-8.361,0-16.123-2.602-22.544-7.009
				h-26.44c-7.189,0-13.055,5.851-13.055,13.055v89.291c0,7.204,5.865,13.055,13.055,13.055c7.204,0,13.04-5.851,13.04-13.055
				V42.178h5.475l0.011,48.413h-0.011l-12.784,110.812h12.819l0.01,44.685c0,7.188,5.926,13.896,13.145,13.896
				c7.174,0,13.039-5.835,13.039-13.023v-45.557h7.324v45.557c0,7.188,5.851,13.023,13.056,13.023
				c7.173,0,13.129-6.708,13.129-13.896l0.01-44.685h12.804L192.925,90.887l0.011-48.709h5.459v68.536
				c0,7.204,5.836,13.055,13.039,13.055c7.205,0,13.041-5.851,13.041-13.055V21.423C224.475,14.219,218.639,8.368,211.434,8.368z"/>
		</g>
		<path fill-rule="evenodd" clip-rule="evenodd" fill="#EA572D" d="M-60.619-183.523c15.295,0,27.703-12.392,27.703-27.688
			c0-15.326-12.407-27.718-27.703-27.718c-15.311,0-27.718,12.392-27.718,27.718C-88.337-195.916-75.929-183.523-60.619-183.523z"/>
		<g>
			<path fill="#EA572D" d="M-12.792-178.169h-20.2c-7.487,6.266-17.122,10.046-27.626,10.046c-10.508,0-20.147-3.78-27.636-10.046
				h-21.363c-7.189,0-13.04,5.85-13.04,13.024v89.32c0,7.205,5.851,13.055,13.04,13.055c7.205,0,13.039-5.85,13.039-13.055v-68.551
				h5.49l0.021,140.426h4.702c9.036,0,16.981,4.762,21.477,11.905v-71.673h7.354v75.064c3.903-8.99,12.858-15.296,23.267-15.296
				h2.927l0.02-140.426h5.49v68.551c0,7.205,5.82,13.055,13.04,13.055c7.203,0,13.024-5.85,13.024-13.055v-89.32
				C0.232-172.319-5.589-178.169-12.792-178.169z"/>
		</g>
		<path fill-rule="evenodd" clip-rule="evenodd" fill="#EA572D" d="M90.049-183.523c15.296,0,27.719-12.392,27.719-27.688
			c0-15.326-12.423-27.718-27.719-27.718c-15.311,0-27.718,12.392-27.718,27.718C62.331-195.916,74.738-183.523,90.049-183.523z"/>
		<g>
			<path fill="#EA572D" d="M137.876-178.169h-20.19c-7.489,6.266-17.128,10.046-27.637,10.046s-20.146-3.78-27.636-10.046H41.079
				c-7.219,0-13.069,5.85-13.069,13.024v89.32c0,7.205,5.851,13.055,13.069,13.055c7.175,0,13.04-5.85,13.04-13.055v-68.551h5.459
				L59.599-3.949h2.942c10.385,0,19.329,6.277,23.251,15.233v-75.001h7.355V7.947c4.5-7.138,12.452-11.896,21.491-11.896h4.687
				l0.021-140.426h5.49v68.551c0,7.205,5.835,13.055,13.04,13.055c7.188,0,13.023-5.85,13.023-13.055v-89.32
				C150.899-172.319,145.064-178.169,137.876-178.169z"/>
		</g>
	</g>
</switch>
</svg>
