<?xml version="1.0" encoding="utf-8"?>
<!DOCTYPE svg PUBLIC "-//W3C//DTD SVG 1.1//EN" "http://www.w3.org/Graphics/SVG/1.1/DTD/svg11.dtd" >
<svg version="1.1" id="Layer_1" xmlns="http://www.w3.org/2000/svg" xmlns:xlink="http://www.w3.org/1999/xlink" x="0px" y="0px" viewBox="-247 -247 512 512" enable-background="new -247 -247 512 512" xml:space="preserve">
<switch>
	<g i:extraneous="self">
		<g>
			<path fill="#F59E00" d="M121.517,112.106V47.258L34.663,80.192V54.737H-50.62v59.869l-62.892,23.443l-9.952-177.112h-26.952
				L-160.9,155.554l-31.438,11.966v64.357h402.662V112.106H121.517z M0.929,189.51h-51.727v-43.951H0.929V189.51z M79.829,189.51
				H28.103v-43.951h51.727V189.51z M158.716,189.51h-51.714v-43.951h51.714V189.51z"/>
			<path fill="#F59E00" d="M-132.305-64.562c7.716,0,3.644-26.923,17.312-41.257c14.186-14.896,46.262-16.808,62.952,8.678
				c6.589,19.991,25.396,34.474,47.625,34.474c21.323,0,39.479-13.313,46.734-32.091c7.256,18.778,25.426,32.091,46.754,32.091
				c27.69,0,50.141-22.479,50.141-50.157c0-2.266-0.208-4.517-0.488-6.708c21.412-5.715,37.199-25.204,37.199-48.425
				c0-27.691-22.45-50.156-50.143-50.156c-18.601,0-34.771,10.13-43.434,25.131c-8.679-15.001-24.85-25.131-43.436-25.131
				c-18.48,0-34.591,10.026-43.269,24.908c-8.724-14.882-24.821-24.908-43.315-24.908c-27.693,0-50.143,22.465-50.143,50.156
				c0,6.131,1.125,11.981,3.125,17.386c-23.975,0.785-46.409,17.193-46.409,41.375C-141.1-84.539-142.759-64.562-132.305-64.562z"/>
		</g>
	</g>
</switch>
</svg>
