<?xml version="1.0" encoding="utf-8"?>
<!DOCTYPE svg PUBLIC "-//W3C//DTD SVG 1.1//EN" "http://www.w3.org/Graphics/SVG/1.1/DTD/svg11.dtd" >
<svg version="1.1" id="Layer_1" xmlns="http://www.w3.org/2000/svg" xmlns:xlink="http://www.w3.org/1999/xlink" x="0px" y="0px" viewBox="-247 -247 512 512" enable-background="new -247 -247 512 512" xml:space="preserve">
<switch>
	<g i:extraneous="self">
		<g>
			<path fill="#95C11F" d="M-92.608-44.701c22.989,16.044,59.84,9.763,85.661,16.995l29.319,12.083v26.469
				c-38.417,5.981-75.81,33.37-87.154,56.993h190.562C115.701,43.582,79.348,17.129,38.4,10.846v-62.175l39.381-12.414
				c38.898,23.171,65.172,6.509,88.162-9.551c25.822-18.26,21.123-46.93,15.143-70.868c-2.215,7.578-12.928,15.441-20.805,17.008
				c-28.355,5.665-44.445-14.327-74.215,3.029c-20.684,13.257-27.809,31.02-21.512,51.795L38.4-66.334
				c0-0.301-0.934-31.487-0.301-51.659c0.934-28.038,35.555-30.944,33.082-68.999c-2.484-44.671-47.154-46.327-76.938-51.283
				c4.414,3.795,5.92,35.298,4.957,39.712c-4.399,18.908-12.384,31.593-5.786,47.983c4.731,13.544,28.957,8.964,28.957,23.125
				V-27.33l-27.103-8.889c6.297-20.774,1.883-39.351-13.243-54.792c-19.193-19.541-40.617-1.899-68.97-7.563
				c-7.865-1.567-18.59-9.461-20.791-17.008C-113.715-91.644-118.446-62.975-92.608-44.701z"/>
			<path fill="#95C11F" d="M145.002,59.84l11.918,28.698h51.328c25.143,0,25.143-37.769,0-37.769h-67.975
				C142.051,53.782,143.723,56.781,145.002,59.84z"/>
			<path fill="#95C11F" d="M227.621,147.323H53.557c-4.068,0-4.068-10.545,0-10.545h174.064c25.158,0,25.158-37.739,0-37.739H53.557
				c-3.932,0-4.023-9.718-0.348-10.396H-64.783h-33.068l14.312-29.799C-71.547,33.836-41.175,10.077-8.227-2.276h-48.36
				c-28.881,0-77.512,75.823-77.512,75.823H-215V233h413.033c25.158,0,25.158-37.407,0-37.407H53.557
				c-4.068,0-4.068-10.545,0-10.545h174.064C252.779,185.048,252.779,147.323,227.621,147.323z"/>
			<path fill="#95C11F" d="M69.947-2.276c21.619,7.833,41.324,20.157,55.742,34.68c11.117-11.568,4.852-34.68-17.053-34.68H69.947z"
				/>
		</g>
	</g>
</switch>
</svg>
