<?xml version="1.0" encoding="utf-8"?>
<!DOCTYPE svg PUBLIC "-//W3C//DTD SVG 1.1//EN" "http://www.w3.org/Graphics/SVG/1.1/DTD/svg11.dtd" >
<svg version="1.1" id="Layer_1" xmlns="http://www.w3.org/2000/svg" xmlns:xlink="http://www.w3.org/1999/xlink" x="0px" y="0px" viewBox="-247 -247 512 512" enable-background="new -247 -247 512 512" xml:space="preserve">
<switch>
	<g i:extraneous="self">
		<g>
			<path fill="#B2B2B2" d="M260.164,190.055l-95.507-55.138c9.857-21.249,15.357-44.875,15.357-69.771
				c0-89.378-70.805-162.425-160.092-167.552v-123.626c0-5.802-4.7-10.51-10.503-10.51c-5.802,0-10.502,4.708-10.502,10.51v123.684
				c-88.88,5.576-159.213,78.425-159.213,167.494c0,24.74,5.43,48.229,15.173,69.375l-96.186,55.533
				c-5.052,2.902-6.746,9.328-3.853,14.363c1.934,3.373,5.483,5.252,9.096,5.252c1.791,0,3.613-0.448,5.275-1.408l95.665-55.235
				C-105.173,201.006-51.438,233,9.884,233c61.146,0,114.746-31.832,144.735-79.607l95.043,54.869
				c1.662,0.96,3.452,1.408,5.242,1.408c3.613,0,7.162-1.879,9.112-5.252C266.926,199.383,265.199,192.957,260.164,190.055z
				 M55.41,124.205c-4.636,6.146-24.041,3.069-32.578,4.604c-6.202,4.604-11.638,20.708-9.303,32.203
				c1.693,8.416,24.041,40.643,33.345,49.082c-20.941,8.424-58.954,3.069-70.607,0.767c-10.854-4.595-41.13-26.071-43.463-32.977
				c-13.204-19.983,3.132-39.109,8.552-53.679c-0.783-29.9-27.159-36.046-38.796-30.677c-9.255,4.269-10.87,17.633-11.637,21.478
				c-0.784,3.844-10.087,14.569-14.739,12.269c-15.521-18.398-16.304-63.646-14.754-81.278c3.101-24.543,42.665-7.68,48.099-7.68
				c5.436,0,10.871-10.733,20.974-19.926c10.07-9.208,52.751-5.37,48.882-3.078c-3.9,2.303-17.872,5.364-24.074,8.433
				c-6.202,3.077,3.885,8.441,11.653,9.975c7.753,1.534,36.462,9.968,46.566,12.276c-0.784,3.062,1.534,24.53,0.767,30.669
				c-0.767,9.976-3.102,29.908,0,39.876c3.101,9.967,20.94,2.309,28.709,2.309C52.309,111.944,60.077,118.066,55.41,124.205z
				 M152.409,36.782c0.781-6.13-6.203-21.47-12.405-19.936c-6.219,1.544-8.537,16.873-3.885,27.601
				c4.651,10.742,6.985,29.156,6.985,36.047c0,6.903-10.87,20.709-17.072,23.77c-6.201,3.061-7.001,33.753-31.043,29.908
				c-17.775-2.83-6.202-36.032-13.971-44.464c-7.737-8.446-17.072-1.549-29.477-9.214c-12.405-7.665-9.304-18.407-1.567-27.6
				c7.77-9.207,20.974-20.708,22.507-26.84c1.567-6.138-5.434-19.941-10.102-16.872c-4.636,3.062-20.142,9.208-23.243,10.734
				c-3.101,1.536-21.74,0.76-24.841-5.371c-3.102-6.131,7.753-6.889,11.637-11.509c3.885-4.588,0.784-16.856-3.101-15.339
				C18.947-10.75,6.527-16.129,2.659-23.793c-3.884-7.674,13.187-14.572,15.521-21.47c2.318-6.905-2.334-18.407-6.985-12.268
				c-4.667,6.137-15.521,0.758-20.956,5.363c-5.42,4.604-2.319,9.968-8.553,9.968c-6.202,0-17.055-2.295-18.606,3.068
				c-1.567,5.378-15.522,12.27-19.406,17.64c-3.868,5.363,1.566,12.268,2.334,15.337c0.767,3.07-9.32,9.968-13.204,12.269
				c-3.869,2.302-7.737-8.439-2.302-13.035c5.434-4.588-7.77-15.33-10.103-15.33c-2.334,0-17.84,8.433-19.374,10.742
				c-1.567,2.285,0,13.02,0.767,21.468c0.767,8.433-11.653,9.192-14.77,10.719c-3.086,1.534-13.172-6.897-10.839-9.191
				c2.318-2.303,3.102-8.448,1.536-11.502c12.42-32.978,55.085-84.354,133.476-84.354c41.114,0,81.461,22.994,102.434,41.401
				c20.941,18.414,43.449,65.956,44.997,74.378C160.178,39.859,153.19,42.161,152.409,36.782z"/>
			<path fill="#B2B2B2" d="M72.77-175.214c0,0.832-0.271,1.807-0.959,3.054c-2.365,4.587-6.122,8.615-9.447,10.694
				c-3.469,2.501-6.938,4.027-9.863,4.723l3.886,14.298c4.171-0.55,11.108-2.772,17.918-8.608c7.93-6.945,14.18-18.19,23.482-43.471
				l16.945-46.118H96.523l-10.55,36.119c-1.392,4.3-2.638,9.439-3.613,13.188h-0.415c-0.976-3.749-2.494-8.888-3.885-13.052
				l-12.085-36.254H47.081l24.857,62.095C72.642-176.876,72.77-175.91,72.77-175.214z"/>
			<path fill="#B2B2B2" d="M217.195,125.764l7.77-13.477c2.095-3.748,4.172-7.089,6.122-10.973h0.271
				c1.952,3.748,3.901,7.362,6.124,10.973l8.184,13.477h19.438L242.052,90.62l22.637-32.506h-18.606l-7.498,12.5
				c-2.077,3.478-4.028,6.954-5.979,10.702h-0.271c-1.95-3.469-3.901-6.801-6.122-10.415l-8.041-12.787h-19.039l22.636,33.201
				l-23.466,34.448H217.195z"/>
			<path fill="#B2B2B2" d="M-184.672,112.145h-35.551v-0.281c3.469-3.604,6.666-7.498,9.991-11.523l24.729-31.803V58.114h-53.614
				v13.619h32.785v0.28c-3.484,3.884-6.394,7.218-9.863,11.39l-25.417,32.49v9.87h56.939V112.145z"/>
		</g>
	</g>
</switch>
</svg>
