<?xml version="1.0" encoding="utf-8"?>
<!DOCTYPE svg PUBLIC "-//W3C//DTD SVG 1.1//EN" "http://www.w3.org/Graphics/SVG/1.1/DTD/svg11.dtd" >
<svg version="1.1" id="Layer_1" xmlns="http://www.w3.org/2000/svg" xmlns:xlink="http://www.w3.org/1999/xlink" x="0px" y="0px" viewBox="-247 -247 512 512" enable-background="new -247 -247 512 512" xml:space="preserve">
<switch>
	<g i:extraneous="self">
		<path fill="#95C11F" d="M103.421,256.093c1.894-10.173,8.409-18.858,15.601-26.507c16.833-17.875,36.678-31.868,47.746-53.939
			c1.997-3.985,5.508-10.84,2.267-13.22c-12.597-9.255-28.722,14.775-37.716,12.628c-6.456-1.547-2.597-8.963,9.656-15.652
			c14.291-7.823,20.839-12.303,30.717-25.32c4.296-5.646,8.092-11.959,6.666-19.362c-11.681-10.41-26.44,1.277-39.036,4.624
			c-4.774,1.262-8.497,5.166-14.264,2.748c-3.199-4.668,0.152-10.268,3.289-13.633c9.834-10.472,21.605-18.917,27.581-32.01
			c2.838-6.2,2.687-13.138,0.675-19.779c-1.397-4.663-6.365-5.945-10.736-6.765c-5.12-0.932-18.347,9.068-24.757,9.946
			c-4.174,0.564-4.548-4.368-4.399-7.521c0.391-9.339,0.271-18.805-4.008-27.197c-1.982-3.858-6.577-5.939-10.512-4.933
			c-7.131,1.847-12.279,8.475-14.382,15.217c-3.108,9.947-0.602,35.53-8.948,31.312c-12.373-6.239-30.072-16.897-40.448-2.8
			c-2.509,3.408-0.302,8.399,1.621,12.056c5.481,10.473,12.657,20.208,23.422,25.824c5.826,3.047,23.783,29.254,3.197,22.078
			c-12.444-4.347-22.925-13.888-36.873-11.561c-4.159,0.69-6.936,4.978-6.022,9.3c1.217,5.812,4.162,10.12,8.14,14.325
			c11.186,11.853,22.717,21.935,36.273,30.913c17.521,11.613,12.041,24.519,0.96,15.179c-8.408-7.079-25.161-19.173-31.199-19.525
			c-3.827-0.225-7.957,0.308-9.219,3.866c-4.128,11.591,4.867,22.258,11.785,31.229c10.195,13.167,22.479,22.176,35.435,32.559
			c9.864,7.882,19.385,16.312,24.067,27.97L99.909,265h3.483L103.421,256.093z"/>
		<path fill="#95C11F" d="M239.704,5.637c-0.57-4.046-2.206-11.62-2.491-14.143c-0.285-2.53-6.907-10.111-13.213-13.641
			c-4.971-5.81-21.769-25.516-23.406-29.299c-1.667-3.791-2.492-6.824-0.841-8.093c1.649-1.261,5.509-6.569,6.337-9.594
			c3.016-0.767,6.621-3.791,7.718-5.556c3.047-0.254,5.222-0.254,6.032-1.261l15.182,4.791l-11.592-8.333
			c-0.827-3.784-2.192-9.848-10.166-12.881c-8.002-3.026-17.926-1.516-23.721,3.281c-2.746,0.262-13.499,0.757-15.134,3.542
			c-3.304-17.175-16.546-74.77-25.359-85.886c-5.495-11.12-31.949-36.882-46.272-45.974c-14.354-9.099-32.52-22.228-38.031-29.299
			c-0.54,1.509,1.652,8.078,4.414,10.599c-3.332-0.501,1.098,7.598,3.844,10.105c-3.288,1.013,1.667,9.091,4.972,13.145
			c-3.875-1.006-3.875,3.019-1.113,6.058c-3.288,0,3.859,10.104,7.176,12.132c-3.843-0.503-1.65,4.542,2.208,6.561
			c3.858,2.027,5.496,4.542,1.651,4.046c-3.859-0.504,1.096,5.045,4.954,6.569c3.847,1.509,4.955,4.047,1.654,3.543
			c-3.319-0.51,0.554,3.018,4.397,5.547c2.208,2.522,8.259,4.543,8.259,7.072c3.317,3.033,6.08,9.594,8.271,11.62
			c-2.191,3.537,1.667,13.131,3.319,16.171c-0.557,2.523-1.652,9.091,2.206,12.116c0,4.04,3.287,11.621,5.512,13.641
			c-0.558,5.06,2.192,16.171,4.396,18.189c-2.204,3.536,1.11,12.635,3.303,16.674c1.114,3.543,4.415,7.071,2.21,10.112
			c-2.21,3.025-6.05,4.541-10.467,5.547c-4.397,1.014-88.717,19.204-100.848,20.719c11.021,0.999,81.57-5.562,84.859-5.562
			c3.317,0,7.176,1.508-2.192,5.562c-9.369,4.039-68.87,39.404-74.951,43.947c21.502-9.603,97.549-44.953,106.914-49.006
			c4.416,0.51,12.658,0,15.405-1.006c0.57,2.523,5.255,4.797,7.461,5.059c1.381,3.522,7.163,7.567,9.354,7.83
			c0.556,2.26,6.337,5.547,8.83,5.045c0,2.529,6.051,8.333,8.797,8.333c0.84,2.784,4.43,5.562,6.621,5.052
			c0.827,3.033,5.238,8.843,7.447,8.843c2.193,0,0.556,2.274,0.825,3.798c0.272,1.509,1.097,7.575,3.302,6.568
			c0.83,2.516-0.824,8.078,3.035,5.796c0.271,2.282,0.824,12.634,3.857,6.823c-0.556,3.538,0,14.158,2.764,8.588
			c1.381,4.543,3.572,11.372,5.208,6.816c1.128,4.055,5.797,14.151,6.352,10.615c2.763,5.301,6.605,20.96,7.717,12.372
			c0.827,3.296,4.414,14.15,5.24,10.367c0.826-3.792,0.526-0.256,1.937,1.006c1.096,1.014,2.733,3.784,3.019,6.321
			C247.152,68.035,241.205,13.181,239.704,5.637z"/>
		<path fill="#95C11F" d="M-144.998-59.276c-15.945-14.188-35.449-24.818-58.481-26.583c-5.314,0-11.56-2.605-17.716,1.765v1.78
			c12.401,8.85,17.716,26.574,17.716,44.305c1.787,15.944,20.929,23.917,23.032,28.354l3.063,5.923
			c-0.781,4.804-9.024-1.27-13.664-4.158c-3.393-2.088-5.345-5.308-10.645-7.081c-1.787,0-3.558,1.772-3.558,3.529
			c-1.772,5.33-2.373,12.213,1.771,15.951c8.199,7.372,17.731,10.638,28.362,10.638c19.488-1.779,42.52-7.093,56.693,7.087
			c1.771,3.552,5.87,6.771,3.829,9.422c-2.989,3.91-3.829,2.981-5.585,2.981c-8.859-7.088-15.946-19.49-28.361-17.711
			c-12.402,0-21.261,7.079-26.575,15.945c-1.788,5.314-1.788,12.401,1.772,15.951c7.071,7.08,14.172,15.953,14.172,26.576
			c-1.771,8.858-7.101,19.503-1.771,28.354c3.543,1.772,5.315,5.321,8.888,5.321c8.843-21.267,35.403-21.243,38.96-46.055
			c1.246-8.775-1.787-21.283,3.543-26.612c3.543-3.535,5.316-5.308,7.087-10.621C-100.692-11.441-120.18-36.245-144.998-59.276z
			 M-179.996-53.414c-1.351-1.155-1.501-10,10.494-6.508c18.271,7.529,29.817,20.133,40.462,36.086
			c-8.858-7.094-15.645-13.964-26.589-19.489C-164.412-47.769-173.72-47.979-179.996-53.414z M-155.628-22.065
			c0,0-1.771-1.771,0-3.551l2.732-1.103l3.153,0.286c12.372,3.536,20.704,11.462,26.02,20.321
			C-130.826-14.971-142.657-17.411-155.628-22.065z M-136.126,73.627c-2.072,1.547-4.233,3.439-7.085,1.772
			c-2.192-1.248-2.973-4.003-1.786-5.308c6.155-6.825,9.743-7.38,19.502-12.425C-127.267,64.776-129.475,68.643-136.126,73.627z"/>
		<path fill="#95C11F" d="M5.863-85.859c-23.062,1.765-42.537,12.395-58.496,26.583c-24.803,23.032-44.291,47.835-42.535,85.062
			c1.787,5.313,3.559,7.086,7.102,10.621c5.3,5.329,2.297,17.703,3.558,26.478c3.529,24.804,30.118,24.923,38.992,46.189
			c3.528,0,5.315-3.549,8.842-5.321c5.331-8.851,0-19.495-1.771-28.354c0-10.623,7.102-19.496,14.173-26.576
			c3.558-3.55,3.558-10.637,1.756-15.951c-5.3-8.866-14.159-15.945-26.575-15.945c-12.401-1.779-19.488,10.623-28.347,17.711
			c-1.756,0-2.613,0.929-5.584-2.981c-2.027-2.651,2.042-5.87,3.828-9.422c14.158-14.18,37.205-8.866,56.678-7.087
			c10.644,0,20.179-3.266,28.377-10.638C10.021,0.772,9.391-6.112,7.65-11.441c0-1.757-1.788-3.529-3.56-3.529
			C-1.24-13.198-3.19-9.979-6.569-7.89c-4.64,2.889-12.883,8.962-13.665,4.158l3.034-5.923c2.103-4.437,21.29-12.41,23.062-28.354
			c0-17.731,5.314-35.455,17.701-44.305v-1.78C17.439-88.464,11.177-85.859,5.863-85.859z M-52.633,70.092
			c1.2,1.305,0.405,4.06-1.757,5.308c-2.882,1.667-5.059-0.226-7.101-1.772c-6.637-4.984-8.843-8.851-10.63-15.96
			C-62.378,62.712-58.758,63.267-52.633,70.092z M-41.988-22.065c-12.957,4.654-24.819,7.094-31.89,15.953
			c5.3-8.859,13.602-16.786,26.004-20.321l3.183-0.286l2.703,1.103C-40.201-23.835-41.988-22.065-41.988-22.065z M-17.604-53.414
			c-6.291,5.435-15.615,5.645-24.383,10.089C-52.964-37.8-59.719-30.93-68.577-23.835c10.645-15.953,22.174-28.557,40.448-36.086
			C-16.104-63.414-16.284-54.569-17.604-53.414z"/>
	</g>
</switch>
</svg>
