<?xml version="1.0" encoding="utf-8"?>
<!DOCTYPE svg PUBLIC "-//W3C//DTD SVG 1.1//EN" "http://www.w3.org/Graphics/SVG/1.1/DTD/svg11.dtd" >
<svg version="1.1" id="Layer_1" xmlns="http://www.w3.org/2000/svg" xmlns:xlink="http://www.w3.org/1999/xlink" x="0px" y="0px" viewBox="-247 -247 512 512" enable-background="new -247 -247 512 512" xml:space="preserve">
<switch>
	<g i:extraneous="self">
		<path fill="#B17F4A" d="M-68.942,175.941l7.928,36.208c3.663-0.076,7.207,0.517,10.735,1.604l3.393-36.808
			C-53.868,175.461-61.225,174.979-68.942,175.941z"/>
		<path fill="#B17F4A" d="M72.428,218.357l13.905,33.84c8.526-3.4,15.87-7.883,22.388-12.627l-16.247-33.623
			C86.198,211.051,79.788,215.504,72.428,218.357z"/>
		<path fill="#B17F4A" d="M9.582,248.616c8.992,3.544,17.356,6.007,25.164,7.522l3.782-36.545
			c-3.363-0.803-6.861-1.764-10.646-3.084L9.582,248.616z"/>
		<path fill="#B17F4A" d="M-37.938,179.388l-3.5,38.03c4.941,2.56,9.939,5.848,15.195,9.533l12.958-35.35
			C-20.642,186.91-28.9,182.466-37.938,179.388z"/>
		<path fill="#B17F4A" d="M0.979,201.368c-2.013-1.448-4.188-2.98-6.412-4.526l-13.062,35.605
			c6.577,4.706,12.972,9.084,19.638,12.483l18.153-31.845C14.086,210.714,7.719,206.195,0.979,201.368z"/>
		<path fill="#B17F4A" d="M47.566,221.254l-3.783,36.373c3.783,0.418,7.401,0.628,10.885,0.628c8.452,0,16.049-1.155,23.002-3.076
			l-14.129-34.323C58.737,221.72,53.467,221.915,47.566,221.254z"/>
		<path fill="#B17F4A" d="M100.388,199.236c-0.228,0.202-0.453,0.404-0.678,0.609l16.411,34.02c2.898-2.379,5.691-4.722,8.241-6.942
			c3.02-2.606,5.888-5.023,8.692-7.23l-25.973-26.14C104.815,195.431,102.578,197.351,100.388,199.236z"/>
		<path fill="#B17F4A" d="M116.121,186.549c-0.602,0.42-1.156,0.908-1.757,1.344l25.794,25.959
			c5.63-6.185,6.472-15.651,1.471-22.798C135.819,182.773,124.423,180.753,116.121,186.549z"/>
		<path fill="#B17F4A" d="M-122.361,206.054c-7.072,7.236-6.937,18.818,0.27,25.89c7.251,7.087,18.844,6.938,25.899-0.284
			c9.744-9.971,18.272-15.569,26.139-18.024l-7.866-35.906C-91.764,181.451-106.643,189.958-122.361,206.054z M-104.81,220.78
			c-5.871,0-10.631-4.751-10.631-10.607c0-5.854,4.76-10.613,10.631-10.613c5.855,0,10.584,4.759,10.584,10.613
			C-94.226,216.029-98.955,220.78-104.81,220.78z"/>
		<path fill="#B17F4A" d="M265,84.713V54.861c-49.896-43.253-152.17-64.408-246.906-66.1l-0.149-39.974l34.832-20.66
			c46.829,31.687,106.074-33.895,117.756-77.022c-68.87-37.865-128.085,34.344-123.266,63.938L17.254-67.45l-0.075-31.861
			c68.149-40.634,19.759-135.756-9.835-145.199c-18.587,15.15-76.166,95.519-4.532,145.095L1.729-69.109L-29.17-89.085
			c-17.206-81.932-85.385-80.558-117.065-62.661c2.763,27.551,17.913,95.722,111.554,78.493l35.823,20.66v41.266
			C-94.481-10.686-196.745,9.955-247,53.355v29.766C-213.527,33.656-104.347,7.655,1.52,6.979c-0.481,2.153-0.847,3.999-1.052,4.92
			c-4.595,20.367-19.263,35.785-40.553,43.704l-22.491-12.415c-2.672-1.464-5.886-0.105-7.147,3.077
			c-1.23,3.184-0.089,6.981,2.612,8.452l9.64,5.323c-1.38,0.239-2.687,0.578-4.098,0.758c-8.692,1.045-16.005,2.245-22.312,3.739
			l-20.584-13.017c-2.583-1.606-5.855-0.474-7.267,2.619c-1.41,3.1-0.406,6.943,2.208,8.618l10.733,6.771
			c-11.619,5.54-18.225,14.015-24.456,28.264c-1.397,3.123-0.346,6.958,2.281,8.58c0.78,0.495,1.636,0.721,2.477,0.721
			c1.937,0,3.8-1.253,4.759-3.422c5.691-12.974,10.961-19.977,24.338-24.556v14.338c0,3.528,2.401,6.374,5.374,6.374
			c2.989,0,5.376-2.846,5.376-6.374V76.279c5.135-1.052,11.11-1.967,18.167-2.815c4.714-0.57,9.219-1.419,13.571-2.499l0.422,12.774
			c0.148,3.424,2.522,6.104,5.39,6.104c0.062,0,0.15,0,0.21,0c2.973-0.143,5.255-3.115,5.15-6.628l-0.541-15.714
			c15.149-5.764,27.311-15.081,35.779-27.107c-4.88,18.965-13.979,39.683-29.638,51.312c-7.958,5.886-13.738,8.123-19.323,10.292
			c-7.388,2.868-13.349,5.637-19.909,12.717l-14.083-7.124c-2.748-1.396-5.87,0.121-7.042,3.348
			c-1.156,3.243,0.105,6.989,2.837,8.364l10.586,5.359c-2.357,3.55-4.88,7.552-7.612,12.565c-1.605,2.944-0.915,6.893,1.592,8.792
			c0.899,0.705,1.892,1.043,2.898,1.043c1.74,0,3.482-1.028,4.518-2.897c3.891-7.087,7.161-12.093,10.166-15.998
			c1.216-0.638,2.281-1.585,2.853-3.145c0.045-0.136,0.015-0.279,0.074-0.414c2.388-2.648,4.67-4.549,6.907-5.989v15.719
			c0,3.536,2.401,6.366,5.359,6.366c2.973,0,5.359-2.83,5.359-6.366v-20.727c5.45-2.095,12.041-4.857,20.51-11.118
			c9.129-6.763,16.62-16.538,22.565-27.699c-6.44,22.018-19.143,49.574-45.853,77.472c-2.222,2.325-2.416,6.358-0.464,8.993
			c1.065,1.432,2.551,2.139,4.022,2.139c1.292,0,2.537-0.518,3.574-1.584c9.007-9.436,16.546-18.844,22.835-28.061
			c3.229,14.091,8.544,28.601,10.466,33.631c0.901,2.357,2.837,3.754,4.909,3.754c0.721,0,1.485-0.195,2.223-0.57
			c2.672-1.457,3.888-5.233,2.641-8.438c-2.325-6.118-9.997-27.025-11.724-42.069C0.543,102.966,6.354,86.969,9.882,73.307
			c3.482,13.558,9.339,29.645,19.474,47.084c-1.803,15.043-9.34,35.666-11.682,41.738c-1.217,3.205-0.015,6.981,2.657,8.438
			c0.737,0.375,1.502,0.57,2.238,0.57c2.041,0,3.993-1.396,4.879-3.754c1.922-5.022,7.222-19.428,10.448-33.488
			c6.293,9.106,13.844,18.467,22.867,27.918c1.037,1.066,2.298,1.584,3.574,1.584c1.485,0,2.957-0.707,4.022-2.139
			c1.952-2.635,1.758-6.668-0.479-8.993c-28.227-29.519-40.885-57.917-46.935-79.793c6.096,12.132,13.92,22.806,23.678,30.021
			c8.454,6.261,15.06,9.023,20.494,11.118v20.727c0,3.536,2.388,6.366,5.344,6.366c2.958,0,5.376-2.83,5.376-6.366v-15.719
			c2.236,1.44,4.504,3.341,6.891,5.989c0.062,0.135,0.046,0.278,0.092,0.414c0.57,1.56,1.636,2.507,2.852,3.145
			c3.002,3.905,6.275,8.911,10.165,15.998c1.05,1.869,2.747,2.897,4.487,2.897c1.008,0,2.043-0.338,2.944-1.043
			c2.478-1.899,3.183-5.848,1.577-8.792c-2.733-5.014-5.24-9.016-7.611-12.565l10.584-5.359c2.732-1.375,4.01-5.121,2.837-8.364
			c-1.172-3.227-4.294-4.743-7.056-3.348l-14.07,7.124c-6.559-7.08-12.521-9.849-19.906-12.717
			c-5.586-2.169-11.366-4.406-19.309-10.292C34.64,80.077,25.557,59.359,20.661,40.395c8.469,12.026,20.645,21.35,35.794,27.107
			L55.899,83.2c-0.12,3.521,2.192,6.501,5.149,6.644c0.061,0,0.136,0,0.211,0c2.867,0,5.24-2.681,5.374-6.104l0.45-12.774
			c4.341,1.08,8.845,1.929,13.56,2.499c7.056,0.849,13.03,1.764,18.167,2.815v17.176c0,3.528,2.386,6.374,5.375,6.374
			c2.957,0,5.358-2.846,5.358-6.374V79.117c13.393,4.579,18.679,11.582,24.367,24.556c0.931,2.169,2.823,3.422,4.747,3.422
			c0.855,0,1.682-0.226,2.477-0.721c2.611-1.622,3.678-5.457,2.296-8.58c-6.231-14.249-12.852-22.724-24.472-28.264l10.733-6.771
			c2.612-1.675,3.618-5.519,2.208-8.618c-1.396-3.123-4.652-4.241-7.254-2.619l-20.599,13.017
			c-6.318-1.494-13.602-2.694-22.311-3.739c-1.41-0.18-2.717-0.519-4.067-0.758l9.625-5.323c2.671-1.471,3.829-5.269,2.581-8.452
			c-1.245-3.183-4.489-4.541-7.147-3.077L60.268,55.604c-21.305-7.919-35.973-23.337-40.551-43.704
			c-0.205-0.909-0.566-2.707-1.04-4.811C123.257,9.11,232.449,35.576,265,84.713z"/>
	</g>
</switch>
</svg>
