<?xml version="1.0" encoding="utf-8"?>
<!DOCTYPE svg PUBLIC "-//W3C//DTD SVG 1.1//EN" "http://www.w3.org/Graphics/SVG/1.1/DTD/svg11.dtd" >
<svg version="1.1" id="Layer_1" xmlns="http://www.w3.org/2000/svg" xmlns:xlink="http://www.w3.org/1999/xlink" x="0px" y="0px" viewBox="-247 -247 512 512" enable-background="new -247 -247 512 512" xml:space="preserve">
<switch>
	<g i:extraneous="self">
		<g>
			<g>
				<path fill="#36A9E1" d="M135.365-62.398c0.375-0.286,2.166,0,2.602,0c0-0.466-0.256-3.053,0-3.264
					c-1.006-0.3-0.557-0.631-1.971-0.631C134.795-66.323,135.41-63.525,135.365-62.398z"/>
			</g>
			<g>
				<path fill="#36A9E1" d="M239.156,120.562c-3.219-6.512-7.295-11.159-13.613-15.581c0.994-1.879,0.889-3.278,1.941-5.173
					c-0.871-0.302-2.738-0.12-3.912-0.646c0-6.754-3.188-6.241-7.533-10.121c0.602-0.618,0.902-0.498,1.699-0.889
					c0-7.564-7.383-16.197-13.611-18.846v-0.631c-1.473-0.752-2.99-1.744-4.541-2.602c0-4.347-1.955-2.722-1.955-7.806
					c1.309,0.165,2.029,0.737,3.248,1.294c-0.586-3.068-0.182-4.738-1.293-7.13h-1.293c-2.723-14.738-6.227-26.907-6.512-42.803
					c4.932-18.695-2.648-24.711-11.686-40.909c-0.662,0.436-1.205-0.421-1.91,0c-0.107,0.09,0,1.805,0,1.985
					c-0.438,0-1.566-0.226-1.957,0c-0.449-0.421-0.24-2.211-0.678-2.617c-0.391-0.331-1.443,0.211-1.895,0
					c0,0-1.805-3.174-1.955-3.249h-0.646c-8.076-15.49-33.223-16.664-45.42-27.884c-0.33-0.255-0.406-2.376-0.691-2.617
					c2.512-0.48,3.805,0.392,3.895,2.617c1.475,0.181,3.25,0.301,5.25,0.646c0-16.979-37.043-28.094-46.773-28.53
					c-2.98,0.18-3.672-0.662-5.838-1.308c-0.404-4.317-0.404-4.889,0.648-8.438c-11.928-4.136-13.389-8.662-19.432-16.904h-1.34
					c-1.863-2.526-2.932-5.339-3.188-8.422c1.594-1.038,3.113-0.812,4.527,0.676c-0.391-1.759-2.33-4.769,0.676-3.925
					c1.428,2.481,3.594,3.564,6.467,3.249c-9.158-12.094-20.889-47.963-31.146-53.182c-0.045-0.038,0-1.872,0-1.955l-5.174-1.279
					c-3.461,9.146-8.709,14.438-11.67,22.004c-0.707-0.271-1.896,0.302-2.633,0c-3.746-6.737-5.896-14.077-6.482-22.004
					c-4.873-3.256-2.588-2.797-2.588-8.444c0.949-0.497,1.414,0.443,1.984,0.654c1.521-3.384,4.574-4.978,5.057-9.099
					c0.133-3.271-2.934-5.084-5.777-7.783c0.707,2.782-0.572,4.52-3.834,5.204c-1.7-0.985-4.602-4.332-7.113-4.551
					c-4.963,2.911-5.641,4.641-2.001,5.19v1.3c-12.258-1.029-14.814,5.671-25.944,7.107c0.272-1.692,1.76-5.792-0.661-5.792
					c-1.986,5.092-3.714,10.272-5.173,15.544c1.774,4.678,6.286,9.438,7.774,15.574c-1.067,0.211-2.135,0-3.233,0v1.294
					c-1.157-0.18-0.542-2.046-0.601-3.249c-0.453,0-2.302,0.271-2.617,0c0.45,1.985,0.751,3.309,0.646,5.204
					c-3.565-1.084-4.857,0.451-3.88,4.541c-3.385,0-4.633-0.15-8.438-1.294c-0.391,0.468-2.527,2.258-2.616,2.587
					c-1.233,3.731,5.685,5.295,7.143,5.837l0.632,1.323c1.624,0.271,2.481-0.782,3.279-0.661c0.932,7.46,3.504,25.748,11.023,28.545
					c9.535,8.091,18.741,15.612,28.487,23.356c-1.489,6.212,0.043,9.461,4.602,9.717c1.262,9.7,0.932,15.009,1.911,23.387
					C16.385-53.9,28.025-46.516,34.162-35.792c2.977,6.166,11.324,12.468,17.506,16.228c2.844-1.64,5.008-1.218,6.498,1.278
					c2.33,0.361,7.533-0.888,10.361-1.278v-1.339c5.115,1.625,9.867,0.992,14.291-1.925c6.51,8.393-1.627,16.062-8.408,18.83
					c-0.723,1.113-0.029,2.015-0.678,3.248h-1.309c-0.361,1.686,18.498,7.58,20.094,8.423c10.678,6.406,27.416,25.267,38.982,30.501
					c21.809,11.101,34.908,14.078,28.502,46.084c-12.59-1.144-10.783-8.063-11.672-14.952c-3.67-2.074-4.752-4.661-3.248-7.79
					c-1.609-2.24-3.986-2.677-7.115-1.294l-0.691-1.293c-7.76-1.173-15.986,0.182-18.785-9.083
					c-3.023,0.421-9.684,0.541-11.67,1.955c-5.414,3.338-17.207,24.892-17.506,31.161c-1.219,9.416,10.33,8.198,14.902,12.303
					c4.59,4.423,8.184,5.37,7.16,13.627c0,0-1.248,0.57-1.324,0.633c0,6.105,1.76,8.856,1.941,14.934
					c-0.994-0.225-0.496,0.918-1.941,0.646c-18.092,2.466-28.59,16.966-34.32,36.998H74.41c-0.844,1.233,0.135,2.617-0.678,3.88
					c-4.166-0.406-7.4,1.745-9.717,6.498c-9.398-0.091-9.773-3.97-9.773-14.921c7.338-2.315,11.232-7.939,11.686-16.874
					c-1.055-0.271-2.287,0.15-2.559-0.662c-1.805-4.136,6.783-8.061,9.055-9.083c-0.256,2.602,0.844,3.459,3.309,2.602
					c3.91-8.106,1.805-15.296,0-24.018H74.41c-1.82-8.574-4.92-15.732-9.762-22.683c-2.438-7.007-2.617-12.542-5.881-18.167
					c-1.277,0.136-4.482-0.09-5.82,0.631c0.09,1.203-0.33,2.302-1.279,3.279c-6.586-2.211-11.551-6.767-14.904-13.656
					c10.438-22.529-8.211-18.153-18.814-18.799c2.316-1.94,3.189-4.318,2.588-7.129c-0.588,0-2.814,0.33-3.264,0
					c-0.873-0.723-0.422-1.865-0.617-3.265c-2.633-1.64-4.393-1.188-5.25,1.309c0-0.06,0-1.864,0-1.926
					c-1.85-1.112-3.548-0.901-5.127,0.617C2.909,18.501,4.248,9.402-7.319,7.673c-0.812,1.956,0.106,1.504-1.367,2.602
					C-33.593-6.734-59.281-28.362-76.772-56.532c-4.15-1.67-6.754-1.038-7.805,1.895c-1.594,0.422-0.828-0.947-1.941-0.631
					c0.361-0.646-0.301-1.911,0-2.602c0.27-0.588,2.663-1.475,3.234-1.957c0.766-2.27-0.092-3.578-2.557-3.909
					c-1.836-2.196,0.812-5.775-3.881-7.099c-0.601-0.722-0.481-2.437-0.691-3.25c-6.062,0.617-10.394-2.195-12.95-8.451
					c-0.225-2.902,0.857-4.843,3.249-5.806c1.701-6.121,0.406-9.596-3.895-10.377c-5.054-12.003,0.149-39.391-14.936-42.819
					c-0.736-0.36-1.924,0.346-2.571,0c0,0.061,0,1.91,0,1.926c-0.331,0.135-7.053-5.038-7.159-5.189
					c-10.122-13.776-25.116-20.68-40.877-7.79c-13.356,11.79-17.868,10.017-35.043,14.287c-0.136,0.03-8.212,4.001-9.068,4.513
					v1.309c-2.452,0.015-3.73,1.098-3.881,3.233c-3.639,2.271-7.896,1.248-11.1,2.617c0,0-0.556,3.038-0.556,3.248
					c-2.015,0.256-3.819,0.391-5.204,0.632c-0.119,2.617,0.106,5.204,0.677,7.761c-4.512-0.481-5.881-0.376-9.114-0.603
					c-0.362,0.872,0.031,1.504-0.691,1.94c-0.365,0.102-1.659,0.225-3.466,0.338v220.423c10.5-4.646,14.146-14.955,30.282-14.955
					c20.814,0,20.814,17.191,41.66,17.191s20.845-17.191,41.691-17.191c20.83,0,20.83,17.191,41.69,17.191
					c20.86,0,20.86-17.191,41.691-17.191c20.875,0,20.875,17.161,41.72,17.191v10.242c-20.529-0.166-20.665-17.13-41.39-17.13
					c-20.845,0-20.845,17.175-41.75,17.175c-20.846,0-20.846-17.175-41.69-17.175c-20.845,0-20.845,17.175-41.706,17.175
					c-20.846,0-20.846-17.175-41.691-17.175c-16.249,0-19.851,10.413-30.507,15.018v24.048c10.5-4.643,14.146-14.942,30.282-14.942
					c20.814,0,20.814,17.177,41.66,17.177s20.845-17.177,41.691-17.177c20.83,0,20.83,17.177,41.69,17.177
					c20.86,0,20.86-17.177,41.691-17.177c20.875,0,20.875,17.146,41.72,17.177v10.256c-20.529-0.181-20.665-17.146-41.39-17.146
					c-20.845,0-20.845,17.177-41.75,17.177c-20.846,0-20.846-17.177-41.69-17.177c-20.845,0-20.845,17.177-41.706,17.177
					c-20.846,0-20.846-17.177-41.691-17.177c-16.249,0-19.851,10.413-30.507,15.019V265h512V119.88
					C255.826,118.745,242.246,119.215,239.156,120.562z M-162.515,56.674h-1.308c0.525,3.909-0.782,7.369-3.926,10.361
					c-5.354-1.053-3.008,0.196-6.408-2.603c0.197-0.901,0.948-1.081,0.558-2.586c-4.062-2.406-8.604-1.985-13.581,1.293
					c-1.113,2.137-0.888,4.092,0.691,5.851c-5.28,17.553-15.266,0.422-17.567-4.558c-2.542,1.188-3.76,1.144-5.805,2.603
					c0.181-0.166-0.512-2.603-0.677-3.232c1.174-0.451,2.077-0.421,3.911-0.663c1.023-11.309,3.413-17.521,5.143-29.177
					c2.062-0.723,2.889-0.723,4.558-1.294c-0.286-2.406,0.316-4.782-0.633-6.527c-1.127,0.15-2.225-0.061-3.249-0.632
					c0-1.804,0.045-4.061,0-5.835c1.023-0.377,1.64,0.36,2.603,0.631c1.714-7.94,4.947-25.567-6.528-27.883
					c2.392-4.286,0.497-4.467,1.339-8.453h0.632c1.053-2.016,0.873-3.038,1.955-5.188c0.586,0.421,1.083,1.91,1.308,2.602
					c12.425,0,22.365-0.962,31.75-11.039c0.511-0.181,1.594,0.301,2,0c0.632-0.526,0.015-2.737,0.632-3.188
					c2.692,7.145,6.587,9.746,11.656,7.761c-1.932,5.422-0.85,9.71,3.246,12.91c-0.074-0.222-0.089-0.292,0.048,0.04
					c0.58,1.659,0.457,1.363,0.249,0.796c5.514,17.565-6.853,47.453-13.904,63.44C-164.199,54.779-162.183,53.56-162.515,56.674z
					 M-153.46-52.337c0,0-3.189,0.572-3.189,0.632c-3.37,2.737,1.76,10.378-7.82,10.378c-0.151,0.21-0.542,1.248-0.647,1.294h-1.324
					v-4.513c-2.557-1.008-7.564-6.166-10.332-6.497v-1.94c6.377,1.099,4.121,0.497,5.791-3.895
					c-6.573-2.558-10.634-8.152-6.423-14.95h1.234c1.504-4.586-3.204-5.865-1.925-10.377c4.332-1.774,2.166-3.354,0-6.497
					c10.317-7.852,27.763-9.867,29.177-20.078c2.376-0.813,3.023-2.543,1.956-5.189c0.811,1.068,1.894,1.068,3.263,0
					c0.18,1.248-0.301,1.354-0.662,2.587c0.36-1.233,1.444,1.083,0,0C-137.158-105.908-150.903-57.225-153.46-52.337z
					 M41.938,175.804c-2.797,1.368-4.527,3.76-5.174,7.145h-1.309c-1.805,3.369-6.211,7.489-7.805,10.347
					c-2.19,3.238-1.931,12.688-7.065,14.925c0,0.002-0.01,0.008-0.048,0.025c-4.047,1.354,0.225,10.122-0.648,16.184
					c11.371,8.061-1.803,4.934-3.91,20.153c-11.1-3.445-15.265,0.511-20.755-8.453c-8.226-7.128-18.905-14.589-29.192-18.8
					c-3.684-2.662-7.068-4.106-11.009-4.573c-0.315-0.69-0.15-2.226-0.691-3.248c-4.467-6.106-8.949-8.722-14.243-9.686
					c-0.061-0.044-0.647-1.985-0.647-1.985c-12.95-1.563-10.332-0.271-15.551-12.934c3.549-3.157,3.474-5.083,7.098-6.527v-0.647
					c3.565-0.421,5.1-2.36,4.542-5.819c0.301,0.256,2.151,0,2.618,0c0.271,0.661-0.286,1.849,0,2.587
					c4.979,6.165,9.068,6.376,12.287,0.661c-0.406-0.209-0.917,0.451-1.217,0.646c-0.842-0.615-1.896-2.15-2.647-2.586
					c4.526-0.196,7.113-0.497,11.67-0.678c1.353,6.136,0.992,6.528,6.452,3.91c2.842,9.806,28.681,9.716,34.456,8.453
					c6.844-3.97,24.351-4,27.855-10.407c4.24,0.812,9.398-0.03,14.258-0.662C40.826,174.812,42.328,174.226,41.938,175.804z"/>
			</g>
		</g>
	</g>
</switch>
</svg>
