<?xml version="1.0" encoding="utf-8"?>
<!DOCTYPE svg PUBLIC "-//W3C//DTD SVG 1.1//EN" "http://www.w3.org/Graphics/SVG/1.1/DTD/svg11.dtd" >
<svg version="1.1" id="Layer_1" xmlns="http://www.w3.org/2000/svg" xmlns:xlink="http://www.w3.org/1999/xlink" x="0px" y="0px" viewBox="-247 -247 512 512" enable-background="new -247 -247 512 512" xml:space="preserve">
<switch>
	<g i:extraneous="self">
		<path fill="#EA572D" d="M-172.955,265l0-2.823l27.982-33.321h78.144V265h17.821v-36.145H57.245V265h17.822v-36.145h106.568V265
			h17.809v-36.145h64.859v-17.852h-64.859l-0.301-111H265V82.19h-65.856V71.859l9.113,7.614c0,0,31.647-54.854,56.743-98.504
			v-84.021L232.84-46.66h-33.696v-111.028H265v-17.822h-455.906l0.128,440.51H-172.955z M199.144-28.838h23.532l-23.532,41.263
			V-28.838z M181.336,82.19H75.546l45.299-75.752l60.491,50.542V82.19z M181.336,3.064l-38.648-31.902h38.648V3.064z
			 M75.067-157.688h106.269V-46.66h-60.238l-11.122-9.181l-5.49,9.181H75.067V-157.688z M75.067-28.838h18.76l-18.76,31.37V-28.838z
			 M75.067,100.004h106.269v111l-106.269,0.029V100.004z M-49.009-157.688H57.245V-46.66H-49.009V-157.688z M-49.009-28.838H57.245
			v61.171L27.429,82.19h-47.155l-29.283-26.286V-28.838z M16.776,100.004l-5.819,9.73l-10.839-9.73H16.776z M-49.009,114.579
			l1.547-1.842l68.164,61.166l36.543-61.109v98.239H-49.009V114.579z M-172.965,198.798l-0.014-98.794h82.981
			C-117.461,132.702-152.87,174.863-172.965,198.798z M-66.83,211.033h-63.177l63.177-75.232V211.033z M-66.83,72.42
			c-2.508,2.986-5.259,6.261-8.207,9.771h-97.958l-0.045-111.028H-66.83V72.42z M-66.83-46.66h-106.209l-0.045-111.028H-66.83
			V-46.66z"/>
	</g>
</switch>
</svg>
