<?xml version="1.0" encoding="utf-8"?>
<!DOCTYPE svg PUBLIC "-//W3C//DTD SVG 1.1//EN" "http://www.w3.org/Graphics/SVG/1.1/DTD/svg11.dtd" >
<svg version="1.1" id="Layer_1" xmlns="http://www.w3.org/2000/svg" xmlns:xlink="http://www.w3.org/1999/xlink" x="0px" y="0px" viewBox="-247 -247 512 512" enable-background="new -247 -247 512 512" xml:space="preserve">
<switch>
	<g i:extraneous="self">
		<g>
			<path fill="#F59E00" d="M-9.018,15.214c-4.488-4.154-10.002-4.718-25.09,5.161l-37.383,33.857l-42.623-6.003
				c11.866-13.162,0-25.714-11.559-8.641l-5.375,6.749l-29.993-3.101l3.971-6.735c6.505-10.309-2.749-17.164-11.376-8.642
				l-10.447,12.767c0,0-35.29-7.361-41.032-1.695l-14.401,14.185l73.042,26.574c10.11,4.778,23.273,12.092,29.503,16.979
				c8.187,6.491,11.728,8.677-2.992,22.849l-37.443,45.446l-45.692-6.019l-11.516,11.348l33.964,20.05l-3.117,5.834l7.332,7.33
				l5.956-2.947l19.852,34.114l11.423-11.437l-5.743-45.737l45.677-37.169c14.278-14.645,16.416-11.058,22.86-2.856
				c4.872,6.26,12.079,19.471,16.814,29.624l26.1,73.18l14.292-14.277c5.711-5.711-1.466-41.08-1.466-41.08l12.844-10.369
				c8.566-8.567,1.786-17.865-8.568-11.423l-6.78,3.956l-2.887-29.99l6.781-5.377c17.149-11.439,4.626-23.396-8.582-11.606
				l-5.743-42.683l34.069-37.17C-4.36,25.263-4.511,19.384-9.018,15.214z"/>
			<path fill="#F59E00" d="M38.215-43.075c0-4.191,0-9.568,0-14.119H13.141c0,3.963,0.029,10.407,0.029,14.119
				C13.17-31.019,38.215-30.874,38.215-43.075z"/>
			<path fill="#F59E00" d="M-78.318-42.579c0-4.643,0-10.163,0-14.706h-23.594c0,4.375,0.032,10.866,0.032,14.371
				C-101.88-30.942-78.318-30.049-78.318-42.579z"/>
			<path fill="#F59E00" d="M49.363-64.446c1.591,0,2.777-0.695,2.777-2.781c0-3.473,0-31.915,0-37.566
				c0-18.478,0.066-46.271,0.066-64.277c0-7.153-1.561-19.37-4.507-27.479c-1.774-4.872-3.864-10.757-8.782-13.3
				c-37.597-19.395-105.063-19.333-139.409,0.342c-4.873,2.803-9.483,7.301-11.133,13.317c-2.902,10.651-4.489,21.662-4.505,27.045
				c-0.076,11.444,0,43.828,0,57.396c0,4.176,0,41.049,0,44.522c0,1.566,1.511,2.781,3.392,2.781c2.55,0,4.075,0,6.076,0h32.818
				c11.76,0,69.515,0,82.068,0h35C45.487-64.446,45.15-64.446,49.363-64.446z M-70.147-210.676c0-1.465,1.19-2.657,2.657-2.657
				H2.787c1.465,0,2.658,1.191,2.658,2.657v6.575c0,1.481-1.193,2.672-2.658,2.672H-67.49c-1.467,0-2.657-1.191-2.657-2.672
				V-210.676z M-90.397-92.408c-6.796,0-12.292-5.506-12.292-12.301c0-6.796,5.496-12.302,12.292-12.302
				c6.78,0,12.309,5.506,12.309,12.302C-78.089-97.914-83.617-92.408-90.397-92.408z M26.396-92.408
				c-6.796,0-12.309-5.506-12.309-12.301c0-6.796,5.513-12.302,12.309-12.302s12.308,5.506,12.308,12.302
				C38.704-97.914,33.192-92.408,26.396-92.408z M34.796-128.571h-135.684c-1.375,0-2.765-2.372-2.765-3.48l3.481-57.741
				c0-2.1,2.14-4.878,4.858-4.878H31.315c1.142,0,4.183,3.016,4.183,6.268l4.153,55.647
				C39.651-130.785,37.178-128.571,34.796-128.571z"/>
			<path fill="#F59E00" d="M-3.749-146.483c-8.612,0-15.82,5.972-17.714,13.996h35.429C12.057-140.512,4.849-146.483-3.749-146.483z
				"/>
			<path fill="#F59E00" d="M210.75,119.807c-1.957,1.085-3.728,1.969-5.303,2.657c0.169-1.025,0.276-2.335,0.276-4.017
				c0-7.88,0-34.376,0-43.354c0-2.934,0.445-6.812,2.033-10.798c2.473-6.338,10.656-27.305,13.131-33.612
				c1.467-3.739,2.565-7.024,2.411-9.438c-25.303-10.994-73.402-31.924-80.018-34.825c-6.659-2.909-8.309-2.666-14.43,0
				c-5.072,2.22-52.732,22.959-78.954,34.336c-0.322,2.397,0.811,5.62,2.153,9.501c3.694,10.763,9.652,27.623,11.772,34.037
				c1.393,4.107,2.586,6.352,2.586,10.979c0,8.981,0,37.75,0,46.743c0,0.718,0.073,1.316,0.15,1.896
				c-2.793-0.49-5.683-1.741-9.132-3.863c-14.725-9.026-27.245-9.026-41.782,0.013l9.224,14.92
				c9.01-5.571,14.232-5.544,23.396,0.033c7.177,4.41,13.865,6.596,20.555,6.596c6.764,0,13.575-2.231,20.905-6.674
				c8.947-5.435,14.187-5.435,23.472,0.045c14.783,8.722,26.358,8.75,41.218,0.138c9.836-5.709,14.064-5.741,23.762-0.104
				c15.057,8.688,25.793,8.688,41.17,0.03c10.124-5.697,13.697-5.697,23.715,0l8.679-15.241
				C236.435,111.116,226.096,111.116,210.75,119.807z"/>
			<path fill="#F59E00" d="M127.858-27.286h-24.023c-2.917,0-5.284-2.343-5.284-5.268v-4.926c0-2.923,2.367-5.283,5.284-5.283h64.69
				c2.916,0,5.283,2.36,5.283,5.283v4.926c0,2.924-2.367,5.268-5.283,5.268h-24.296c1.019,0.36,2.105,0.795,3.268,1.314
				c4.824,2.084,31.58,13.72,55.526,24.144c0-6.521,0-20.081,0-24.616c0-2.39-1.62-3.588-3.696-3.588c-5.409,0-6.077,0-12.463,0
				c-2.458,0-3.59-1.467-3.59-3.604c0-3.696,0-7.859,0-12.469c0-2.475-1.631-3.704-3.739-3.704c-6.293,0-12.399,0-19.639,0
				c-2.23,0-3.604-1.283-3.604-3.475c0-4.611,0-11.606,0-16.172c0-2.856-1.192-3.718-3.604-3.718c-6.277,0-23.354,0-33.23,0
				c-2.399,0-3.604,1.313-3.604,3.718c0,5.384,0,12.355,0,16.059c0,2.587-1.498,3.588-3.591,3.588c-4.503,0-13.423,0-19.789,0
				c-2.766,0-3.59,0.817-3.59,3.612c0,3.694,0,7.192,0,12.56c0,3.007-0.517,3.71-3.803,3.71c-5.469,0-4.263,0-12.369,0
				c-2.688,0-3.587,1.092-3.587,3.596c0,3.238,0,17.478,0,24.518c24.492-10.667,51.77-22.54,55.509-24.159
				C125.763-26.477,126.819-26.926,127.858-27.286z"/>
		</g>
	</g>
</switch>
</svg>
