<?xml version="1.0" encoding="utf-8"?>
<!DOCTYPE svg PUBLIC "-//W3C//DTD SVG 1.1//EN" "http://www.w3.org/Graphics/SVG/1.1/DTD/svg11.dtd" >
<svg version="1.1" id="Layer_1" xmlns="http://www.w3.org/2000/svg" xmlns:xlink="http://www.w3.org/1999/xlink" x="0px" y="0px" viewBox="-247 -247 512 512" enable-background="new -247 -247 512 512" xml:space="preserve">
<switch>
	<g i:extraneous="self">
		<path fill="#F59E00" d="M111.555-177.402L37.342,265h15.864l7.937-47.31h80.612l0.233,47.31h15.641l-0.232-47.31h80.553
			l8.484,47.31h12.862l-71.773-442.38c2.422-1.323,4.136-3.812,4.136-6.775c0-4.324-3.504-7.828-7.821-7.828h-5.369h-21.071v-15.303
			c0-4.316-3.519-7.821-7.82-7.821c-4.33,0-7.821,3.505-7.821,7.821v15.303h-18.618c-0.377-0.127-0.706-0.36-1.128-0.437
			c-1.339-0.218-2.604,0.022-3.805,0.437h-2.933c-4.302,0-7.836,3.504-7.836,7.828C107.436-181.208,109.149-178.733,111.555-177.402
			z M233.452,191.01l-71.964-60.925l54.098-45.526L233.452,191.01z M192.681-51.986l16.259,96.931l-49.121-58.083L192.681-51.986z
			 M184.257-102.316l-25.297-38.209l15.071-22.746L184.257-102.316z M157.396-176.334h6.497l-6.497,9.836V-176.334z
			 M157.396-114.544l24.923,37.667h-24.923V-114.544z M157.396-61.229h22.589l-22.589,26.726V-61.229z M157.396,8.226l45.992,54.354
			h-45.992V8.226z M157.396,78.227H198.8l-41.403,34.84V78.227z M157.396,147.124l64.897,54.917h-64.897V147.124z M106.382-52.046
			l32.922,38.907L90.109,45.027L106.382-52.046z M83.462,84.559l53.752,45.502l-71.453,60.123L83.462,84.559z M141.755,202.041
			H75.957l65.798-55.353V202.041z M141.755,113.382l-41.554-35.155h41.554V113.382z M141.755,62.579h-46.02l46.02-54.354V62.579z
			 M141.755-34.495l-22.648-26.733h22.648V-34.495z M141.755-76.877h-24.949l24.949-37.637V-76.877z M141.755-176.334v9.774
			l-6.482-9.774H141.755z M125.078-163.394l15.098,22.861l-25.37,38.358L125.078-163.394z"/>
		<path fill="#F59E00" d="M-227.785-46.512h4.437c-0.662,1.219-1.098,2.542-1.098,3.985c0,4.851,3.985,8.497,10.633,10.362
			c-6.648,1.872-10.633,5.512-10.633,10.362c0,8.196,10.919,12.476,21.703,12.476c10.768,0,21.702-4.279,21.702-12.476
			c0-4.851-4.001-8.49-10.633-10.362c6.632-1.865,10.633-5.512,10.633-10.362c0-1.443-0.451-2.767-1.113-3.985h19.506L-192.021,265
			h15.694l6.626-72.441H-9.814L-2.93,265h15.718L-16.883-46.504H5.12c-0.361,0.939-0.602,1.917-0.602,2.985
			c0,4.662,3.655,8.218,9.851,10.158c-6.196,1.926-9.851,5.476-9.851,10.137c0,8.228,10.904,12.528,21.703,12.528
			c10.769,0,21.687-4.301,21.687-12.528c0-4.661-3.668-8.211-9.851-10.137c6.183-1.94,9.851-5.496,9.851-10.158
			c0-1.068-0.239-2.046-0.615-2.985h4.151c2.721,0,5.232-1.399,6.662-3.7c1.428-2.294,1.564-5.158,0.375-7.58l-47.27-96.021
			c-1.324-2.685-4.03-4.377-7.023-4.377H-34.6h-0.392h-109.925h-35.403c-2.978,0-5.686,1.685-7.009,4.361l-47.465,96.015
			c-1.203,2.43-1.068,5.293,0.376,7.588C-233.004-47.918-230.492-46.512-227.785-46.512z M-168.213,176.91l5.189-54.55l54.714,54.55
			H-168.213z M-42.932-25.893l-46.849,46.653l-47.134-46.653H-42.932z M-106.61-62.16l-24.754-24.794h83.154L-72.936-62.16H-106.61z
			 M-89.765,93.703l-53.557-53.376H-36.51L-89.765,93.703z M-23.47,49.39l4.557,47.735h-52.173L-23.47,49.39z M-108.49,97.125
			h-52.113l4.512-47.429L-108.49,97.125z M-150.451,112.773h121.056l-60.37,60.52L-150.451,112.773z M-16.537,122.046l5.233,54.864
			h-59.979L-16.537,122.046z M-0.685-142.533L38.884-62.16h-57.241l-7.67-80.373H-0.685z M-25.816,24.679h-45.721l41.766-41.592
			L-25.816,24.679z M-32.119-41.541h-39.298l4.978-4.963h33.854L-32.119-41.541z M-34.073-62.16h-16.755l15.28-15.326L-34.073-62.16
			z M-37.924-102.596h-33.523l30.591-30.771L-37.924-102.596z M-53.82-142.533l-35.945,36.156l-36.216-36.156H-53.82z
			 M-138.689-133.096l30.545,30.5h-33.448L-138.689-133.096z M-143.983-77.457l15.265,15.297h-16.724L-143.983-77.457z
			 M-146.946-46.512h33.839l4.964,4.971h-39.27L-146.946-46.512z M-108.069,24.679h-45.63l3.925-41.292L-108.069,24.679z
			 M-175.461-142.533h21.958l-7.671,80.373h-54.008L-175.461-142.533z"/>
	</g>
</switch>
</svg>
